<?xml version="1.0" standalone="no"?>
<!DOCTYPE svg PUBLIC "-//W3C//DTD SVG 1.1//EN" "http://www.w3.org/Graphics/SVG/1.1/DTD/svg11.dtd" >
<svg xmlns="http://www.w3.org/2000/svg">
<metadata></metadata>
<defs>
<font id="andes_condensed_boldbold" horiz-adv-x="976" >
<font-face units-per-em="2048" ascent="1536" descent="-512" />
<missing-glyph horiz-adv-x="374" />
<glyph unicode="&#xfb01;" horiz-adv-x="1177" d="M45 776v211h123v96q0 193 84 303.5t260 110.5q37 0 71 -8.5t56.5 -20.5t40 -24t25.5 -20l8 -9l-82 -198q-3 5 -9.5 12.5t-30 20t-50.5 12.5q-111 0 -111 -191v-84h617v-694q0 -45 15.5 -66.5t53.5 -21.5v-201q-41 -14 -115 -14q-217 0 -217 260v526h-354v-776h-262v776 h-123zM754 1325q0 70 46.5 117t114.5 47t115 -47t47 -117t-47 -115t-115 -45t-114.5 45t-46.5 115z" />
<glyph unicode="&#xfb02;" horiz-adv-x="1196" d="M45 776v211h123v96q0 192 86.5 303t265.5 111q39 0 76 -9t61.5 -22t43.5 -26t27 -22l9 -9l-82 -197q-4 6 -11.5 14t-35 22t-59.5 14q-119 0 -119 -191v-84h254v-211h-254v-776h-262v776h-123zM803 250v1237h262v-1194q0 -45 16 -66.5t54 -21.5v-201q-41 -14 -115 -14 q-217 0 -217 260z" />
<glyph unicode="&#xfb03;" horiz-adv-x="1761" d="M45 776v211h123v96q0 192 86.5 303t265.5 111q39 0 76 -9t61.5 -22t43.5 -26t27 -22l9 -9l-82 -197q-4 6 -11.5 14t-35 22t-59.5 14q-119 0 -119 -191v-84h324v96q0 193 84 303.5t260 110.5q57 0 106.5 -20.5t70.5 -40.5l21 -21l-79 -198q-4 5 -10.5 12.5t-30.5 20 t-50 12.5q-110 0 -110 -191v-84h614v-694q0 -45 15 -66.5t53 -21.5v-201q-39 -14 -113 -14q-217 0 -217 260v526h-352v-776h-262v776h-324v-776h-262v776h-123zM1337 1325q0 70 46.5 117t113.5 47q68 0 116 -47t48 -117q0 -69 -47.5 -114.5t-116.5 -45.5q-67 0 -113.5 45.5 t-46.5 114.5z" />
<glyph unicode="&#xfb04;" horiz-adv-x="1781" d="M45 776v211h123v96q0 192 86.5 303t265.5 111q39 0 76 -9t61.5 -22t43.5 -26t27 -22l9 -9l-82 -197q-4 6 -11.5 14t-35 22t-59.5 14q-119 0 -119 -191v-84h324v96q0 94 20 168t61.5 130t109.5 86t159 30q39 0 76 -9t61.5 -22t43.5 -26t27 -22l9 -9l-80 -197l-1 2l-4 4 l-5.5 5.5t-7.5 7t-9.5 7.5t-12 7t-14 6.5t-16 5.5t-18.5 3.5t-20 1.5q-58 0 -87.5 -49.5t-29.5 -141.5v-84h252v-211h-252v-776h-262v776h-324v-776h-262v776h-123zM1389 250v1237h262v-1194q0 -45 15 -66.5t52 -21.5v-201q-40 -14 -112 -14q-217 0 -217 260z" />
<glyph horiz-adv-x="0" />
<glyph horiz-adv-x="682" />
<glyph unicode=" "  horiz-adv-x="374" />
<glyph unicode="&#x09;" horiz-adv-x="374" />
<glyph unicode="&#xa0;" horiz-adv-x="374" />
<glyph unicode="!" horiz-adv-x="493" d="M98 115q0 63 42 107t102 44t101.5 -44t41.5 -107q0 -62 -41.5 -106t-101.5 -44t-102 44t-42 106zM102 1606h293l-39 -1174h-223z" />
<glyph unicode="&#x22;" horiz-adv-x="602" d="M86 1589h176l-10 -401h-160zM342 1589h176l-10 -401h-160z" />
<glyph unicode="#" horiz-adv-x="1118" d="M57 250l33 147h162l47 273h-145l32 147h144l32 191h187l-33 -191h193l34 191h183l-31 -191h168l-33 -147h-166l-49 -273h152l-33 -147h-148l-26 -154h-185l25 154h-192l-25 -154h-186l24 154h-164zM436 397h195l47 273h-193z" />
<glyph unicode="$" horiz-adv-x="1087" d="M45 315l166 160q5 -9 14.5 -23t42.5 -51t70 -65t95.5 -51t119.5 -23q84 0 131 41t47 109q0 55 -27 93.5t-71.5 58t-101 37.5t-115 31t-115 40t-101 63.5t-71.5 103t-27 156.5q0 161 94.5 276t260.5 136v231h219v-235q76 -14 138.5 -46t98 -68.5t60 -70.5t33.5 -56l8 -23 l-193 -131l-8.5 17t-27 38.5t-47 48.5t-69.5 38t-94 17q-84 0 -135 -47.5t-51 -120.5q0 -58 35 -94.5t91 -55t123.5 -33.5t135.5 -40t124 -63.5t91 -114t35 -182.5q0 -69 -20 -132t-60.5 -117.5t-109 -92t-158.5 -49.5v-248h-219v250q-88 12 -162.5 46t-118.5 74t-75.5 78.5 t-43.5 64.5z" />
<glyph unicode="%" horiz-adv-x="1140" d="M47 1151q0 133 57.5 209t165.5 76q113 0 172.5 -76t59.5 -209q0 -132 -59.5 -208.5t-172.5 -76.5q-108 0 -165.5 76.5t-57.5 208.5zM195 1151q0 -154 75 -154q78 0 78 154q0 145 -78 145q-75 0 -75 -145zM299 0l371 1434h176l-369 -1434h-178zM639 281q0 132 57.5 208 t167.5 76q112 0 171 -76t59 -208q0 -133 -59 -209t-171 -76q-110 0 -167.5 76t-57.5 209zM786 281q0 -154 78 -154q76 0 76 154q0 145 -76 145q-78 0 -78 -145z" />
<glyph unicode="&#x26;" horiz-adv-x="1208" d="M86 469q0 80 17.5 148.5t41.5 110t54 73.5t48.5 45t31.5 18q-66 104 -66 258q0 74 24 141t69 121.5t119 86.5t167 32q95 0 170 -32t121 -86t70 -121t24 -142q0 -50 -7.5 -96t-15.5 -67l-8 -21h-235q18 57 18 137q0 79 -29.5 129.5t-91.5 50.5q-57 0 -91 -44.5t-34 -131.5 q0 -54 27 -109.5t73.5 -112.5t98 -117.5t112 -149.5t103.5 -184q37 84 37 276h221q0 -185 -47 -322t-115 -215q31 -129 31 -331h-233q0 117 -13 196q-10 -5 -27.5 -13t-71 -21t-106.5 -13q-218 0 -352.5 140t-134.5 366zM352 504q0 -130 70.5 -208.5t185.5 -78.5 q26 0 48.5 7.5t31.5 14.5l10 7q-28 74 -70.5 150t-67 112t-80 108.5t-58.5 77.5q-3 -1 -9 -7t-17 -21.5t-20.5 -36t-16.5 -54t-7 -71.5z" />
<glyph unicode="'" horiz-adv-x="346" d="M86 1589h176l-10 -401h-160z" />
<glyph unicode="(" horiz-adv-x="581" d="M68 494q0 132 14.5 257.5t37.5 222t50.5 182t55 144.5t50.5 102.5t38 63.5l14 21l223 -101q-9 -13 -24 -37t-54 -108.5t-68.5 -180t-54 -249t-24.5 -317.5t23 -316t56 -252t66.5 -177t56.5 -113l23 -35l-223 -101q-5 7 -14.5 21t-36.5 63t-51.5 104t-54.5 144t-51.5 183 t-36.5 220.5t-15 258.5z" />
<glyph unicode=")" horiz-adv-x="579" d="M29 -399q9 13 24 37t54 109t68.5 180.5t54 249t24.5 317.5t-23 316t-56 252t-66.5 177t-56.5 112l-23 35l223 101q11 -14 28.5 -41.5t62.5 -122t79.5 -201t63 -277t28.5 -351.5t-27 -349.5t-65.5 -280.5t-77 -198t-65.5 -126l-27 -40z" />
<glyph unicode="*" horiz-adv-x="772" d="M63 1229l13 135l233 -64l-100 248l117 56l73 -269l138 234l102 -80l-166 -213l238 -25l-17 -131l-235 58l102 -248l-117 -53l-75 260l-131 -219l-105 77l168 211z" />
<glyph unicode="+" horiz-adv-x="837" d="M68 479v191h251v295h189v-295h262v-191h-262v-327h-189v327h-251z" />
<glyph unicode="," horiz-adv-x="475" d="M80 145q0 66 43 113t106 47q68 0 116 -48.5t48 -135.5q0 -69 -12 -129t-31.5 -101.5t-43 -75.5t-47.5 -54.5t-43.5 -34.5t-31.5 -20l-12 -5l-70 115q5 3 13.5 8.5t30 23t38.5 36.5t30.5 47.5t14.5 56.5q-63 0 -106 45.5t-43 111.5z" />
<glyph unicode="-" horiz-adv-x="710" d="M100 461v192h510v-192h-510z" />
<glyph unicode="." horiz-adv-x="460" d="M80 145q0 66 43 113t106 47t107.5 -47t44.5 -113t-44.5 -111.5t-107.5 -45.5t-106 45.5t-43 111.5z" />
<glyph unicode="/" horiz-adv-x="823" d="M35 -467l497 1913h254l-493 -1913h-258z" />
<glyph unicode="0" horiz-adv-x="1159" d="M78 715q0 222 52.5 383.5t165 254.5t275.5 93q127 0 225 -52.5t160 -149.5t93.5 -230.5t31.5 -298.5q0 -338 -128.5 -532.5t-381.5 -194.5q-124 0 -218.5 52t-154.5 148.5t-90 229t-30 297.5zM344 715q0 -488 227 -488q123 0 181.5 122t58.5 366q0 246 -58.5 368.5 t-181.5 122.5q-227 0 -227 -491z" />
<glyph unicode="1" horiz-adv-x="870" d="M43 1059q108 0 204 57t153 142.5t65 175.5h276v-1434h-276v1022q-34 -80 -150 -153.5t-260 -73.5z" />
<glyph unicode="2" horiz-adv-x="1052" d="M76 0v137q0 79 21 146.5t57 117t82.5 92.5t97.5 77.5t102 67.5t97.5 67t82.5 70.5t57 84.5t21 103q0 109 -42.5 173t-123.5 64q-47 0 -84.5 -26t-58.5 -65t-32 -78.5t-11 -72.5l-262 66q0 46 14 99t47.5 111t82 104.5t126 77t170.5 30.5q204 0 327.5 -132t123.5 -351 q0 -90 -29.5 -169t-76.5 -137t-104 -108t-114.5 -90t-105 -74.5t-78 -70t-31.5 -68.5v-17h535v-229h-891z" />
<glyph unicode="3" horiz-adv-x="1093" d="M51 281l193 131q3 -8 8.5 -20.5t28.5 -45t50.5 -57.5t76 -45.5t104.5 -20.5q99 0 153 50t54 147q0 49 -17 87.5t-43.5 60.5t-56.5 33t-59 11h-156v205h156q52 0 96.5 49t44.5 133q0 85 -48.5 143t-131.5 58q-71 0 -115.5 -58t-44.5 -116l-266 92q1 7 4 18.5t17.5 46 t34 65.5t56 68.5t82 65t114 46t149.5 18.5q112 0 200.5 -36t141 -96t79.5 -132.5t27 -151.5q0 -63 -18.5 -116t-44 -83.5t-56 -53t-50 -30.5t-30.5 -10q15 -5 21 -7.5t35 -17t47.5 -29t46 -43.5t44.5 -62t29.5 -82t12.5 -105q0 -189 -133.5 -296t-360.5 -107 q-87 0 -160.5 16t-121 42t-84.5 57t-57 62.5t-32.5 57.5t-16.5 42z" />
<glyph unicode="4" horiz-adv-x="1050" d="M47 289v229l399 916h289l-389 -916h244v307h241v-307h175v-229h-175v-289h-274v289h-510z" />
<glyph unicode="5" horiz-adv-x="1091" d="M66 272l221 150q4 -8 11 -20.5t31.5 -45t51.5 -57.5t70.5 -45.5t89.5 -20.5q110 0 168.5 62.5t58.5 183.5q0 102 -58 172t-153 70q-32 0 -61 -10t-48.5 -24t-34 -28t-21.5 -24l-7 -10h-264v809h831v-230h-567v-297q3 2 8.5 6.5t26 14.5t43.5 18t60.5 14.5t78.5 6.5 q189 0 310.5 -139.5t121.5 -348.5q0 -99 -28.5 -184.5t-85.5 -155.5t-154.5 -110.5t-224.5 -40.5q-70 0 -134 15.5t-110 40.5t-86 55.5t-66 61t-44.5 55.5t-26.5 40z" />
<glyph unicode="6" horiz-adv-x="1112" d="M78 696q0 366 129.5 558t386.5 192q248 0 395 -201l-207 -176q-71 121 -188 121q-220 0 -246 -399q5 5 13.5 14t37.5 31t59 39t74.5 31t88.5 14q189 0 309.5 -126t120.5 -331q0 -102 -27.5 -187t-82 -150t-144.5 -101.5t-207 -36.5q-256 0 -384 180.5t-128 527.5z M354 545q17 -141 81.5 -226.5t152.5 -85.5q92 0 145 62t53 168q0 100 -51.5 155.5t-148.5 55.5q-36 0 -72 -12t-63.5 -31.5t-47 -36.5t-34.5 -33z" />
<glyph unicode="7" horiz-adv-x="956" d="M41 1204v230h885v-123q0 -91 -24.5 -179.5t-64 -164.5t-86.5 -154.5t-94.5 -165t-87 -179.5t-64 -214t-24.5 -254h-274q0 183 41 352.5t99.5 290t116.5 222.5t99 189t41 150h-563z" />
<glyph unicode="8" horiz-adv-x="1122" d="M72 393q0 72 21.5 134.5t46.5 97.5t62.5 66t49 37.5t27.5 14.5q-7 2 -20 10t-37 32t-43 56.5t-33.5 90t-14.5 127.5q0 172 116 279.5t312 107.5q111 0 197.5 -33t138 -88.5t78 -122t26.5 -139.5q0 -67 -17.5 -123.5t-43 -90t-51 -57.5t-43.5 -33l-17 -9q116 -53 169 -152 t53 -227q0 -179 -128.5 -281t-361.5 -102q-142 0 -249.5 42t-172.5 135t-65 228zM348 438q0 -104 57 -160.5t154 -56.5t150 55.5t53 155.5q0 68 -34.5 116.5t-92.5 67.5l-158 46q-5 -2 -14 -5.5t-31 -20.5t-39 -39.5t-31 -64.5t-14 -94zM399 1028q0 -77 31 -119t66 -55 l120 -37q4 1 11 3.5t24.5 16t30.5 33.5t24 59t11 89q0 83 -43.5 143t-114.5 60t-115.5 -57t-44.5 -136z" />
<glyph unicode="9" horiz-adv-x="1116" d="M61 971q0 102 27.5 187t83 150t146 101.5t208.5 36.5q253 0 382.5 -181.5t129.5 -527.5q0 -366 -130 -557.5t-388 -191.5q-247 0 -393 200l170 177q21 -44 79.5 -82.5t121.5 -38.5q239 0 272 399l-14 -14t-38 -31t-59.5 -39t-74.5 -31t-86 -14q-190 0 -313.5 126.5 t-123.5 330.5zM328 971q0 -100 51.5 -155.5t148.5 -55.5q36 0 72 12t63.5 31.5t47 36.5t34.5 33l15 16q-17 141 -81.5 226t-152.5 85q-92 0 -145 -61.5t-53 -167.5z" />
<glyph unicode=":" horiz-adv-x="538" d="M119 145q0 66 43 113t106 47t107.5 -47t44.5 -113t-44.5 -111.5t-107.5 -45.5t-106 45.5t-43 111.5zM119 1001q0 66 43 113t106 47t107.5 -47t44.5 -113t-44.5 -111.5t-107.5 -45.5t-106 45.5t-43 111.5z" />
<glyph unicode=";" horiz-adv-x="550" d="M119 1001q0 66 43 113t106 47t107.5 -47t44.5 -113t-44.5 -111.5t-107.5 -45.5t-106 45.5t-43 111.5zM123 145q0 66 43 113t106 47q68 0 116 -48.5t48 -135.5q0 -69 -12 -129t-31.5 -101.5t-43 -75.5t-47.5 -54.5t-43.5 -34.5t-31.5 -20l-12 -5l-70 115q5 3 13.5 8.5 t30 23t38.5 36.5t30.5 47.5t14.5 56.5q-63 0 -106 45.5t-43 111.5z" />
<glyph unicode="&#x3c;" horiz-adv-x="770" d="M55 453v209l623 403v-229l-395 -279l395 -274v-232z" />
<glyph unicode="=" horiz-adv-x="917" d="M104 231v193h709v-193h-709zM104 657v193h709v-193h-709z" />
<glyph unicode="&#x3e;" horiz-adv-x="770" d="M90 51v232l395 274l-395 279v229l625 -403v-209z" />
<glyph unicode="?" horiz-adv-x="905" d="M47 1151q0 194 114.5 313t291.5 119q102 0 181 -35.5t125.5 -96.5t69.5 -136.5t23 -161.5q0 -77 -17.5 -141t-46 -108.5t-62.5 -84.5t-68 -79t-62.5 -81.5t-46 -102.5t-17.5 -132h-243q0 97 16 175t41.5 128t56 91t61.5 74t56.5 66t41.5 78t16 101q0 78 -37 130t-97 52 q-66 0 -104.5 -56.5t-38.5 -146.5zM258 113q0 63 41.5 107t101.5 44q59 0 100.5 -44t41.5 -107q0 -61 -42.5 -105.5t-99.5 -44.5q-60 0 -101.5 44t-41.5 106z" />
<glyph unicode="@" horiz-adv-x="1513" d="M72 367q0 201 60 377.5t164.5 303.5t254 200t321.5 73q129 0 240 -48.5t188 -132.5t120.5 -199.5t43.5 -246.5q0 -156 -62 -297t-169 -227t-229 -86q-72 0 -109 34t-37 91q0 8 1 18.5t1 12.5q-4 -8 -13.5 -22.5t-31.5 -39t-48 -44.5t-64.5 -35t-79.5 -15t-80.5 17 t-75.5 51t-58 95t-22 140q0 152 60.5 280t158 199.5t207.5 71.5q24 0 46 -5.5t36 -12t28.5 -18t20.5 -18.5t15 -18t10 -12l16 80h168q-137 -629 -139 -647q-5 -28 5 -45t32 -17q32 0 72 34.5t76 93t60.5 148.5t24.5 187q0 206 -106 331.5t-314 125.5q-172 0 -310.5 -103 t-215 -279t-76.5 -388q0 -129 37 -231.5t99 -164.5t137.5 -94t156.5 -32q60 0 118.5 11.5t100 26t88 39.5t69.5 40t57.5 40t39.5 29l92 -139q-3 -2 -25.5 -19.5t-33 -26t-38.5 -28t-47.5 -30.5t-52.5 -29t-61 -29t-66.5 -24t-75 -20.5t-80.5 -12.5t-89 -5 q-125 0 -236.5 46.5t-196 132.5t-134 218.5t-49.5 293.5zM584 434q0 -76 26.5 -118t75.5 -42q33 0 64.5 18.5t55 46.5t38.5 52.5t24 46.5l56 273q-3 6 -11 15.5t-40 25.5t-74 16q-84 0 -149.5 -100.5t-65.5 -233.5z" />
<glyph unicode="A" horiz-adv-x="1193" d="M6 0l449 1434h284l447 -1434h-289l-96 358h-408l-96 -358h-291zM465 573h266l-135 521z" />
<glyph unicode="B" horiz-adv-x="1140" d="M123 0v1434h483q400 0 400 -379q0 -72 -14 -128t-34.5 -87t-48 -50.5t-49.5 -25.5t-43 -6v-4q27 0 60 -10.5t71.5 -37t69.5 -65t51.5 -101.5t20.5 -139q0 -87 -22.5 -156t-61 -114.5t-93.5 -75.5t-116.5 -42.5t-132.5 -12.5h-541zM399 229h197q91 0 136.5 45t45.5 158 q0 105 -52 155t-140 50h-187v-408zM399 836h160q160 0 160 186q0 88 -46.5 135t-140.5 47h-133v-368z" />
<glyph unicode="C" horiz-adv-x="1153" d="M66 715q0 356 145 543.5t407 187.5q91 0 167 -24t125 -61.5t86.5 -88t57 -97.5t32 -97t15.5 -80t3 -52l-258 -43q0 6 -0.5 16.5t-5 41.5t-12.5 58.5t-24.5 61.5t-39.5 58.5t-59.5 41.5t-81.5 17q-125 0 -198 -120.5t-73 -362.5q0 -123 26 -217.5t70.5 -150t99 -83.5 t116.5 -28q48 0 94 20t78.5 48.5t57.5 57t38 48.5l12 20l160 -174q-5 -11 -16 -29t-51.5 -64t-88 -81.5t-128 -64.5t-169.5 -29q-269 0 -427 187t-158 540z" />
<glyph unicode="D" horiz-adv-x="1175" d="M123 0v1434h371q100 0 188 -25t167.5 -81.5t136.5 -141t90.5 -211t33.5 -283.5q0 -149 -31 -267.5t-83.5 -197t-125.5 -130.5t-153.5 -74.5t-171.5 -22.5h-422zM399 229h144q132 0 212.5 121.5t80.5 345.5q0 248 -81.5 378t-262.5 130h-93v-975z" />
<glyph unicode="E" d="M123 0v1434h788v-230h-512v-381h392v-225h-392v-369h512v-229h-788z" />
<glyph unicode="F" horiz-adv-x="940" d="M123 0v1434h788v-230h-512v-395h392v-225h-392v-584h-276z" />
<glyph unicode="G" horiz-adv-x="1167" d="M68 715q0 356 145 543.5t408 187.5q85 0 156.5 -24t119 -61t84.5 -86t57.5 -96t34 -94.5t17.5 -77t4 -46.5l-258 -41q0 6 -0.5 16t-5 39t-12 55t-23.5 58t-37.5 55t-56.5 39t-78 16q-124 0 -196.5 -120.5t-72.5 -362.5t76.5 -360.5t200.5 -118.5q56 0 97.5 21.5t64.5 60 t34 84.5t11 102v31h-260v210h520v-239q0 -78 -16.5 -151.5t-53 -140.5t-90.5 -117t-134.5 -79.5t-178.5 -29.5q-262 0 -409.5 185.5t-147.5 541.5z" />
<glyph unicode="H" horiz-adv-x="1226" d="M123 0v1434h276v-633h428v633h277v-1434h-277v569h-428v-569h-276z" />
<glyph unicode="I" horiz-adv-x="520" d="M123 0v1434h276v-1434h-276z" />
<glyph unicode="J" horiz-adv-x="854" d="M-12 137l168 197q4 -7 20 -25.5t54 -41.5t77 -23q76 0 117 59.5t41 173.5v957h278v-942q0 -122 -34.5 -219t-95 -158.5t-138.5 -94t-168 -32.5q-60 0 -114.5 15.5t-90 37.5t-63 43.5t-39.5 37.5z" />
<glyph unicode="K" horiz-adv-x="1189" d="M123 0v1434h276v-625h97q282 0 282 625h275q0 -298 -69 -476t-181 -249q47 -35 81 -99.5t52.5 -129t38 -125t52.5 -98.5t81 -38h55v-215q-49 -14 -141 -14q-70 0 -124 25.5t-86.5 67t-59.5 94.5t-43.5 109t-36.5 109t-40.5 94.5t-54.5 67t-79 25.5h-99v-582h-276z" />
<glyph unicode="L" horiz-adv-x="933" d="M123 0v1434h276v-1205h516v-229h-792z" />
<glyph unicode="M" horiz-adv-x="1495" d="M123 0v1434h278l349 -891l356 891h268v-1434h-278l6 889l-266 -709h-189l-248 682v-862h-276z" />
<glyph unicode="N" horiz-adv-x="1214" d="M123 0v1434h283l409 -936v936h279v-1434h-285l-410 901v-901h-276z" />
<glyph unicode="O" horiz-adv-x="1245" d="M66 715q0 181 43 322.5t119 229.5t176.5 133.5t218.5 45.5t218.5 -45.5t176.5 -133.5t119 -229.5t43 -322.5q0 -145 -28.5 -265.5t-78.5 -205t-120.5 -143t-153 -86t-176.5 -27.5t-176.5 27.5t-153 86t-120.5 143t-78.5 205t-28.5 265.5zM354 715q0 -250 74.5 -367 t194.5 -117q122 0 195 116.5t73 367.5q0 252 -73.5 367.5t-194.5 115.5t-195 -115.5t-74 -367.5z" />
<glyph unicode="P" horiz-adv-x="1089" d="M123 0v1434h434q234 0 365 -124t131 -366q0 -96 -24 -175t-65.5 -134t-99.5 -93t-125 -55.5t-143 -17.5h-197v-469h-276zM399 694h146q111 0 169 63.5t58 186.5q0 120 -59.5 190t-175.5 70h-138v-510z" />
<glyph unicode="Q" horiz-adv-x="1245" d="M66 721q0 181 43 322.5t119 229.5t176.5 133.5t218.5 45.5t218.5 -45.5t176.5 -133.5t119 -229.5t43 -322.5q0 -164 -34.5 -295.5t-97 -219t-144.5 -139t-181 -67.5q17 -116 94.5 -180t204.5 -64v-229q-108 0 -197.5 28.5t-149.5 75t-103 110t-64 130t-27 137.5 q-189 42 -302 222.5t-113 490.5zM354 721q0 -250 74.5 -367.5t194.5 -117.5q58 0 105.5 26.5t84.5 82.5t57.5 151.5t20.5 224.5q0 252 -73.5 366.5t-194.5 114.5t-195 -114.5t-74 -366.5z" />
<glyph unicode="R" horiz-adv-x="1181" d="M123 0v1434h442q240 0 358.5 -107t118.5 -344q0 -75 -19 -139.5t-50.5 -108t-64 -72t-66.5 -45.5q36 -38 67 -112t50 -134t56.5 -106.5t90.5 -46.5h53v-215q-47 -14 -139 -14q-79 0 -138 30t-93 78.5t-59.5 107t-45.5 116.5t-42.5 106.5t-59.5 78.5t-88 30h-95v-537h-276 zM399 750h133q106 0 172 59t66 166q0 108 -57.5 168.5t-159.5 60.5h-154v-454z" />
<glyph unicode="S" horiz-adv-x="1073" d="M39 285l164 159q5 -9 14 -24t40 -53.5t66 -68t90 -53.5t113 -24q92 0 144.5 45t52.5 125q0 49 -18 85.5t-48.5 58t-71.5 39.5t-87 29.5t-94.5 28t-94.5 34.5t-87 50t-71.5 72.5t-48.5 104.5t-18 145q0 83 30.5 156.5t86.5 129.5t142.5 89t191.5 33q78 0 146 -15.5 t114 -39.5t84 -53.5t60.5 -59.5t38 -54t20.5 -40l6 -15l-193 -131q-3 7 -9 18.5t-28 40.5t-48.5 51.5t-72.5 41t-98 18.5q-77 0 -124.5 -47.5t-47.5 -120.5q0 -49 21.5 -84.5t58.5 -57t84.5 -38.5t100 -33t104.5 -35.5t99.5 -51t84.5 -74.5t58.5 -111t21.5 -156 q0 -63 -16 -121.5t-52.5 -111.5t-89.5 -92.5t-132.5 -62.5t-176.5 -23q-80 0 -151.5 16.5t-121.5 42.5t-92 57.5t-68 63.5t-44 58t-26 42z" />
<glyph unicode="T" horiz-adv-x="1126" d="M20 1204v230h1086v-230h-395v-1204h-277v1204h-414z" />
<glyph unicode="U" horiz-adv-x="1181" d="M111 592v842h278v-863q0 -161 47 -247t158 -86q75 0 120.5 42.5t63 113.5t17.5 177v863h278v-842q0 -133 -25 -237.5t-68.5 -172.5t-105 -112.5t-130.5 -63t-150 -18.5q-103 0 -187 31t-153 99q-68 68 -106 188q-37 117 -37 278v8z" />
<glyph unicode="V" horiz-adv-x="1191" d="M4 1434h315l279 -1112l293 1112h301l-459 -1434h-278z" />
<glyph unicode="W" horiz-adv-x="1804" d="M18 1434h326l199 -1112l250 1112h231l236 -1112l213 1112h313l-350 -1434h-326l-205 956l-211 -956h-325z" />
<glyph unicode="X" horiz-adv-x="1171" d="M6 0l393 713l-393 721h322l258 -519l260 519h321l-401 -713l401 -721h-307l-274 532l-275 -532h-305z" />
<glyph unicode="Y" horiz-adv-x="1187" d="M2 1434h324l268 -594l268 594h324l-449 -834v-600h-286v600z" />
<glyph unicode="Z" horiz-adv-x="1083" d="M70 0v229l606 975h-606v230h944v-230l-596 -975h596v-229h-944z" />
<glyph unicode="[" horiz-adv-x="704" d="M117 -500v1987h530v-232h-268v-1523h268v-232h-530z" />
<glyph unicode="\" horiz-adv-x="823" d="M35 1446h256l495 -1913h-256z" />
<glyph unicode="]" horiz-adv-x="704" d="M55 -268h271v1523h-271v232h531v-1987h-531v232z" />
<glyph unicode="^" horiz-adv-x="761" d="M78 1042l162 455h282l160 -455h-225l-76 261l-78 -261h-225z" />
<glyph unicode="_" horiz-adv-x="765" d="M23 0h720v-190h-720v190z" />
<glyph unicode="`" horiz-adv-x="542" d="M43 1536h313l142 -395h-226z" />
<glyph unicode="a" horiz-adv-x="927" d="M49 252q0 135 80.5 204.5t255.5 69.5h170v119q0 152 -109 152q-50 0 -77 -32.5t-27 -90.5q0 -21 2.5 -38t5.5 -24l2 -6h-233q-19 33 -19 111q0 128 92.5 205t262.5 77q362 0 362 -364v-340q0 -45 15.5 -67.5t52.5 -22.5v-199q-39 -16 -113 -16q-46 0 -81.5 13.5t-54 32 t-30.5 41.5t-15 38t-3 26v2q-76 -155 -262 -155q-128 0 -202.5 73t-74.5 191zM313 287q0 -44 28 -70.5t69 -26.5q33 0 60 16t42 39t25.5 46t14.5 39l3 16v39h-127q-115 0 -115 -98z" />
<glyph unicode="b" d="M98 0v1487h262v-610l2 5q3 4 8 11t12 16.5t17 19.5t22.5 20t29 19t35.5 16t42.5 11t49.5 4q64 0 123 -30t108.5 -88.5t79 -157.5t29.5 -225q0 -133 -29.5 -234.5t-80.5 -160t-113 -87t-134 -28.5q-36 0 -69.5 9.5t-60 27t-44 32t-36.5 34t-23 22.5v-113h-230zM360 399 q0 -27 12.5 -65.5t48 -75.5t85.5 -37q69 0 110 69.5t41 203.5q0 138 -45.5 205t-107.5 67q-34 0 -61.5 -17.5t-42.5 -43t-24.5 -51t-12.5 -42.5l-3 -18v-195z" />
<glyph unicode="c" horiz-adv-x="890" d="M59 492q0 241 104 374t314 133q165 0 256.5 -93.5t91.5 -229.5q0 -33 -4 -62.5t-8 -43.5l-4 -13h-227q12 31 12 66q0 26 -5 48.5t-16.5 45.5t-36 36t-59.5 13q-80 0 -119 -65t-39 -205q0 -76 16.5 -132t45 -86t61 -43.5t70.5 -13.5t72 12t56 28.5t38.5 33.5t23.5 29l7 12 l135 -143q-4 -8 -12 -22t-39.5 -49.5t-70 -62.5t-105 -49t-142.5 -22q-189 0 -302.5 131t-113.5 373z" />
<glyph unicode="d" horiz-adv-x="1007" d="M59 492q0 132 31.5 233t84.5 159t117 86.5t136 28.5q41 0 75 -10.5t53.5 -23.5t34 -29.5t19 -25t6.5 -13.5v590h263v-1190q0 -48 15.5 -70t53.5 -22v-201q-40 -14 -114 -14q-47 0 -82.5 14t-54.5 33t-30.5 42.5t-14.5 39.5t-3 28v3q-15 -26 -21 -36.5t-30.5 -39.5 t-48 -44t-63.5 -28.5t-87 -13.5q-63 0 -122 30.5t-108.5 89.5t-79.5 158.5t-30 225.5zM319 494q0 -135 46 -204t108 -69q28 0 51.5 11.5t38.5 31.5t25.5 39t16.5 42.5t8 33t3 18.5v201q-1 15 -6.5 34t-17 43.5t-27.5 44t-40.5 33t-53.5 13.5q-68 0 -110 -69.5t-42 -202.5z " />
<glyph unicode="e" horiz-adv-x="899" d="M59 492q0 242 103 374.5t311 132.5q184 0 271 -122t87 -336v-82h-507v-10q11 -127 64 -184.5t124 -57.5q38 0 72.5 13t57 31.5t39.5 37.5t25 32l7 13l131 -141q-4 -8 -12 -22t-39.5 -49.5t-70 -62.5t-105 -49t-142.5 -22q-189 0 -302.5 131t-113.5 373zM328 608h254 q0 180 -123 180q-55 0 -90 -45t-41 -135z" />
<glyph unicode="f" horiz-adv-x="716" d="M45 776v211h123v96q0 192 86.5 303t265.5 111q39 0 76 -9t61.5 -22t43.5 -26t27 -22l9 -9l-82 -197q-4 6 -11.5 14t-35 22t-59.5 14q-119 0 -119 -191v-84h254v-211h-254v-776h-262v776h-123z" />
<glyph unicode="g" horiz-adv-x="931" d="M33 -193q0 154 114 222q2 2 3 2l-6 5q-7 4 -11.5 8t-13 12.5t-15 17t-14 21t-12.5 25.5t-8.5 30.5t-3.5 35.5q0 42 13.5 76.5t34.5 54t38 30t32 15.5q-11 8 -24 22.5t-34 44.5t-34.5 79.5t-13.5 107.5q0 177 112.5 280t280.5 103q22 0 56.5 -7t37.5 -7q12 0 30.5 3.5 t46.5 15t50.5 30.5t39 54t16.5 81l186 -24q0 -117 -59 -178t-140 -68q129 -90 129 -283q0 -118 -55 -206t-142.5 -131t-191.5 -43q-49 0 -137 30q-78 0 -78 -67q0 -68 84 -68h211q158 0 256 -76.5t98 -226.5q0 -68 -21.5 -124.5t-69 -105.5t-134.5 -76.5t-207 -27.5 q-222 0 -333 79.5t-111 233.5zM256 -176q0 -63 48.5 -94t156.5 -31q120 0 167.5 30.5t47.5 100.5q0 113 -123 113h-178q-53 0 -86 -30.5t-33 -88.5zM322 616q0 -79 40.5 -127.5t108.5 -48.5q69 0 112.5 49t43.5 127t-43 126.5t-111 48.5t-109.5 -48t-41.5 -127z" />
<glyph unicode="h" horiz-adv-x="978" d="M98 0v1487h262v-617q66 129 207 129q79 0 138 -30.5t94 -85t52 -123.5t17 -152v-315q0 -45 16 -66.5t54 -21.5v-201q-41 -14 -115 -14q-217 0 -217 260v340q0 79 -31 126.5t-86 47.5q-64 0 -96.5 -62t-32.5 -137v-565h-262z" />
<glyph unicode="i" horiz-adv-x="485" d="M66 1325q0 70 45.5 117t113.5 47t115 -47t47 -117t-47 -115t-115 -45t-113.5 45t-45.5 115zM94 250v737h262v-694q0 -45 15.5 -66.5t52.5 -21.5v-201q-39 -14 -113 -14q-217 0 -217 260z" />
<glyph unicode="j" horiz-adv-x="460" d="M-166 -442l80 194q25 -24 68 -24q116 0 116 204v1055h264v-1067q0 -200 -85.5 -313t-264.5 -113q-35 0 -66 6.5t-50.5 16t-34.5 19t-21 16.5zM68 1329q0 69 45.5 114.5t113.5 45.5t115 -46t47 -114q0 -69 -46.5 -113.5t-115.5 -44.5q-68 0 -113.5 44t-45.5 114z" />
<glyph unicode="k" horiz-adv-x="989" d="M98 0v1487h260v-848h66q91 0 147 92.5t56 255.5h243q0 -69 -11 -132.5t-34 -123.5t-65.5 -107t-100.5 -71q38 -26 66 -72.5t45 -92t36 -88t51 -69t79 -26.5h16v-195q-45 -20 -104 -20q-61 0 -107 24.5t-73.5 63t-48.5 85.5t-39.5 94t-40.5 85.5t-58 63t-84 24.5h-39v-430 h-260z" />
<glyph unicode="l" horiz-adv-x="487" d="M94 250v1237h262v-1194q0 -45 16 -66.5t54 -21.5v-201q-41 -14 -117 -14q-215 0 -215 260z" />
<glyph unicode="m" horiz-adv-x="1511" d="M61 782v201q39 14 115 14q47 0 83 -15.5t53.5 -36t28 -46t13 -40.5t2.5 -25v-5q51 170 244 170q175 0 254 -172q52 172 244 172q78 0 137 -30.5t94.5 -85t52.5 -123.5t17 -152v-315q0 -45 15.5 -66.5t53.5 -21.5v-201q-40 -14 -114 -14q-217 0 -217 260v334 q0 83 -31 131.5t-86 48.5q-50 0 -79.5 -45t-39.5 -109v-317q0 -45 16 -66.5t54 -21.5v-201q-41 -14 -117 -14q-217 0 -217 260v334q0 84 -29.5 132t-87.5 48q-64 0 -96.5 -62t-32.5 -137v-565h-262v694q0 44 -15 66t-53 22z" />
<glyph unicode="n" horiz-adv-x="1011" d="M61 782v201q39 14 115 14q47 0 83 -15.5t53.5 -36t28 -46t13 -40.5t2.5 -25v-5q51 170 242 170q78 0 137 -30.5t94.5 -85t52.5 -123.5t17 -152v-315q0 -45 16 -66.5t54 -21.5v-201q-39 -14 -115 -14q-217 0 -217 260v334q0 85 -30 132.5t-87 47.5q-64 0 -96.5 -62 t-32.5 -137v-565h-262v694q0 44 -15 66t-53 22z" />
<glyph unicode="o" horiz-adv-x="921" d="M59 496q0 230 106 366.5t296 136.5t295.5 -136.5t105.5 -366.5q0 -232 -105 -370t-296 -138q-192 0 -297 137.5t-105 370.5zM319 494q0 -273 142 -273q141 0 141 273q0 272 -141 272q-142 0 -142 -272z" />
<glyph unicode="p" horiz-adv-x="1007" d="M61 782v201q39 14 115 14q45 0 79.5 -13t53.5 -31.5t31.5 -42t16 -41t3.5 -31.5v-2q77 163 248 163q64 0 123 -30t108.5 -88.5t79 -157.5t29.5 -225q0 -133 -29.5 -234.5t-80.5 -160t-113 -87t-133 -28.5q-125 0 -201 102v-590h-262v1194q0 44 -15 66t-53 22zM391 391 q2 -20 10 -45.5t24 -55t45.5 -49.5t66.5 -20q69 0 111 70t42 203q0 137 -46.5 204.5t-108.5 67.5q-34 0 -61.5 -17.5t-42.5 -43t-24.5 -51t-12.5 -42.5l-3 -18v-203z" />
<glyph unicode="q" d="M59 492q0 133 29.5 233.5t80.5 158.5t113 86.5t134 28.5q44 0 86.5 -16.5t65 -33.5t51 -43t32.5 -29v110h228v-1487h-263v609l-4 -7q-5 -7 -13 -17.5t-19.5 -23.5t-29 -26t-39 -23.5t-50.5 -17t-62 -6.5q-63 0 -122 30.5t-108.5 89.5t-79.5 158.5t-30 225.5zM319 494 q0 -134 46.5 -203.5t107.5 -69.5q24 0 45 10t35 22.5t26 34t17.5 34.5t11 35.5t6 25.5t2.5 14v201q-1 15 -6.5 34t-17 43.5t-27.5 44t-40.5 33t-53.5 13.5q-69 0 -110.5 -69.5t-41.5 -202.5z" />
<glyph unicode="r" horiz-adv-x="745" d="M61 782v201q33 14 109 14q49 0 85.5 -17t54.5 -38.5t29 -49.5t13 -42.5t2 -24.5v-4q49 178 244 178q42 0 77.5 -9.5t50.5 -19.5l15 -9l-108 -236q-35 31 -113 31q-44 0 -74 -32.5t-41.5 -72.5t-13.5 -86v-565h-262v694q0 44 -15 66t-53 22z" />
<glyph unicode="s" horiz-adv-x="876" d="M35 195l145 149q4 -6 11 -16t30.5 -36t50 -45.5t68 -35.5t84.5 -16q58 0 82 22.5t24 65.5q0 32 -25 53t-64.5 33t-87.5 23t-96 30.5t-87.5 48.5t-64.5 84t-25 131q0 63 20 117t62 99t116 71t173 26q98 0 169.5 -23.5t111 -64.5t57.5 -89t18 -105q0 -24 -4 -47.5t-8 -35.5 l-4 -11h-228q6 28 6 71q0 103 -114 103q-54 0 -82.5 -27.5t-28.5 -77.5q0 -41 26 -66.5t68 -38.5t93 -23t101.5 -26t92.5 -42t68 -77t26 -124q0 -144 -95.5 -225.5t-285.5 -81.5q-66 0 -124 11.5t-98 29.5t-72.5 40t-52 44.5t-33 40.5t-18.5 30z" />
<glyph unicode="t" horiz-adv-x="778" d="M41 776v211h127v309h262v-309h279v-211h-279v-344q0 -209 127 -209q34 0 64.5 14.5t44.5 28.5l14 15l76 -193l-11 -11t-30 -24t-48 -30t-63 -24t-76 -11q-191 0 -275.5 108.5t-84.5 323.5v356h-127z" />
<glyph unicode="u" horiz-adv-x="993" d="M94 344v643h262v-584q0 -180 109 -180q36 0 63.5 22t42.5 55.5t22 68t7 65.5v553h262v-694q0 -44 16 -66t54 -22v-201q-41 -14 -115 -14q-49 0 -86 15.5t-55 36.5t-29 47t-13.5 40.5t-2.5 24.5v2q-28 -71 -93 -119.5t-178 -48.5q-143 0 -204.5 92.5t-61.5 263.5z" />
<glyph unicode="v" horiz-adv-x="958" d="M18 987h281l180 -678l183 678h276l-326 -987h-266z" />
<glyph unicode="w" horiz-adv-x="1443" d="M25 987h278l146 -680l169 676h246l133 -676l146 680h274l-287 -987h-266l-131 578l-153 -578h-267z" />
<glyph unicode="x" horiz-adv-x="952" d="M20 0l304 502l-304 485h283l172 -319l180 319h279l-303 -487l303 -500h-277l-182 332l-180 -332h-275z" />
<glyph unicode="y" horiz-adv-x="956" d="M14 987h281l192 -668l170 668h277l-385 -1194q-46 -136 -136 -217.5t-227 -81.5q-44 0 -85 10t-59 20l-19 9l34 209q50 -21 111 -21q62 0 98 41t60 113l28 125z" />
<glyph unicode="z" horiz-adv-x="856" d="M70 0v211l409 565h-409v211h718v-211l-397 -565h397v-211h-718z" />
<glyph unicode="{" horiz-adv-x="659" d="M47 385v217h19q44 0 78 34.5t34 102.5v330q0 96 24 170t63 120t95 75.5t114 41t126 11.5v-234q-86 0 -132 -56.5t-46 -172.5v-346q0 -88 -27.5 -130.5t-56.5 -51.5q12 -4 30 -23t36 -64t18 -100v-346q0 -116 46 -172.5t132 -56.5v-234q-68 0 -126 11.5t-114 41t-95 75.5 t-63 120t-24 170v330q0 68 -34 102.5t-78 34.5h-19z" />
<glyph unicode="|" horiz-adv-x="450" d="M117 -520v2027h219v-2027h-219z" />
<glyph unicode="}" horiz-adv-x="659" d="M59 -266q86 0 132.5 56.5t46.5 172.5v346q0 34 5.5 62.5t12.5 46t18.5 33.5t18.5 22t17.5 14t11.5 9q-10 3 -21.5 12t-27 28t-25.5 56t-10 86v346q0 116 -46.5 172.5t-132.5 56.5v234q67 0 125.5 -11.5t114.5 -41t96 -75.5t64 -120t24 -170v-330q0 -68 33.5 -102.5 t77.5 -34.5h18v-217h-18q-44 0 -77.5 -34.5t-33.5 -102.5v-330q0 -96 -24 -170t-64 -120t-96 -75.5t-114.5 -41t-125.5 -11.5v234z" />
<glyph unicode="~" horiz-adv-x="870" d="M94 504q0 83 46.5 137.5t133.5 54.5q52 0 109 -20.5t104.5 -41t77.5 -20.5q37 0 37 48q0 20 -7 42.5t-13 35.5l-7 12h175q24 -55 24 -121q0 -83 -45.5 -140t-128.5 -57q-61 0 -119 21t-101 42t-67 21q-20 0 -32.5 -15t-12.5 -40q0 -22 7 -42t13 -29l7 -9h-172 q-29 43 -29 121z" />
<glyph unicode="&#xa1;" horiz-adv-x="485" d="M94 -549l39 1184h223l31 -1184h-293zM106 952q0 63 42 107.5t102 44.5q59 0 101 -44.5t42 -107.5t-42 -107t-101 -44q-60 0 -102 44t-42 107z" />
<glyph unicode="&#xa2;" horiz-adv-x="915" d="M78 508q0 217 80.5 347t244.5 157v178h158v-174q103 -16 173 -79t95 -136l-215 -125q-3 23 -17.5 55t-43.5 45v-555q34 4 64.5 19t50 33.5t34 36.5t20.5 30l7 12l133 -143q-3 -8 -9.5 -20.5t-32 -46.5t-56.5 -61.5t-85.5 -54t-117.5 -34.5v-195h-160v199 q-149 30 -236 163t-87 349zM336 512q0 -203 90 -264v526q-90 -38 -90 -262z" />
<glyph unicode="&#xa3;" horiz-adv-x="1210" d="M76 436v201h160q-30 60 -44 91t-30.5 99t-16.5 138q0 209 136 345t378 136q80 0 150.5 -18t120 -47t91 -64t66.5 -70t42.5 -64t24.5 -47l7 -18l-233 -106q-2 7 -7.5 19.5t-27 44.5t-49 56t-77 44t-108.5 20q-106 0 -164.5 -79.5t-58.5 -180.5q-1 -34 3.5 -66t17 -69 t19 -54t27 -61t23.5 -51h398v-199h-355v-26q0 -49 -13 -94t-23 -61.5t-15 -21.5h557v-233h-917v166q5 3 13.5 9.5t30 29t38 48t30 68.5t13.5 89v26h-207z" />
<glyph unicode="&#xa4;" horiz-adv-x="1062" d="M84 416l141 164q-45 88 -45 196q0 107 45 195l-135 159l131 136l131 -160q82 70 183 70q97 0 178 -68l133 158l131 -136l-133 -159q47 -92 47 -195q0 -112 -47 -198l127 -150l-131 -135l-127 149q-76 -67 -178 -67q-100 0 -183 67l-137 -161zM379 776q0 -82 45.5 -139 t110.5 -57t110 57t45 139t-45 138.5t-110 56.5t-110.5 -57t-45.5 -138z" />
<glyph unicode="&#xa5;" horiz-adv-x="1267" d="M41 1423h324l270 -583l268 583h324l-299 -555h184v-198h-307l-27 -70v-78h219v-196h-219v-326h-286v326h-222v196h222v78l-31 68h-305v198h186z" />
<glyph unicode="&#xa6;" horiz-adv-x="458" d="M119 399h219v-919h-219v919zM119 725v782h219v-782h-219z" />
<glyph unicode="&#xa7;" horiz-adv-x="1124" d="M70 -209l163 160q5 -9 14 -24t40.5 -53.5t66 -68t90 -53.5t113.5 -24q92 0 144.5 45t52.5 125q0 49 -18 85.5t-48.5 58t-71.5 39.5t-87 29.5t-94.5 28t-94.5 34.5t-87 50t-71.5 72.5t-48.5 104.5t-18 145q0 135 73 233q-73 96 -73 260q0 83 30 156.5t86 129.5t142.5 89 t191.5 33q78 0 146 -15.5t114 -39.5t84 -53.5t60.5 -59.5t38 -54t20.5 -40l6 -15l-192 -131q-3 7 -9 18.5t-28 40.5t-48.5 51.5t-72.5 41t-98 18.5q-77 0 -124.5 -47.5t-47.5 -120.5q0 -49 21.5 -84.5t58.5 -57t84.5 -38.5t100 -33t104.5 -35.5t99.5 -51t84.5 -74.5 t58.5 -111t21.5 -156q0 -134 -72 -237q72 -99 72 -256q0 -80 -27 -151.5t-80.5 -131t-146.5 -94.5t-213 -35q-80 0 -151.5 16.5t-121.5 42.5t-92 57.5t-68 63.5t-44 58t-25 42zM397 555q0 -42 15.5 -75.5t36 -54.5t62 -41.5t70.5 -30.5t86 -28t85 -28q18 37 18 86 q0 34 -8.5 62t-21 48.5t-36.5 39.5t-43 30.5t-54.5 24.5t-58 20t-64.5 19.5t-64 19.5q-23 -39 -23 -92z" />
<glyph unicode="&#xa8;" horiz-adv-x="704" d="M37 1307q0 56 38.5 96.5t92.5 40.5q52 0 90.5 -40.5t38.5 -96.5q0 -58 -38 -98t-91 -40q-54 0 -92.5 40t-38.5 98zM410 1307q0 56 38.5 96.5t92.5 40.5t91.5 -40.5t37.5 -96.5q0 -58 -37.5 -98t-91.5 -40t-92.5 40t-38.5 98z" />
<glyph unicode="&#xa9;" horiz-adv-x="1538" d="M66 743q0 169 55 320t149 258.5t224 170t274 62.5q145 0 275.5 -62.5t224.5 -170t149.5 -258.5t55.5 -320t-55.5 -320t-149.5 -258.5t-224.5 -170t-275.5 -62.5t-275 62.5t-223.5 170t-148.5 258.5t-55 320zM258 743q0 -173 67 -316t184.5 -224.5t258.5 -81.5t258.5 81.5 t184.5 224.5t67 316q0 174 -67 318.5t-184.5 227.5t-258.5 83t-258.5 -82.5t-184.5 -227t-67 -319.5zM422 731q0 241 97 369.5t255 128.5q61 0 110.5 -15.5t81.5 -39.5t56 -57t36 -62.5t19 -62.5t8.5 -51.5t1.5 -33.5l-178 -30v18t-6 39t-18 49.5t-40.5 39t-68.5 17.5 q-19 0 -38 -8t-38.5 -29.5t-34.5 -54t-24.5 -85.5t-9.5 -120q0 -144 45 -218t123 -74q34 0 65 9.5t51 22.5t35 26t22 23l7 9l92 -142q-3 -6 -10 -15t-32.5 -32.5t-56.5 -41.5t-85 -33t-115 -15q-158 0 -254 123.5t-96 345.5z" />
<glyph unicode="&#xaa;" horiz-adv-x="641" d="M74 1010q0 164 194 164h105v51q0 43 -15 61.5t-47 18.5q-63 0 -63 -52l4 -28h-141q-9 16 -9 57q0 70 54 113t155 43q109 0 159 -51.5t50 -151.5v-203q0 -19 9 -27t32 -8v-116q-23 -17 -78 -17q-24 0 -42.5 8t-27.5 18.5t-14.5 23t-6.5 19.5t-1 11v2q-41 -84 -158 -84 q-73 0 -116 41.5t-43 106.5zM215 1034q0 -25 17.5 -40t43.5 -15q47 0 71 26t26 50v28h-92q-66 0 -66 -49z" />
<glyph unicode="&#xab;" horiz-adv-x="1003" d="M82 434v215l291 285l129 -148l-221 -245l221 -244l-129 -150zM512 434v215l291 285l129 -148l-221 -245l221 -244l-129 -150z" />
<glyph unicode="&#xac;" horiz-adv-x="880" d="M96 489v191h676v-469h-197v278h-479z" />
<glyph unicode="&#xad;" horiz-adv-x="710" d="M100 461v192h510v-192h-510z" />
<glyph unicode="&#xae;" horiz-adv-x="1538" d="M66 743q0 169 55 320t149 258.5t224 170t274 62.5q145 0 275.5 -62.5t224.5 -170t149.5 -258.5t55.5 -320t-55.5 -320t-149.5 -258.5t-224.5 -170t-275.5 -62.5t-275 62.5t-223.5 170t-148.5 258.5t-55 320zM258 743q0 -173 67 -316t184.5 -224.5t258.5 -81.5t258.5 81.5 t184.5 224.5t67 316q0 174 -67 318.5t-184.5 227.5t-258.5 83t-258.5 -82.5t-184.5 -227t-67 -319.5zM467 299v915h283q147 0 219.5 -67.5t72.5 -214.5q0 -59 -15.5 -103.5t-40.5 -69t-42 -35t-35 -17.5q27 -25 48.5 -70.5t33 -82.5t34.5 -65t56 -28h31v-166q-27 -6 -84 -6 q-56 0 -96.5 25.5t-60.5 63.5t-38 82t-31.5 82t-40 63.5t-63.5 25.5h-39v-332h-192zM659 795h64q62 0 96.5 32.5t34.5 90.5q0 124 -121 124h-74v-247z" />
<glyph unicode="&#xaf;" horiz-adv-x="743" d="M76 1176v190h594v-190h-594z" />
<glyph unicode="&#xb0;" horiz-adv-x="604" d="M68 1202q0 111 68.5 191t164.5 80q97 0 167.5 -80.5t70.5 -190.5q0 -112 -70.5 -190t-167.5 -78t-165 78t-68 190zM205 1202q0 -53 28 -90t68 -37q42 0 71 37t29 90q0 54 -28.5 91.5t-71.5 37.5q-40 0 -68 -37.5t-28 -91.5z" />
<glyph unicode="&#xb1;" horiz-adv-x="905" d="M90 39v190h721v-190h-721zM102 672v190h252v295h189v-295h262v-190h-262v-328h-189v328h-252z" />
<glyph unicode="&#xb2;" horiz-adv-x="440" d="M39 1405q0 24 10 51.5t29.5 55t56 45.5t82.5 18q82 0 131 -51.5t49 -139.5q0 -44 -19 -82.5t-47 -63.5t-55.5 -45t-47.5 -36.5t-21 -28.5v-4h186v-114h-352v65q0 43 17.5 77.5t43.5 56t56.5 43t56.5 38t43.5 40.5t17.5 52q0 33 -15 51.5t-42 18.5q-32 0 -46.5 -25 t-14.5 -47z" />
<glyph unicode="&#xb3;" horiz-adv-x="450" d="M31 1120l82 70q1 -3 2.5 -8t9 -17t17.5 -21.5t29 -17.5t42 -8q29 0 47.5 16t18.5 46q0 29 -17 43t-43 14h-55v94h55q19 0 33 18t14 50q0 22 -14.5 37.5t-40.5 15.5q-30 0 -45.5 -17t-15.5 -34l-109 45q1 5 3.5 14t15 31t30.5 39t52.5 31t78.5 14q88 0 133 -47.5 t45 -114.5q0 -52 -24 -81t-45 -34q84 -37 84 -135q0 -73 -53 -115t-142 -42q-47 0 -83.5 11.5t-55.5 28.5t-31 34t-15 28z" />
<glyph unicode="&#xb4;" horiz-adv-x="542" d="M43 1141l143 395h312l-228 -395h-227z" />
<glyph unicode="&#xb6;" horiz-adv-x="1163" d="M53 961q0 214 101 343.5t290 129.5h588v-1434h-153v1307h-158v-1307h-152v494h-125q-190 0 -290.5 127t-100.5 340z" />
<glyph unicode="&#xb7;" horiz-adv-x="466" d="M82 727q0 67 43.5 113.5t107.5 46.5q63 0 107.5 -47t44.5 -113t-44.5 -112t-107.5 -46q-64 0 -107.5 46t-43.5 112z" />
<glyph unicode="&#xb8;" horiz-adv-x="507" d="M76 -301l57 100q5 -6 14.5 -15.5t39 -25.5t59.5 -16q63 0 63 55q0 29 -32 48.5t-107 19.5l55 147h125l-28 -71q41 0 77.5 -40.5t36.5 -109.5q0 -85 -54.5 -129.5t-131.5 -44.5q-50 0 -93.5 20.5t-62.5 40.5z" />
<glyph unicode="&#xb9;" horiz-adv-x="391" d="M20 1419q67 0 118.5 48t56.5 102h131v-559h-131v364q-17 -35 -56 -62.5t-98 -27.5z" />
<glyph unicode="&#xba;" horiz-adv-x="600" d="M70 1159q0 126 61 201.5t168 75.5q109 0 170 -75.5t61 -201.5q0 -130 -60 -206t-171 -76q-109 0 -169 76t-60 206zM217 1157q0 -67 21 -105t61 -38q82 0 82 143q0 66 -21 106t-61 40q-39 0 -60.5 -40.5t-21.5 -105.5z" />
<glyph unicode="&#xbb;" horiz-adv-x="1003" d="M72 297l221 244l-221 245l129 148l291 -285v-215l-291 -287zM502 297l221 244l-221 245l129 148l291 -285v-215l-291 -287z" />
<glyph unicode="&#xbc;" horiz-adv-x="1095" d="M45 1286q78 0 135 47t62 101h147v-560h-147v361q-54 -92 -174 -92zM272 0l371 1434h176l-370 -1434h-177zM612 111v102l136 346h151l-125 -319h80v112h131v-112h64v-129h-64v-111h-147v111h-226z" />
<glyph unicode="&#xbd;" horiz-adv-x="1087" d="M45 1286q78 0 135 47t62 101h147v-560h-147v361q-54 -92 -174 -92zM272 0l371 1434h176l-370 -1434h-177zM651 0v61q0 49 24 89.5t58 66t68 48t58 48.5t24 54q0 59 -49 59q-26 0 -39 -22.5t-13 -43.5l-131 25q0 63 47 121.5t138 58.5q88 0 139 -51t51 -139 q0 -43 -17.5 -80.5t-43 -62.5t-50.5 -45t-43.5 -36t-19.5 -28v-2h174v-121h-375z" />
<glyph unicode="&#xbe;" horiz-adv-x="1099" d="M53 985l92 70q1 -3 3 -7.5t10 -16t18 -20.5t27 -16.5t37 -7.5q61 0 61 53q0 56 -47 56h-61v106h61q15 0 25 14t10 41q0 23 -12.5 38.5t-36.5 15.5q-20 0 -34 -11.5t-18 -22.5l-4 -11l-121 45q1 5 4 14t16 31t31.5 39t54.5 31t81 14q89 0 136.5 -49t47.5 -115 q0 -50 -22 -79t-41 -34q75 -37 75 -135q0 -73 -54 -115.5t-144 -42.5q-49 0 -87 12t-57.5 29t-32 33.5t-15.5 28.5zM283 0l368 1434h174l-366 -1434h-176zM616 111v102l138 346h151l-127 -319h82v112h131v-112h62v-129h-62v-111h-147v111h-228z" />
<glyph unicode="&#xbf;" horiz-adv-x="899" d="M49 -96q0 77 18 141t46 108.5t62.5 84.5t69 79.5t62.5 82t46 103t18 132.5h243q0 -97 -16 -175t-41.5 -128.5t-56 -91.5t-61 -74t-56 -66.5t-41.5 -78.5t-16 -101q0 -78 36 -129t97 -51q66 0 103.5 55.5t37.5 145.5l256 -35q0 -193 -114 -312.5t-291 -119.5 q-82 0 -150 23.5t-114 64t-77.5 95.5t-46 117t-14.5 130zM360 954q0 62 42 106t100 44q60 0 101.5 -44t41.5 -106q0 -63 -41.5 -107t-101.5 -44q-59 0 -100.5 44t-41.5 107z" />
<glyph unicode="&#xc0;" horiz-adv-x="1193" d="M6 0l449 1434h284l447 -1434h-289l-96 358h-408l-96 -358h-291zM268 1982h314l141 -395h-225zM465 573h266l-135 521z" />
<glyph unicode="&#xc1;" horiz-adv-x="1193" d="M6 0l449 1434h284l447 -1434h-289l-96 358h-408l-96 -358h-291zM465 573h266l-135 521zM496 1587l143 395h311l-227 -395h-227z" />
<glyph unicode="&#xc2;" horiz-adv-x="1193" d="M6 0l449 1434h284l447 -1434h-289l-96 358h-408l-96 -358h-291zM299 1548l158 396h280l158 -396h-225l-74 201l-72 -201h-225zM465 573h266l-135 521z" />
<glyph unicode="&#xc3;" horiz-adv-x="1193" d="M6 0l449 1434h284l447 -1434h-289l-96 358h-408l-96 -358h-291zM268 1686q0 83 47 137.5t134 54.5q52 0 108.5 -20.5t104 -41t77.5 -20.5q37 0 37 47q0 20 -6.5 42.5t-13.5 34.5l-6 13h174q24 -55 24 -121q0 -83 -45 -139.5t-129 -56.5q-61 0 -119 21t-101 42t-67 21 q-20 0 -32.5 -15t-12.5 -40q0 -22 7 -42t13 -29l7 -9h-172q-29 43 -29 121zM465 573h266l-135 521z" />
<glyph unicode="&#xc4;" horiz-adv-x="1193" d="M6 0l449 1434h284l447 -1434h-289l-96 358h-408l-96 -358h-291zM287 1753q0 56 38.5 96.5t92.5 40.5q52 0 90.5 -40.5t38.5 -96.5q0 -58 -38 -97.5t-91 -39.5q-54 0 -92.5 39.5t-38.5 97.5zM465 573h266l-135 521zM659 1753q0 56 39 96.5t93 40.5t91.5 -40.5t37.5 -96.5 q0 -58 -37.5 -97.5t-91.5 -39.5q-55 0 -93.5 39.5t-38.5 97.5z" />
<glyph unicode="&#xc5;" horiz-adv-x="1193" d="M6 0l449 1434h284l447 -1434h-289l-96 358h-408l-96 -358h-291zM412 1776q0 88 53 146t133 58q78 0 132 -58.5t54 -145.5q0 -85 -54 -144t-132 -59q-79 0 -132.5 59t-53.5 144zM465 573h266l-135 521zM530 1776q0 -34 19.5 -56t48.5 -22t48.5 22t19.5 56q0 35 -19 57 t-49 22t-49 -22t-19 -57z" />
<glyph unicode="&#xc6;" horiz-adv-x="1529" d="M6 0l449 1434h1007v-230h-643l111 -391h407v-225h-327l94 -359h358v-229h-565l-98 358h-406l-96 -358h-291zM465 573h264l-133 521z" />
<glyph unicode="&#xc7;" horiz-adv-x="1153" d="M66 715q0 356 145 543.5t407 187.5q91 0 167 -24t125 -61.5t86.5 -88t57 -97.5t32 -97t15.5 -80t3 -52l-258 -43q0 6 -0.5 16.5t-5 41.5t-12.5 58.5t-24.5 61.5t-39.5 58.5t-59.5 41.5t-81.5 17q-125 0 -198 -120.5t-73 -362.5q0 -123 26 -217.5t70.5 -150t99 -83.5 t116.5 -28q48 0 94 20t78.5 48.5t57.5 57t38 48.5l12 20l160 -174q-3 -5 -8 -14.5t-24 -36t-41.5 -51t-59.5 -54.5t-78.5 -52.5t-98.5 -39t-118 -18.5l-17 -49q41 0 78 -40.5t37 -109.5q0 -85 -53.5 -129.5t-130.5 -44.5q-51 0 -95 20.5t-63 40.5l-18 21l57 100 q5 -6 14 -15.5t38.5 -25.5t60.5 -16q63 0 63 55q0 68 -137 68l45 129q-228 30 -358.5 214t-130.5 507z" />
<glyph unicode="&#xc8;" d="M123 0v1434h788v-230h-512v-381h392v-225h-392v-369h512v-229h-788zM213 1982h313l142 -395h-226z" />
<glyph unicode="&#xc9;" d="M123 0v1434h788v-230h-512v-381h392v-225h-392v-369h512v-229h-788zM393 1587l144 395h311l-227 -395h-228z" />
<glyph unicode="&#xca;" d="M123 0v1434h788v-230h-512v-381h392v-225h-392v-369h512v-229h-788zM240 1548l157 396h281l158 -396h-226l-73 201l-72 -201h-225z" />
<glyph unicode="&#xcb;" d="M123 0v1434h788v-230h-512v-381h392v-225h-392v-369h512v-229h-788zM213 1753q0 56 38.5 96.5t92.5 40.5q52 0 90.5 -40.5t38.5 -96.5q0 -58 -38 -97.5t-91 -39.5q-54 0 -92.5 39.5t-38.5 97.5zM586 1753q0 56 38.5 96.5t92.5 40.5t91.5 -40.5t37.5 -96.5 q0 -58 -37.5 -97.5t-91.5 -39.5t-92.5 39.5t-38.5 97.5z" />
<glyph unicode="&#xcc;" horiz-adv-x="520" d="M-61 1982h313l141 -395h-225zM123 0v1434h276v-1434h-276z" />
<glyph unicode="&#xcd;" horiz-adv-x="520" d="M123 0v1434h276v-1434h-276zM131 1587l143 395h312l-228 -395h-227z" />
<glyph unicode="&#xce;" horiz-adv-x="520" d="M-45 1548l158 396h280l158 -396h-225l-74 201l-72 -201h-225zM123 0v1434h276v-1434h-276z" />
<glyph unicode="&#xcf;" horiz-adv-x="520" d="M-59 1681q0 56 38.5 97t92.5 41q52 0 90.5 -41t38.5 -97q0 -58 -38 -97.5t-91 -39.5q-54 0 -92.5 39.5t-38.5 97.5zM123 0v1434h276v-1434h-276zM313 1681q0 56 38.5 97t92.5 41t91.5 -41t37.5 -97q0 -58 -37.5 -97.5t-91.5 -39.5t-92.5 39.5t-38.5 97.5z" />
<glyph unicode="&#xd0;" horiz-adv-x="1175" d="M123 0v1434h371q100 0 188 -25t167.5 -81.5t136.5 -141t90.5 -211t33.5 -283.5q0 -149 -31 -267.5t-83.5 -197t-125.5 -130.5t-153.5 -74.5t-171.5 -22.5h-422zM399 229h144q132 0 212.5 121.5t80.5 345.5q0 248 -81.5 378t-262.5 130h-93v-401h283v-178h-283v-396z" />
<glyph unicode="&#xd1;" horiz-adv-x="1214" d="M123 0v1434h283l409 -936v936h279v-1434h-285l-410 901v-901h-276zM287 1686q0 83 46.5 137.5t133.5 54.5q52 0 109 -20.5t104.5 -41t77.5 -20.5q37 0 37 47q0 20 -6.5 42.5t-13.5 34.5l-7 13h174q25 -55 25 -121q0 -83 -45 -139.5t-129 -56.5q-61 0 -119 21t-101 42 t-67 21q-20 0 -32.5 -15t-12.5 -40q0 -22 6.5 -42t12.5 -29l7 -9h-172q-28 43 -28 121z" />
<glyph unicode="&#xd2;" horiz-adv-x="1245" d="M66 715q0 181 43 322.5t119 229.5t176.5 133.5t218.5 45.5t218.5 -45.5t176.5 -133.5t119 -229.5t43 -322.5q0 -145 -28.5 -265.5t-78.5 -205t-120.5 -143t-153 -86t-176.5 -27.5t-176.5 27.5t-153 86t-120.5 143t-78.5 205t-28.5 265.5zM317 1982h314l141 -395h-225z M354 715q0 -250 74.5 -367t194.5 -117q122 0 195 116.5t73 367.5q0 252 -73.5 367.5t-194.5 115.5t-195 -115.5t-74 -367.5z" />
<glyph unicode="&#xd3;" horiz-adv-x="1245" d="M66 715q0 181 43 322.5t119 229.5t176.5 133.5t218.5 45.5t218.5 -45.5t176.5 -133.5t119 -229.5t43 -322.5q0 -145 -28.5 -265.5t-78.5 -205t-120.5 -143t-153 -86t-176.5 -27.5t-176.5 27.5t-153 86t-120.5 143t-78.5 205t-28.5 265.5zM354 715q0 -250 74.5 -367 t194.5 -117q122 0 195 116.5t73 367.5q0 252 -73.5 367.5t-194.5 115.5t-195 -115.5t-74 -367.5zM471 1587l143 395h312l-228 -395h-227z" />
<glyph unicode="&#xd4;" horiz-adv-x="1245" d="M66 715q0 181 43 322.5t119 229.5t176.5 133.5t218.5 45.5t218.5 -45.5t176.5 -133.5t119 -229.5t43 -322.5q0 -145 -28.5 -265.5t-78.5 -205t-120.5 -143t-153 -86t-176.5 -27.5t-176.5 27.5t-153 86t-120.5 143t-78.5 205t-28.5 265.5zM330 1548l157 396h281l158 -396 h-226l-73 201l-72 -201h-225zM354 715q0 -250 74.5 -367t194.5 -117q122 0 195 116.5t73 367.5q0 252 -73.5 367.5t-194.5 115.5t-195 -115.5t-74 -367.5z" />
<glyph unicode="&#xd5;" horiz-adv-x="1245" d="M66 715q0 181 43 322.5t119 229.5t176.5 133.5t218.5 45.5t218.5 -45.5t176.5 -133.5t119 -229.5t43 -322.5q0 -145 -28.5 -265.5t-78.5 -205t-120.5 -143t-153 -86t-176.5 -27.5t-176.5 27.5t-153 86t-120.5 143t-78.5 205t-28.5 265.5zM285 1686q0 83 46.5 137.5 t133.5 54.5q52 0 109 -20.5t104.5 -41t77.5 -20.5q37 0 37 47q0 20 -6.5 42.5t-13.5 34.5l-7 13h174q25 -55 25 -121q0 -83 -45 -139.5t-129 -56.5q-61 0 -119 21t-101 42t-67 21q-20 0 -32.5 -15t-12.5 -40q0 -22 6.5 -42t12.5 -29l7 -9h-172q-28 43 -28 121zM354 715 q0 -250 74.5 -367t194.5 -117q122 0 195 116.5t73 367.5q0 252 -73.5 367.5t-194.5 115.5t-195 -115.5t-74 -367.5z" />
<glyph unicode="&#xd6;" horiz-adv-x="1245" d="M66 715q0 181 43 322.5t119 229.5t176.5 133.5t218.5 45.5t218.5 -45.5t176.5 -133.5t119 -229.5t43 -322.5q0 -145 -28.5 -265.5t-78.5 -205t-120.5 -143t-153 -86t-176.5 -27.5t-176.5 27.5t-153 86t-120.5 143t-78.5 205t-28.5 265.5zM311 1753q0 56 38.5 96.5 t92.5 40.5q52 0 90.5 -40.5t38.5 -96.5q0 -58 -38 -97.5t-91 -39.5q-54 0 -92.5 39.5t-38.5 97.5zM354 715q0 -250 74.5 -367t194.5 -117q122 0 195 116.5t73 367.5q0 252 -73.5 367.5t-194.5 115.5t-195 -115.5t-74 -367.5zM684 1753q0 56 38.5 96.5t92.5 40.5t91.5 -40.5 t37.5 -96.5q0 -58 -37.5 -97.5t-91.5 -39.5t-92.5 39.5t-38.5 97.5z" />
<glyph unicode="&#xd7;" horiz-adv-x="892" d="M74 283l239 274l-239 274l133 136l237 -273l240 273l133 -136l-239 -274l239 -274l-133 -136l-240 275l-237 -275z" />
<glyph unicode="&#xd8;" horiz-adv-x="1243" d="M66 715q0 181 43 322.5t119 229.5t176.5 133.5t218.5 45.5q129 0 239 -64q0 4 11 25t21 40l11 19h260l-129 -225q144 -198 144 -526q0 -145 -28.5 -265.5t-78.5 -205t-120.5 -143t-153 -86t-176.5 -27.5q-138 0 -246 63l-43 -84h-260q9 15 23 38.5t43 74t47.5 84 t15.5 33.5q-137 185 -137 518zM352 715q0 -133 25 -254l360 694q-52 43 -114 43q-121 0 -196 -115.5t-75 -367.5zM504 274q51 -43 119 -43q120 0 194 117t74 367q0 141 -27 256z" />
<glyph unicode="&#xd9;" horiz-adv-x="1181" d="M111 592v842h278v-863q0 -161 47 -247t158 -86q75 0 120.5 42.5t63 113.5t17.5 177v863h278v-842q0 -133 -25 -237.5t-68.5 -172.5t-105 -112.5t-130.5 -63t-150 -18.5q-103 0 -187 31t-152.5 98.5t-106.5 188t-37 286.5zM248 1982h313l141 -395h-225z" />
<glyph unicode="&#xda;" horiz-adv-x="1181" d="M111 592v842h278v-863q0 -161 47 -247t158 -86q75 0 120.5 42.5t63 113.5t17.5 177v863h278v-842q0 -133 -25 -237.5t-68.5 -172.5t-105 -112.5t-130.5 -63t-150 -18.5q-103 0 -187 31t-152.5 98.5t-106.5 188t-37 286.5zM442 1587l144 395h311l-227 -395h-228z" />
<glyph unicode="&#xdb;" horiz-adv-x="1181" d="M111 592v842h278v-863q0 -161 47 -247t158 -86q75 0 120.5 42.5t63 113.5t17.5 177v863h278v-842q0 -133 -25 -237.5t-68.5 -172.5t-105 -112.5t-130.5 -63t-150 -18.5q-103 0 -187 31t-152.5 98.5t-106.5 188t-37 286.5zM281 1548l157 396h281l158 -396h-226l-73 201 l-72 -201h-225z" />
<glyph unicode="&#xdc;" horiz-adv-x="1181" d="M111 592v842h278v-863q0 -161 47 -247t158 -86q75 0 120.5 42.5t63 113.5t17.5 177v863h278v-842q0 -133 -25 -237.5t-68.5 -172.5t-105 -112.5t-130.5 -63t-150 -18.5q-103 0 -187 31t-152.5 98.5t-106.5 188t-37 286.5zM268 1753q0 56 38.5 96.5t92.5 40.5 q52 0 90.5 -40.5t38.5 -96.5q0 -58 -38 -97.5t-91 -39.5q-54 0 -92.5 39.5t-38.5 97.5zM641 1753q0 56 38.5 96.5t92.5 40.5t91.5 -40.5t37.5 -96.5q0 -58 -37.5 -97.5t-91.5 -39.5t-92.5 39.5t-38.5 97.5z" />
<glyph unicode="&#xdd;" horiz-adv-x="1187" d="M2 1434h324l268 -594l268 594h324l-449 -834v-600h-286v600zM457 1587l143 395h311l-227 -395h-227z" />
<glyph unicode="&#xde;" horiz-adv-x="1095" d="M123 0v1434h276v-211h158q234 0 365 -124t131 -368q0 -119 -36 -211t-99.5 -148.5t-145 -85t-176.5 -28.5h-197v-258h-276zM399 483h146q110 0 168.5 63.5t58.5 184.5t-59.5 191.5t-175.5 70.5h-138v-510z" />
<glyph unicode="&#xdf;" horiz-adv-x="1021" d="M98 0v1108q0 84 23 157.5t69.5 135.5t129 98.5t190.5 36.5q173 0 288 -111t115 -272q0 -71 -19 -128.5t-46 -94t-54 -67t-46 -61t-19 -61.5q0 -23 14 -43t36 -37t48.5 -37t53 -48.5t48.5 -65t36 -93.5t14 -128q0 -152 -99.5 -234t-252.5 -82q-60 0 -109.5 9.5t-68.5 19.5 l-19 10l41 217q57 -26 102 -26q62 0 94.5 40.5t32.5 116.5q0 54 -16.5 94t-41.5 62t-54.5 44.5t-54.5 40.5t-41.5 49.5t-16.5 72.5q0 39 18.5 72.5t44.5 60.5t52 56t44.5 73.5t18.5 99.5q0 95 -35.5 153t-101.5 58q-70 0 -106.5 -64.5t-36.5 -170.5v-1061h-275z" />
<glyph unicode="&#xe0;" horiz-adv-x="927" d="M49 252q0 135 80.5 204.5t255.5 69.5h170v119q0 152 -109 152q-50 0 -77 -32.5t-27 -90.5q0 -21 2.5 -38t5.5 -24l2 -6h-233q-19 33 -19 111q0 128 92.5 205t262.5 77q362 0 362 -364v-340q0 -45 15.5 -67.5t52.5 -22.5v-199q-39 -16 -113 -16q-46 0 -81.5 13.5t-54 32 t-30.5 41.5t-15 38t-3 26v2q-76 -155 -262 -155q-128 0 -202.5 73t-74.5 191zM139 1536h314l141 -395h-225zM313 287q0 -44 28 -70.5t69 -26.5q33 0 60 16t42 39t25.5 46t14.5 39l3 16v39h-127q-115 0 -115 -98z" />
<glyph unicode="&#xe1;" horiz-adv-x="927" d="M49 252q0 135 80.5 204.5t255.5 69.5h170v119q0 152 -109 152q-50 0 -77 -32.5t-27 -90.5q0 -21 2.5 -38t5.5 -24l2 -6h-233q-19 33 -19 111q0 128 92.5 205t262.5 77q362 0 362 -364v-340q0 -45 15.5 -67.5t52.5 -22.5v-199q-39 -16 -113 -16q-46 0 -81.5 13.5t-54 32 t-30.5 41.5t-15 38t-3 26v2q-76 -155 -262 -155q-128 0 -202.5 73t-74.5 191zM309 1141l144 395h311l-227 -395h-228zM313 287q0 -44 28 -70.5t69 -26.5q33 0 60 16t42 39t25.5 46t14.5 39l3 16v39h-127q-115 0 -115 -98z" />
<glyph unicode="&#xe2;" horiz-adv-x="927" d="M49 252q0 135 80.5 204.5t255.5 69.5h170v119q0 152 -109 152q-50 0 -77 -32.5t-27 -90.5q0 -21 2.5 -38t5.5 -24l2 -6h-233q-19 33 -19 111q0 128 92.5 205t262.5 77q362 0 362 -364v-340q0 -45 15.5 -67.5t52.5 -22.5v-199q-39 -16 -113 -16q-46 0 -81.5 13.5t-54 32 t-30.5 41.5t-15 38t-3 26v2q-76 -155 -262 -155q-128 0 -202.5 73t-74.5 191zM162 1102l157 395h281l158 -395h-226l-73 201l-72 -201h-225zM313 287q0 -44 28 -70.5t69 -26.5q33 0 60 16t42 39t25.5 46t14.5 39l3 16v39h-127q-115 0 -115 -98z" />
<glyph unicode="&#xe3;" horiz-adv-x="927" d="M49 252q0 135 80.5 204.5t255.5 69.5h170v119q0 152 -109 152q-50 0 -77 -32.5t-27 -90.5q0 -21 2.5 -38t5.5 -24l2 -6h-233q-19 33 -19 111q0 128 92.5 205t262.5 77q362 0 362 -364v-340q0 -45 15.5 -67.5t52.5 -22.5v-199q-39 -16 -113 -16q-46 0 -81.5 13.5t-54 32 t-30.5 41.5t-15 38t-3 26v2q-76 -155 -262 -155q-128 0 -202.5 73t-74.5 191zM98 1239q0 83 47 138t134 55q52 0 108.5 -20.5t104 -41t77.5 -20.5q37 0 37 47q0 20 -6.5 42.5t-13.5 34.5l-6 13h174q24 -55 24 -121q0 -83 -45.5 -140t-128.5 -57q-61 0 -119 21t-101 42 t-67 21q-20 0 -32.5 -15t-12.5 -40q0 -22 7 -42t13 -29l7 -9h-172q-29 43 -29 121zM313 287q0 -44 28 -70.5t69 -26.5q33 0 60 16t42 39t25.5 46t14.5 39l3 16v39h-127q-115 0 -115 -98z" />
<glyph unicode="&#xe4;" horiz-adv-x="927" d="M49 252q0 135 80.5 204.5t255.5 69.5h170v119q0 152 -109 152q-50 0 -77 -32.5t-27 -90.5q0 -21 2.5 -38t5.5 -24l2 -6h-233q-19 33 -19 111q0 128 92.5 205t262.5 77q362 0 362 -364v-340q0 -45 15.5 -67.5t52.5 -22.5v-199q-39 -16 -113 -16q-46 0 -81.5 13.5t-54 32 t-30.5 41.5t-15 38t-3 26v2q-76 -155 -262 -155q-128 0 -202.5 73t-74.5 191zM139 1307q0 56 38.5 96.5t92.5 40.5q52 0 90.5 -40.5t38.5 -96.5q0 -58 -38 -98t-91 -40q-54 0 -92.5 40t-38.5 98zM313 287q0 -44 28 -70.5t69 -26.5q33 0 60 16t42 39t25.5 46t14.5 39l3 16v39 h-127q-115 0 -115 -98zM512 1307q0 56 38.5 96.5t92.5 40.5t91.5 -40.5t37.5 -96.5q0 -58 -37.5 -98t-91.5 -40t-92.5 40t-38.5 98z" />
<glyph unicode="&#xe5;" horiz-adv-x="927" d="M49 252q0 135 80.5 204.5t255.5 69.5h170v119q0 152 -109 152q-50 0 -77 -32.5t-27 -90.5q0 -21 2.5 -38t5.5 -24l2 -6h-233q-19 33 -19 111q0 128 92.5 205t262.5 77q362 0 362 -364v-340q0 -45 15.5 -67.5t52.5 -22.5v-199q-39 -16 -113 -16q-46 0 -81.5 13.5t-54 32 t-30.5 41.5t-15 38t-3 26v2q-76 -155 -262 -155q-128 0 -202.5 73t-74.5 191zM274 1329q0 88 53.5 146.5t133.5 58.5q78 0 132 -59t54 -146q0 -85 -54 -144t-132 -59q-79 0 -133 59t-54 144zM313 287q0 -44 28 -70.5t69 -26.5q33 0 60 16t42 39t25.5 46t14.5 39l3 16v39 h-127q-115 0 -115 -98zM393 1329q0 -34 19.5 -56t48.5 -22t48 22t19 56q0 35 -19 57.5t-48 22.5t-48.5 -22.5t-19.5 -57.5z" />
<glyph unicode="&#xe6;" horiz-adv-x="1398" d="M49 252q0 135 80.5 204.5t255.5 69.5h170v119q0 152 -109 152q-50 0 -77 -32.5t-27 -90.5q0 -21 2.5 -38t5.5 -24l2 -6h-233q-19 33 -19 111q0 128 92.5 205t262.5 77t262 -100q108 100 254 100q184 0 271 -122t87 -336v-82h-508v-10q11 -125 63.5 -183.5t125.5 -58.5 q37 0 71 13t56.5 31.5t39 37.5t23.5 32l8 13l133 -141q-4 -8 -12 -22t-39.5 -49.5t-70 -62.5t-105 -49t-143.5 -22q-107 0 -200.5 56t-149.5 159q-4 -15 -12 -34.5t-31 -54t-53 -60.5t-83 -46t-116 -20q-128 0 -202.5 73t-74.5 191zM313 287q0 -44 28 -70.5t69 -26.5 q33 0 60 16t42 39t25.5 46t14.5 39l3 16v39h-127q-115 0 -115 -98zM825 608h256q0 180 -123 180q-58 0 -92.5 -45.5t-40.5 -134.5z" />
<glyph unicode="&#xe7;" horiz-adv-x="890" d="M59 492q0 241 104 374t314 133q165 0 256.5 -93.5t91.5 -229.5q0 -33 -4 -62.5t-8 -43.5l-4 -13h-227q12 31 12 66q0 26 -5 48.5t-16.5 45.5t-36 36t-59.5 13q-80 0 -119 -65t-39 -205q0 -76 16.5 -132t45 -86t61 -43.5t70.5 -13.5t72 12t56 28.5t38.5 33.5t23.5 29l7 12 l135 -143q-3 -7 -10 -19t-33 -44t-58 -57.5t-87 -49.5t-117 -31l-19 -51q41 0 77 -40.5t36 -109.5q0 -86 -52.5 -130t-129.5 -44q-32 0 -62 8.5t-50 20.5t-35.5 24t-22.5 20l-7 9l58 100q5 -6 14 -15.5t38.5 -25.5t61.5 -16q62 0 62 55q0 68 -137 68l45 127 q-164 21 -260.5 150.5t-96.5 349.5z" />
<glyph unicode="&#xe8;" horiz-adv-x="899" d="M59 492q0 242 103 374.5t311 132.5q184 0 271 -122t87 -336v-82h-507v-10q11 -127 64 -184.5t124 -57.5q38 0 72.5 13t57 31.5t39.5 37.5t25 32l7 13l131 -141q-4 -8 -12 -22t-39.5 -49.5t-70 -62.5t-105 -49t-142.5 -22q-189 0 -302.5 131t-113.5 373zM147 1536h314 l141 -395h-225zM328 608h254q0 180 -123 180q-55 0 -90 -45t-41 -135z" />
<glyph unicode="&#xe9;" horiz-adv-x="899" d="M59 492q0 242 103 374.5t311 132.5q184 0 271 -122t87 -336v-82h-507v-10q11 -127 64 -184.5t124 -57.5q38 0 72.5 13t57 31.5t39.5 37.5t25 32l7 13l131 -141q-4 -8 -12 -22t-39.5 -49.5t-70 -62.5t-105 -49t-142.5 -22q-189 0 -302.5 131t-113.5 373zM322 1141l143 395 h311l-227 -395h-227zM328 608h254q0 180 -123 180q-55 0 -90 -45t-41 -135z" />
<glyph unicode="&#xea;" horiz-adv-x="899" d="M59 492q0 242 103 374.5t311 132.5q184 0 271 -122t87 -336v-82h-507v-10q11 -127 64 -184.5t124 -57.5q38 0 72.5 13t57 31.5t39.5 37.5t25 32l7 13l131 -141q-4 -8 -12 -22t-39.5 -49.5t-70 -62.5t-105 -49t-142.5 -22q-189 0 -302.5 131t-113.5 373zM162 1102l157 395 h281l158 -395h-226l-73 201l-72 -201h-225zM328 608h254q0 180 -123 180q-55 0 -90 -45t-41 -135z" />
<glyph unicode="&#xeb;" horiz-adv-x="899" d="M59 492q0 242 103 374.5t311 132.5q184 0 271 -122t87 -336v-82h-507v-10q11 -127 64 -184.5t124 -57.5q38 0 72.5 13t57 31.5t39.5 37.5t25 32l7 13l131 -141q-4 -8 -12 -22t-39.5 -49.5t-70 -62.5t-105 -49t-142.5 -22q-189 0 -302.5 131t-113.5 373zM160 1307 q0 56 38.5 96.5t92.5 40.5q52 0 90.5 -40.5t38.5 -96.5q0 -58 -38 -98t-91 -40q-54 0 -92.5 40t-38.5 98zM328 608h254q0 180 -123 180q-55 0 -90 -45t-41 -135zM532 1307q0 56 39 96.5t93 40.5t91.5 -40.5t37.5 -96.5q0 -58 -37.5 -98t-91.5 -40t-93 40t-39 98z" />
<glyph unicode="&#xec;" horiz-adv-x="493" d="M-119 1536h314l141 -395h-225zM94 256v731h262v-678q0 -60 15.5 -82t64.5 -22v-199q-45 -14 -108 -14q-122 0 -178 63t-56 201z" />
<glyph unicode="&#xed;" horiz-adv-x="493" d="M90 1141l143 395h312l-228 -395h-227zM94 256v731h262v-678q0 -60 15.5 -82t64.5 -22v-199q-45 -14 -108 -14q-122 0 -178 63t-56 201z" />
<glyph unicode="&#xee;" horiz-adv-x="493" d="M-72 1102l158 395h281l157 -395h-225l-74 201l-71 -201h-226zM94 256v731h262v-678q0 -60 15.5 -82t64.5 -22v-199q-45 -14 -108 -14q-122 0 -178 63t-56 201z" />
<glyph unicode="&#xef;" horiz-adv-x="493" d="M-78 1307q0 56 38.5 96.5t92.5 40.5q52 0 90.5 -40.5t38.5 -96.5q0 -58 -38 -98t-91 -40q-54 0 -92.5 40t-38.5 98zM94 256v731h262v-678q0 -60 15.5 -82t64.5 -22v-199q-45 -14 -108 -14q-122 0 -178 63t-56 201zM295 1307q0 56 38.5 96.5t92.5 40.5t91.5 -40.5 t37.5 -96.5q0 -58 -37.5 -98t-91.5 -40t-92.5 40t-38.5 98z" />
<glyph unicode="&#xf0;" horiz-adv-x="1085" d="M59 463q0 205 119.5 331t308.5 126q53 0 100.5 -13.5t77 -32t51 -37.5t30.5 -33l10 -13q0 225 -103 337l-172 -120l-82 133l117 80q-91 32 -207 32v252q269 0 443 -123l157 109l78 -127l-125 -88q160 -207 160 -580q0 -120 -19.5 -225.5t-60.5 -194.5t-100.5 -153 t-142.5 -99.5t-183 -35.5q-116 0 -205 36.5t-143.5 101.5t-81.5 150t-27 187zM322 463q0 -109 53 -175.5t141 -66.5q89 0 150.5 88t78.5 236l-8 16t-25 35t-44 44.5t-65 35.5t-87 16q-95 0 -144.5 -61t-49.5 -168z" />
<glyph unicode="&#xf1;" horiz-adv-x="1011" d="M61 782v201q39 14 115 14q47 0 83 -15.5t53.5 -36t28 -46t13 -40.5t2.5 -25v-5q51 170 242 170q78 0 137 -30.5t94.5 -85t52.5 -123.5t17 -152v-315q0 -45 16 -66.5t54 -21.5v-201q-39 -14 -115 -14q-217 0 -217 260v334q0 85 -30 132.5t-87 47.5q-64 0 -96.5 -62 t-32.5 -137v-565h-262v694q0 44 -15 66t-53 22zM141 1239q0 83 47 138t134 55q52 0 108.5 -20.5t104 -41t77.5 -20.5q37 0 37 47q0 20 -6.5 42.5t-12.5 34.5l-7 13h174q24 -55 24 -121q0 -83 -45.5 -140t-128.5 -57q-61 0 -119 21t-101 42t-67 21q-20 0 -32.5 -15t-12.5 -40 q0 -22 6.5 -42t13.5 -29l7 -9h-172q-29 43 -29 121z" />
<glyph unicode="&#xf2;" horiz-adv-x="921" d="M59 496q0 230 106 366.5t296 136.5t295.5 -136.5t105.5 -366.5q0 -232 -105 -370t-296 -138q-192 0 -297 137.5t-105 370.5zM139 1536h314l141 -395h-225zM319 494q0 -273 142 -273q141 0 141 273q0 272 -141 272q-142 0 -142 -272z" />
<glyph unicode="&#xf3;" horiz-adv-x="921" d="M59 496q0 230 106 366.5t296 136.5t295.5 -136.5t105.5 -366.5q0 -232 -105 -370t-296 -138q-192 0 -297 137.5t-105 370.5zM313 1141l144 395h311l-227 -395h-228zM319 494q0 -273 142 -273q141 0 141 273q0 272 -141 272q-142 0 -142 -272z" />
<glyph unicode="&#xf4;" horiz-adv-x="921" d="M59 496q0 230 106 366.5t296 136.5t295.5 -136.5t105.5 -366.5q0 -232 -105 -370t-296 -138q-192 0 -297 137.5t-105 370.5zM164 1102l158 395h280l158 -395h-225l-74 201l-72 -201h-225zM319 494q0 -273 142 -273q141 0 141 273q0 272 -141 272q-142 0 -142 -272z" />
<glyph unicode="&#xf5;" horiz-adv-x="921" d="M59 496q0 230 106 366.5t296 136.5t295.5 -136.5t105.5 -366.5q0 -232 -105 -370t-296 -138q-192 0 -297 137.5t-105 370.5zM102 1239q0 83 47 138t134 55q52 0 108.5 -20.5t104 -41t77.5 -20.5q37 0 37 47q0 20 -6.5 42.5t-13.5 34.5l-6 13h174q24 -55 24 -121 q0 -83 -45.5 -140t-128.5 -57q-61 0 -119 21t-100.5 42t-66.5 21q-20 0 -33 -15t-13 -40q0 -22 7 -42t13 -29l7 -9h-172q-29 43 -29 121zM319 494q0 -273 142 -273q141 0 141 273q0 272 -141 272q-142 0 -142 -272z" />
<glyph unicode="&#xf6;" horiz-adv-x="921" d="M59 496q0 230 106 366.5t296 136.5t295.5 -136.5t105.5 -366.5q0 -232 -105 -370t-296 -138q-192 0 -297 137.5t-105 370.5zM158 1307q0 56 38.5 96.5t92.5 40.5q52 0 90.5 -40.5t38.5 -96.5q0 -58 -38 -98t-91 -40q-54 0 -92.5 40t-38.5 98zM319 494q0 -273 142 -273 q141 0 141 273q0 272 -141 272q-142 0 -142 -272zM530 1307q0 56 39 96.5t93 40.5t91.5 -40.5t37.5 -96.5q0 -58 -37.5 -98t-91.5 -40t-93 40t-39 98z" />
<glyph unicode="&#xf7;" horiz-adv-x="792" d="M63 498v192h664v-192h-664zM233 213q0 72 47.5 123t116.5 51t118.5 -51t49.5 -123t-49.5 -124t-118.5 -52t-116.5 52t-47.5 124zM233 956q0 71 47.5 121.5t114.5 50.5q70 0 119 -50.5t49 -121.5q0 -72 -49 -124t-119 -52q-67 0 -114.5 52t-47.5 124z" />
<glyph unicode="&#xf8;" horiz-adv-x="921" d="M59 496q0 230 106 366.5t296 136.5q102 0 184 -45l43 78q-1 0 39 -0.5t81 -1.5h40l-92 -168q106 -133 106 -366q0 -232 -105 -370t-296 -138q-95 0 -170 35l-35 -62l-166 -2q35 60 86 152q-117 135 -117 385zM319 494q0 -55 7 -113q130 235 202 362q-30 23 -67 23 q-142 0 -142 -272zM406 233q24 -12 55 -12q141 0 141 273q0 34 -4 84z" />
<glyph unicode="&#xf9;" horiz-adv-x="993" d="M94 344v643h262v-584q0 -180 109 -180q36 0 63.5 22t42.5 55.5t22 68t7 65.5v553h262v-694q0 -44 16 -66t54 -22v-201q-41 -14 -115 -14q-49 0 -86 15.5t-55 36.5t-29 47t-13.5 40.5t-2.5 24.5v2q-28 -71 -93 -119.5t-178 -48.5q-143 0 -204.5 92.5t-61.5 263.5z M178 1536h314l141 -395h-225z" />
<glyph unicode="&#xfa;" horiz-adv-x="993" d="M94 344v643h262v-584q0 -180 109 -180q36 0 63.5 22t42.5 55.5t22 68t7 65.5v553h262v-694q0 -44 16 -66t54 -22v-201q-41 -14 -115 -14q-49 0 -86 15.5t-55 36.5t-29 47t-13.5 40.5t-2.5 24.5v2q-28 -71 -93 -119.5t-178 -48.5q-143 0 -204.5 92.5t-61.5 263.5z M313 1141l144 395h311l-227 -395h-228z" />
<glyph unicode="&#xfb;" horiz-adv-x="993" d="M94 344v643h262v-584q0 -180 109 -180q36 0 63.5 22t42.5 55.5t22 68t7 65.5v553h262v-694q0 -44 16 -66t54 -22v-201q-41 -14 -115 -14q-49 0 -86 15.5t-55 36.5t-29 47t-13.5 40.5t-2.5 24.5v2q-28 -71 -93 -119.5t-178 -48.5q-143 0 -204.5 92.5t-61.5 263.5z M174 1102l158 395h280l158 -395h-225l-74 201l-72 -201h-225z" />
<glyph unicode="&#xfc;" horiz-adv-x="993" d="M94 344v643h262v-584q0 -180 109 -180q36 0 63.5 22t42.5 55.5t22 68t7 65.5v553h262v-694q0 -44 16 -66t54 -22v-201q-41 -14 -115 -14q-49 0 -86 15.5t-55 36.5t-29 47t-13.5 40.5t-2.5 24.5v2q-28 -71 -93 -119.5t-178 -48.5q-143 0 -204.5 92.5t-61.5 263.5z M162 1307q0 56 38.5 96.5t92.5 40.5q52 0 90.5 -40.5t38.5 -96.5q0 -58 -38 -98t-91 -40q-54 0 -92.5 40t-38.5 98zM535 1307q0 56 38.5 96.5t92.5 40.5t91.5 -40.5t37.5 -96.5q0 -58 -37.5 -98t-91.5 -40t-92.5 40t-38.5 98z" />
<glyph unicode="&#xfd;" horiz-adv-x="956" d="M14 987h281l192 -668l170 668h277l-385 -1194q-46 -136 -136 -217.5t-227 -81.5q-44 0 -85 10t-59 20l-19 9l34 209q50 -21 111 -21q62 0 98 41t60 113l28 125zM313 1141l144 395h311l-227 -395h-228z" />
<glyph unicode="&#xfe;" d="M98 -500v1987h262v-604q92 116 218 116q64 0 123 -30t108.5 -88.5t79 -157.5t29.5 -225q0 -133 -29.5 -234.5t-80.5 -160t-113.5 -87t-135.5 -28.5q-123 0 -199 102v-590h-262zM360 391q2 -20 10 -45.5t24 -55t45.5 -49.5t66.5 -20q69 0 111 70t42 203q0 137 -46.5 204.5 t-108.5 67.5q-110 0 -144 -172v-203z" />
<glyph unicode="&#xff;" horiz-adv-x="956" d="M14 987h281l192 -668l170 668h277l-385 -1194q-46 -136 -136 -217.5t-227 -81.5q-44 0 -85 10t-59 20l-19 9l34 209q50 -21 111 -21q62 0 98 41t60 113l28 125zM176 1307q0 56 38.5 96.5t92.5 40.5q52 0 90.5 -40.5t38.5 -96.5q0 -58 -38 -98t-91 -40q-54 0 -92.5 40 t-38.5 98zM549 1307q0 56 38.5 96.5t92.5 40.5t91.5 -40.5t37.5 -96.5q0 -58 -37.5 -98t-91.5 -40t-92.5 40t-38.5 98z" />
<glyph unicode="&#x152;" horiz-adv-x="1761" d="M66 715q0 181 43 322.5t119 229.5t176.5 133.5t218.5 45.5q156 0 280 -80v68h791v-230h-512v-391h391v-225h-391v-359h512v-229h-791v66q-121 -78 -280 -78q-94 0 -176.5 27.5t-153 86t-120.5 143t-78.5 205t-28.5 265.5zM354 715q0 -250 74.5 -367t194.5 -117 q122 0 195 116.5t73 367.5q0 252 -73.5 367.5t-194.5 115.5t-195 -115.5t-74 -367.5z" />
<glyph unicode="&#x153;" horiz-adv-x="1443" d="M59 496q0 230 106 366.5t296 136.5q165 0 268 -106q106 106 287 106q184 0 271 -122t87 -336v-82h-508v-10q11 -127 64.5 -184.5t124.5 -57.5q38 0 72.5 13t56.5 31.5t39 37.5t25 32l7 13l131 -141q-4 -8 -12 -22t-39.5 -49.5t-69.5 -62.5t-104.5 -49t-142.5 -22 q-179 0 -283 110q-104 -110 -274 -110q-192 0 -297 137.5t-105 370.5zM319 494q0 -273 142 -273q141 0 141 273q0 272 -141 272q-142 0 -142 -272zM870 608h254q0 180 -123 180q-55 0 -90 -45t-41 -135z" />
<glyph unicode="&#x178;" horiz-adv-x="1187" d="M2 1434h324l268 -594l268 594h324l-449 -834v-600h-286v600zM279 1753q0 56 38.5 96.5t92.5 40.5q52 0 90.5 -40.5t38.5 -96.5q0 -58 -38 -97.5t-91 -39.5q-54 0 -92.5 39.5t-38.5 97.5zM651 1753q0 56 38.5 96.5t92.5 40.5t91.5 -40.5t37.5 -96.5q0 -58 -37.5 -97.5 t-91.5 -39.5t-92.5 39.5t-38.5 97.5z" />
<glyph unicode="&#x2c6;" horiz-adv-x="688" d="M43 1102l158 395h280l158 -395h-225l-74 201l-72 -201h-225z" />
<glyph unicode="&#x2dc;" horiz-adv-x="792" d="M55 1239q0 83 47 138t134 55q52 0 108.5 -20.5t104 -41t77.5 -20.5q37 0 37 47q0 20 -6.5 42.5t-12.5 34.5l-7 13h174q24 -55 24 -121q0 -83 -45.5 -140t-128.5 -57q-61 0 -119 21t-101 42t-67 21q-20 0 -32.5 -15t-12.5 -40q0 -22 6.5 -42t13.5 -29l7 -9h-172 q-29 43 -29 121z" />
<glyph unicode="&#x2000;" horiz-adv-x="991" />
<glyph unicode="&#x2001;" horiz-adv-x="1982" />
<glyph unicode="&#x2002;" horiz-adv-x="991" />
<glyph unicode="&#x2003;" horiz-adv-x="1982" />
<glyph unicode="&#x2004;" horiz-adv-x="660" />
<glyph unicode="&#x2005;" horiz-adv-x="495" />
<glyph unicode="&#x2006;" horiz-adv-x="330" />
<glyph unicode="&#x2007;" horiz-adv-x="330" />
<glyph unicode="&#x2008;" horiz-adv-x="247" />
<glyph unicode="&#x2009;" horiz-adv-x="396" />
<glyph unicode="&#x200a;" horiz-adv-x="110" />
<glyph unicode="&#x2010;" horiz-adv-x="710" d="M100 461v192h510v-192h-510z" />
<glyph unicode="&#x2011;" horiz-adv-x="710" d="M100 461v192h510v-192h-510z" />
<glyph unicode="&#x2012;" horiz-adv-x="710" d="M100 461v192h510v-192h-510z" />
<glyph unicode="&#x2013;" horiz-adv-x="987" d="M100 461v192h787v-192h-787z" />
<glyph unicode="&#x2014;" horiz-adv-x="1564" d="M100 461v192h1364v-192h-1364z" />
<glyph unicode="&#x2018;" horiz-adv-x="362" d="M18 1503q0 68 12.5 128t32.5 101t44 75.5t48 54.5t44 34t33 20l12 5l67 -115q-5 -3 -13.5 -8.5t-30 -23t-38 -36.5t-30 -47.5t-13.5 -56.5q62 0 105 -45.5t43 -111.5t-43.5 -113t-104.5 -47q-69 0 -118.5 49t-49.5 137z" />
<glyph unicode="&#x2019;" horiz-adv-x="452" d="M72 1309q0 67 43.5 114t107.5 47q68 0 116 -49t48 -137q0 -68 -12 -128t-31.5 -101t-43.5 -75.5t-47.5 -54.5t-43 -34t-31.5 -19l-12 -6l-70 113q5 3 13.5 8.5t30 23.5t38.5 37t30.5 47.5t14.5 55.5q-63 0 -107 46.5t-44 111.5z" />
<glyph unicode="&#x201a;" horiz-adv-x="475" d="M80 145q0 66 43 113t106 47q68 0 116 -48.5t48 -135.5q0 -69 -12 -129t-31.5 -101.5t-43 -75.5t-47.5 -54.5t-43.5 -34.5t-31.5 -20l-12 -5l-70 115q5 3 13.5 8.5t30 23t38.5 36.5t30.5 47.5t14.5 56.5q-63 0 -106 45.5t-43 111.5z" />
<glyph unicode="&#x201c;" horiz-adv-x="747" d="M18 1503q0 68 12.5 128t32.5 101t44 75.5t48 54.5t44 34t33 20l12 5l67 -115q-5 -3 -13.5 -8.5t-30 -23t-38 -36.5t-30 -47.5t-13.5 -56.5q62 0 105 -45.5t43 -111.5t-43.5 -113t-104.5 -47q-69 0 -118.5 49t-49.5 137zM403 1503q0 94 23 171t56 121t66 74.5t56 40.5 l23 11l67 -115q-5 -3 -13.5 -8.5t-29.5 -23t-37.5 -36.5t-30 -47.5t-14.5 -56.5q62 0 106 -45.5t44 -111.5t-44 -113t-106 -47q-69 0 -117.5 49t-48.5 137z" />
<glyph unicode="&#x201d;" horiz-adv-x="835" d="M72 1309q0 66 43.5 112.5t107.5 46.5q68 0 116 -48.5t48 -135.5q0 -68 -12 -128t-31.5 -101t-43.5 -75.5t-47.5 -54.5t-43 -34t-31.5 -19l-12 -6l-70 113q5 3 13.5 8.5t30 23t38.5 36.5t30.5 47.5t14.5 56.5q-64 0 -107.5 46t-43.5 112zM457 1309q0 66 43 112.5t106 46.5 q68 0 116 -48.5t48 -135.5q0 -68 -12 -128t-31.5 -101t-42.5 -75.5t-46.5 -54.5t-43 -34t-31.5 -19l-12 -6l-70 113q5 3 13.5 8.5t30 23t38 36.5t30 47.5t13.5 56.5q-63 0 -106 46t-43 112z" />
<glyph unicode="&#x201e;" horiz-adv-x="849" d="M80 145q0 66 43 113t106 47q68 0 116 -48.5t48 -135.5q0 -69 -12 -129t-31.5 -101.5t-43 -75.5t-47.5 -54.5t-43.5 -34.5t-31.5 -20l-12 -5l-70 115q5 3 13.5 8.5t30 23t38.5 36.5t30.5 47.5t14.5 56.5q-63 0 -106 45.5t-43 111.5zM455 145q0 66 43 113t106 47 q68 0 116 -48.5t48 -135.5q0 -69 -12.5 -129t-32 -101.5t-43.5 -75.5t-47.5 -54.5t-43 -34.5t-31.5 -20l-13 -5l-68 115q5 3 13.5 8.5t30 23t38.5 36.5t30.5 47.5t14.5 56.5q-63 0 -106 45.5t-43 111.5z" />
<glyph unicode="&#x2022;" horiz-adv-x="718" d="M111 594q0 110 72 188t175 78q104 0 177 -78t73 -188t-73 -188t-177 -78q-103 0 -175 78t-72 188z" />
<glyph unicode="&#x2026;" horiz-adv-x="1112" d="M80 125q0 57 39 98t94 41q53 0 91 -41t38 -98t-38 -97t-91 -40q-55 0 -94 40t-39 97zM420 125q0 57 38 98t91 41q55 0 93 -41t38 -98t-38 -97t-93 -40q-53 0 -91 40t-38 97zM772 125q0 57 38 98t91 41q54 0 91.5 -41t37.5 -98t-37.5 -97t-91.5 -40q-53 0 -91 40t-38 97z " />
<glyph unicode="&#x202f;" horiz-adv-x="396" />
<glyph unicode="&#x2039;" horiz-adv-x="573" d="M82 434v215l291 285l129 -148l-221 -245l221 -244l-129 -150z" />
<glyph unicode="&#x203a;" horiz-adv-x="573" d="M72 297l221 244l-221 245l129 148l291 -285v-215l-291 -287z" />
<glyph unicode="&#x205f;" horiz-adv-x="495" />
<glyph unicode="&#x20ac;" horiz-adv-x="1200" d="M61 489v170h109v78h-109v166h123q19 112 60 203.5t105 160t155 106.5t203 38q301 0 419 -231l-221 -160q-58 131 -194 131q-69 0 -132.5 -59t-91.5 -189h314v-166h-332v-78h332v-170h-301q20 -60 52 -105.5t67 -68.5t65.5 -34t56.5 -11q39 0 77 14t65 34.5t48 41t31 34.5 l11 14l172 -181q-9 -16 -25 -37.5t-52 -54.5t-79.5 -59.5t-110 -46t-139.5 -19.5q-227 0 -365.5 129t-183.5 350h-129z" />
<glyph unicode="&#x2122;" horiz-adv-x="1519" d="M88 1303v161h576v-161h-179v-617h-202v617h-195zM709 686v778h178l168 -456l172 456h176v-778h-166v438l-127 -340h-111l-122 340v-438h-168z" />
<glyph unicode="&#x25fc;" horiz-adv-x="983" d="M0 0v983h983v-983h-983z" />
</font>
</defs>
</svg>
