<?xml version="1.0" standalone="no"?>
<!DOCTYPE svg PUBLIC "-//W3C//DTD SVG 1.1//EN" "http://www.w3.org/Graphics/SVG/1.1/DTD/svg11.dtd" >
<svg xmlns="http://www.w3.org/2000/svg">
<metadata></metadata>
<defs>
<font id="andes_condensed_lightlight" horiz-adv-x="927" >
<font-face units-per-em="2048" ascent="1536" descent="-512" />
<missing-glyph horiz-adv-x="411" />
<glyph unicode="&#xfb01;" horiz-adv-x="989" d="M55 883v104h119v174q0 151 65.5 240.5t192.5 89.5q40 0 76 -10t59 -24.5t40 -29t25 -24.5l7 -10l-47 -95q-2 4 -6.5 10.5t-18 20.5t-29.5 25t-41.5 19.5t-54.5 8.5q-66 0 -103.5 -59.5t-37.5 -165.5v-170h545v-786q0 -54 15 -78.5t54 -24.5v-96q-20 -6 -57 -6 q-141 0 -141 192v695h-416v-883h-127v883h-119zM690 1296q0 40 26.5 68.5t65.5 28.5q38 0 65 -28.5t27 -68.5q0 -41 -26.5 -68.5t-65.5 -27.5q-40 0 -66 27.5t-26 68.5z" />
<glyph unicode="&#xfb02;" horiz-adv-x="1030" d="M55 883v104h119v174q0 151 68.5 240.5t201.5 89.5q41 0 77.5 -10t59.5 -24.5t40 -29t25 -24.5l7 -10l-47 -95q-2 3 -5.5 9t-16.5 20.5t-28.5 25.5t-42 20t-56.5 9q-72 0 -114 -60t-42 -165v-170h303v-104h-303v-883h-127v883h-119zM756 188v1299h129v-1286 q0 -53 15.5 -78t55.5 -25v-96q-22 -6 -59 -6q-141 0 -141 192z" />
<glyph unicode="&#xfb03;" horiz-adv-x="1492" d="M55 883v104h119v174q0 151 68.5 240.5t201.5 89.5q41 0 77.5 -10t59.5 -24.5t40 -29t25 -24.5l7 -10l-47 -95q-2 3 -5.5 9t-16.5 20.5t-28.5 25.5t-42 20t-56.5 9q-72 0 -114 -60t-42 -165v-170h379v174q0 152 65 241t191 89q40 0 76.5 -10t59.5 -24.5t40.5 -29 t25.5 -24.5l7 -10l-49 -95q-2 3 -5.5 9t-16.5 20.5t-29 25.5t-42 20t-55 9q-66 0 -103.5 -59.5t-37.5 -165.5v-170h543v-786q0 -54 15 -78.5t54 -24.5v-96q-18 -6 -57 -6q-141 0 -141 192v695h-414v-883h-127v883h-379v-883h-127v883h-119zM1192 1296q0 40 27.5 68.5 t66.5 28.5q38 0 66 -28.5t28 -68.5q0 -41 -27.5 -68.5t-66.5 -27.5q-40 0 -67 27.5t-27 68.5z" />
<glyph unicode="&#xfb04;" horiz-adv-x="1536" d="M55 883v104h119v174q0 151 68.5 240.5t201.5 89.5q41 0 77.5 -10t59.5 -24.5t40 -29t25 -24.5l7 -10l-47 -95q-2 3 -5.5 9t-16.5 20.5t-28.5 25.5t-42 20t-56.5 9q-72 0 -114 -60t-42 -165v-170h379v174q0 151 68.5 240.5t201.5 89.5q40 0 76 -10t59 -24.5t40 -29 t25 -24.5l7 -10l-47 -95l-2 4q-2 3 -5.5 7.5t-9 11t-12.5 13.5t-15.5 14t-20 13t-24 10.5t-28 7.5t-32.5 3q-72 0 -113 -59.5t-41 -165.5v-170h303v-104h-303v-883h-127v883h-379v-883h-127v883h-119zM1260 188v1299h131v-1286q0 -53 15.5 -78t53.5 -25v-96q-22 -6 -59 -6 q-141 0 -141 192z" />
<glyph horiz-adv-x="0" />
<glyph horiz-adv-x="682" />
<glyph unicode=" "  horiz-adv-x="411" />
<glyph unicode="&#x09;" horiz-adv-x="411" />
<glyph unicode="&#xa0;" horiz-adv-x="411" />
<glyph unicode="!" horiz-adv-x="423" d="M125 72q0 36 26 63t60 27q35 0 60.5 -26.5t25.5 -63.5q0 -38 -25.5 -65t-60.5 -27q-34 0 -60 27t-26 65zM143 1509h144l-19 -1122h-112z" />
<glyph unicode="&#x22;" horiz-adv-x="501" d="M111 1503h94l-4 -315h-86zM297 1503h94l-4 -315h-86z" />
<glyph unicode="#" horiz-adv-x="1064" d="M78 305l18 80h193l55 307h-182l16 82h182l41 232h97l-41 -232h237l45 232h95l-41 -232h196l-18 -82h-195l-55 -307h184l-18 -80h-185l-38 -217h-95l39 217h-239l-39 -217h-94l34 217h-192zM383 385h242l55 307h-240z" />
<glyph unicode="$" horiz-adv-x="1019" d="M61 285l84 77q5 -9 14 -25t42.5 -55.5t73 -70t106.5 -55.5t141 -25q136 0 213.5 66.5t77.5 181.5q0 69 -24.5 117.5t-66 76t-95.5 46t-114 31.5t-119.5 27.5t-113.5 39.5t-95.5 62t-66 101t-24.5 150q0 157 100.5 264.5t278.5 116.5v229h113v-231q56 -7 105 -24.5 t83 -40.5t61.5 -49t44.5 -50.5t28 -44.5t16 -32l4 -13l-99 -68q-1 4 -4 11.5t-15.5 29.5t-27 41.5t-41 44t-57.5 41.5t-75.5 29t-94.5 12q-135 0 -211 -76.5t-76 -187.5q0 -66 24.5 -113.5t66.5 -74.5t96 -45t114 -31.5t119.5 -29t113.5 -41.5t96 -63.5t66.5 -101.5 t24.5 -151q0 -94 -39 -172t-122.5 -130.5t-200.5 -60.5v-247h-113v245q-88 6 -162.5 36.5t-118.5 68.5t-75.5 75.5t-43.5 63.5z" />
<glyph unicode="%" horiz-adv-x="1001" d="M63 1153q0 140 48.5 212.5t136.5 72.5q93 0 142.5 -72t49.5 -213t-50 -213t-142 -72q-88 0 -136.5 72.5t-48.5 212.5zM147 1153q0 -209 101 -209q104 0 104 209q0 205 -104 205q-101 0 -101 -205zM272 0l365 1434h96l-362 -1434h-99zM561 281q0 140 49 212t138 72 q190 0 190 -284q0 -141 -49 -213t-141 -72q-89 0 -138 72.5t-49 212.5zM645 281q0 -209 103 -209q104 0 104 209q0 204 -104 204q-103 0 -103 -204z" />
<glyph unicode="&#x26;" horiz-adv-x="1181" d="M109 471q0 89 21.5 165.5t49 121t63 80.5t52 46.5t27.5 16.5q-74 106 -74 248q0 148 90 250t248 102q88 0 156.5 -31t107.5 -82t58.5 -109.5t19.5 -119.5q0 -55 -7 -103.5t-15 -69.5l-7 -21h-129q25 78 25 176q0 45 -10.5 85.5t-33 77t-63.5 58.5t-96 22 q-97 0 -153 -67.5t-56 -177.5q0 -62 26.5 -125t68.5 -117.5t98 -124t111 -136.5t112.5 -163.5t97.5 -198.5q70 110 70 392h135q0 -190 -42 -325.5t-112 -199.5q41 -143 41 -336h-127q-3 154 -26 254q-4 -4 -11 -10t-32 -22t-54.5 -28t-78 -22t-101.5 -10q-202 0 -326 139 t-124 365zM242 485q0 -184 96 -293.5t235 -109.5q40 0 78 9.5t63 22.5t45 26t29 22l9 10q-36 107 -94.5 210t-110 168.5t-112 142t-87.5 120.5l-6 -5q-6 -4 -14.5 -10.5t-20.5 -17.5t-24 -26.5t-24.5 -34t-23.5 -43.5t-19.5 -53t-13.5 -63.5t-5 -74.5z" />
<glyph unicode="'" horiz-adv-x="315" d="M111 1503h94l-4 -315h-86z" />
<glyph unicode="(" horiz-adv-x="499" d="M88 494q0 181 26 349.5t63.5 280.5t75 198t63.5 126l26 39l111 -55q-10 -13 -26 -38.5t-57.5 -114t-73 -189t-57.5 -262.5t-26 -334t24.5 -332.5t60 -265.5t71 -185.5t59.5 -117.5l25 -37l-111 -56q-10 14 -27.5 41.5t-61 122.5t-77 201.5t-61 277t-27.5 351.5z" />
<glyph unicode=")" horiz-adv-x="499" d="M47 -444q10 13 26 38.5t57 114t72.5 189t57 262.5t25.5 334t-24.5 332.5t-59.5 265.5t-70 185.5t-59 117.5l-25 37l107 55q10 -14 27.5 -41.5t62 -122t78.5 -201t62 -277t28 -351.5t-26.5 -349.5t-64.5 -280.5t-76 -198t-65 -126l-26 -40z" />
<glyph unicode="*" horiz-adv-x="741" d="M88 1251l10 76l226 -53l-95 246l68 32l80 -260l143 234l60 -49l-160 -217l235 -35l-10 -76l-233 51l100 -250l-68 -32l-86 258l-137 -220l-59 48l157 213z" />
<glyph unicode="+" horiz-adv-x="790" d="M90 518v98h252v322h98v-322h260v-98h-260v-334h-98v334h-252z" />
<glyph unicode="," horiz-adv-x="401" d="M106 82q0 40 27 68t64 28q41 0 68.5 -31.5t27.5 -85.5q0 -60 -14.5 -109t-34.5 -76t-40.5 -45t-35.5 -24l-14 -6l-39 68q3 2 8.5 4.5t20 13.5t25 23.5t19.5 33.5t9 44q-37 0 -64 27.5t-27 66.5z" />
<glyph unicode="-" horiz-adv-x="696" d="M121 510v100h454v-100h-454z" />
<glyph unicode="." horiz-adv-x="393" d="M106 82q0 40 27 68t64 28t62.5 -28t25.5 -68q0 -38 -25.5 -66t-62.5 -28t-64 28t-27 66z" />
<glyph unicode="/" horiz-adv-x="702" d="M45 -461l487 1907h125l-483 -1907h-129z" />
<glyph unicode="0" horiz-adv-x="1079" d="M104 715q0 357 108 544t325 187q220 0 330 -188t110 -543t-109.5 -541t-330.5 -186q-433 0 -433 727zM240 715q0 -309 72.5 -460t224.5 -151q157 0 231 151t74 460t-74 461.5t-231 152.5q-152 0 -224.5 -152.5t-72.5 -461.5z" />
<glyph unicode="1" horiz-adv-x="708" d="M51 1059q95 0 179.5 57t134 142.5t57.5 175.5h133v-1434h-133v1182q-31 -89 -129.5 -170.5t-220.5 -81.5z" />
<glyph unicode="2" horiz-adv-x="970" d="M98 0v115q0 104 35 185.5t90.5 135t123 98.5t135.5 88.5t123.5 92t90.5 121.5t35 165q0 152 -66 240t-180 88q-60 0 -108 -26t-74 -61.5t-43.5 -77.5t-23 -70t-5.5 -43l-131 36q0 17 7 46.5t22.5 71.5t45 83t69.5 77t102.5 58.5t136.5 22.5q177 0 279 -123t102 -322 q0 -82 -21 -152t-57 -120.5t-82.5 -94.5t-97.5 -79t-102 -68t-97.5 -67t-82.5 -71.5t-57 -86t-21 -104.5v-43h626v-115h-774z" />
<glyph unicode="3" horiz-adv-x="1001" d="M74 254l96 65q3 -9 9.5 -23.5t32.5 -51.5t57.5 -65.5t86.5 -51.5t119 -23q138 0 215.5 74t77.5 215q0 71 -26 128t-67 89.5t-85.5 49t-85.5 16.5h-111v104h111q85 0 158 74.5t73 200.5q0 118 -69.5 196t-190.5 78q-48 0 -89.5 -18t-67 -43t-43.5 -54t-25.5 -49.5 t-7.5 -29.5l-127 47q1 6 4 15.5t15.5 36.5t29 52t47 55.5t67.5 52.5t92 37t119 15q94 0 169 -32.5t119.5 -87.5t67.5 -121t23 -138q0 -71 -20 -131t-48 -94.5t-60.5 -59.5t-53 -34t-31.5 -11q14 -4 21 -6.5t36.5 -16t49.5 -28.5t49 -44.5t47 -63.5t31.5 -85.5t13.5 -111.5 q0 -191 -112.5 -292t-309.5 -101q-70 0 -130.5 14.5t-101 38t-73 52t-51 57t-31 52t-16.5 38.5z" />
<glyph unicode="4" horiz-adv-x="978" d="M59 338v115l416 981h139l-415 -981h415v356h131v-356h175v-115h-175v-338h-131v338h-555z" />
<glyph unicode="5" horiz-adv-x="997" d="M92 217l107 76l5.5 -11t16.5 -26.5t28 -37.5t40.5 -39.5t53 -37t66.5 -26.5t80 -11q138 0 213.5 93.5t75.5 263.5q0 142 -77 238t-205 96q-42 0 -80.5 -10t-64 -24.5t-45 -29.5t-28.5 -25l-8 -10h-131v738h721v-115h-590v-483q3 3 9.5 8t29.5 18t49 23t69 18t89 8 q174 0 285.5 -128.5t111.5 -321.5q0 -96 -24.5 -178.5t-73.5 -149.5t-132.5 -106t-193.5 -39q-80 0 -150.5 23.5t-114 57.5t-75 67.5t-44.5 57.5z" />
<glyph unicode="6" horiz-adv-x="1038" d="M102 664q0 782 467 782q204 0 328 -172l-100 -82q-83 139 -228 139q-322 0 -333 -624q5 8 14 20.5t41 44.5t67 56.5t89.5 44.5t111.5 20q82 0 153 -28t126 -81.5t86.5 -139.5t31.5 -193q0 -218 -107.5 -340.5t-299.5 -122.5q-212 0 -329.5 169t-117.5 507zM240 580 q9 -230 93.5 -353t215.5 -123q128 0 200 92t72 255q0 158 -72.5 241.5t-203.5 83.5q-64 0 -124 -30t-93 -64t-60 -68z" />
<glyph unicode="7" horiz-adv-x="876" d="M55 1319v115h774v-72q0 -83 -25 -169t-65 -164.5t-88 -162.5t-96 -178t-88 -194.5t-65 -228.5t-25 -265h-131q0 158 33 309t82 261.5t107 220.5t107 193t82 172t33 163h-635z" />
<glyph unicode="8" horiz-adv-x="1046" d="M94 393q0 72 21 135.5t45.5 100t63 70t52.5 42t36 19.5q2 2 3 2q-7 2 -19.5 8.5t-39 30.5t-48 56t-38 90.5t-16.5 129.5q0 164 99.5 266.5t268.5 102.5q96 0 171 -33t119 -88.5t66.5 -122t22.5 -139.5t-18 -134.5t-43.5 -98t-51 -62t-43.5 -35.5l-18 -10 q225 -96 225 -352q0 -179 -110.5 -281t-311.5 -102q-126 0 -222 42t-155 135t-59 228zM229 412q0 -145 82 -227.5t219 -82.5t212 76t75 217q0 94 -51 164t-148 100l-196 58q-8 -3 -21 -8.5t-46 -30t-58.5 -55.5t-46.5 -87.5t-21 -123.5zM289 1065q0 -196 151 -252l174 -53 q6 2 16.5 7t36.5 26.5t46 50t36.5 82t16.5 118.5q0 119 -64.5 202t-179.5 83q-107 0 -170 -76t-63 -188z" />
<glyph unicode="9" horiz-adv-x="1036" d="M84 981q0 214 107 339.5t296 125.5q214 0 330.5 -176.5t116.5 -513.5q0 -768 -465 -768q-195 0 -330 168l101 84q5 -10 14.5 -23.5t30.5 -35t45 -38t61.5 -29t77.5 -12.5q320 0 332 607q-5 -7 -14.5 -19t-41 -42t-66.5 -52.5t-90 -41.5t-112 -19q-171 0 -282 115.5 t-111 330.5zM219 981q0 -161 71.5 -245.5t201.5 -84.5q53 0 102 18t83.5 44.5t59.5 52.5t41.5 47.5t18.5 22.5q-7 231 -91 362t-217 131q-124 0 -197 -93t-73 -255z" />
<glyph unicode=":" horiz-adv-x="419" d="M119 82q0 40 26.5 68t63.5 28t62.5 -28t25.5 -68q0 -38 -25.5 -66t-62.5 -28t-63.5 28t-26.5 66zM119 938q0 40 26.5 68t63.5 28t62.5 -28t25.5 -68q0 -38 -25.5 -66t-62.5 -28t-63.5 28t-26.5 66z" />
<glyph unicode=";" horiz-adv-x="438" d="M125 82q0 40 26.5 68t63.5 28q41 0 68.5 -31.5t27.5 -85.5q0 -60 -14.5 -109t-34.5 -76t-40.5 -45t-35.5 -24l-14 -6l-39 68q3 2 8.5 4.5t20 13.5t25 23.5t19.5 33.5t9 44q-37 0 -63.5 27.5t-26.5 66.5zM125 938q0 40 26.5 68t63.5 28t62.5 -28t25.5 -68q0 -38 -25.5 -66 t-62.5 -28t-63.5 28t-26.5 66z" />
<glyph unicode="&#x3c;" horiz-adv-x="720" d="M72 508v106l540 408v-117l-428 -344l428 -344v-117z" />
<glyph unicode="=" horiz-adv-x="892" d="M125 309v99h641v-99h-641zM125 700v101h641v-101h-641z" />
<glyph unicode="&#x3e;" horiz-adv-x="720" d="M109 100v117l428 344l-428 344v117l540 -408v-106z" />
<glyph unicode="?" horiz-adv-x="788" d="M61 1130q0 166 93.5 268.5t236.5 102.5q84 0 149.5 -30.5t104.5 -83t58.5 -117t19.5 -137.5q0 -77 -17.5 -139t-45 -104t-61 -80t-66.5 -78t-60.5 -86t-45 -115.5t-17.5 -157.5h-121q0 99 16.5 177t43 128t58 91t63.5 76t58.5 72t43 89.5t16.5 119.5q0 112 -52 185 t-147 73q-94 0 -152.5 -79t-58.5 -203zM260 70q0 38 24.5 65t59.5 27t59.5 -27t24.5 -65q0 -37 -24.5 -63.5t-59.5 -26.5t-59.5 26.5t-24.5 63.5z" />
<glyph unicode="@" horiz-adv-x="1437" d="M92 369q0 271 96.5 484t265 330t377.5 117q237 0 388 -166t151 -423q0 -130 -35 -247.5t-92 -197t-128.5 -126t-143.5 -46.5q-110 0 -113 105q0 48 14 88q-102 -187 -245 -187q-97 0 -159 71.5t-62 227.5q0 139 51 262.5t140.5 199t193.5 75.5q39 0 72 -11.5t52 -27 t33 -34t19 -29t6 -15.5l22 94h101q-148 -628 -150 -677q-3 -60 45 -60q44 0 92 38.5t89.5 105.5t68.5 170t27 219q0 216 -119 352.5t-322 136.5q-180 0 -324 -110t-223 -298t-79 -417q0 -138 35 -248t96.5 -179t142 -105t174.5 -36q68 0 131.5 11.5t111.5 29.5t90.5 40 t71 44.5t49.5 40.5t31 29l9 12l49 -80q-7 -9 -21.5 -24.5t-65 -54.5t-109 -69t-153 -54.5t-196.5 -24.5q-117 0 -216.5 42.5t-175.5 123t-119.5 209t-43.5 289.5zM510 418q0 -110 38 -163.5t105 -53.5q48 0 90.5 27t71 68t46 77t26.5 67l61 297q-2 4 -5 11.5t-16 26 t-29.5 32.5t-46.5 25.5t-65 11.5q-76 0 -140 -60.5t-100 -158.5t-36 -207z" />
<glyph unicode="A" horiz-adv-x="1110" d="M43 0l446 1434h132l448 -1434h-137l-127 424h-500l-127 -424h-135zM344 535h422l-211 716z" />
<glyph unicode="B" horiz-adv-x="1079" d="M154 0v1434h391q183 0 280 -91t97 -274q0 -77 -14.5 -137t-35.5 -93.5t-48.5 -55t-48.5 -28.5t-40 -7v-5q27 0 58 -9t69 -34t68 -63t50.5 -103.5t20.5 -148.5q0 -106 -35.5 -183t-97.5 -120t-135 -62.5t-160 -19.5h-419zM285 115h284q297 0 297 284q0 149 -76.5 218 t-205.5 69h-299v-571zM285 788h286q213 0 213 267q0 125 -62.5 194.5t-193.5 69.5h-243v-531z" />
<glyph unicode="C" horiz-adv-x="1093" d="M94 713q0 151 24.5 272.5t68.5 207t107 142.5t139 84t165 27q79 0 144.5 -22.5t107.5 -57t74.5 -80t49.5 -88t27.5 -84t13.5 -64.5t3 -34l-121 -23q0 7 -1.5 19t-8.5 47t-18.5 66.5t-34.5 70.5t-53 67t-77.5 47t-105.5 19q-61 0 -114.5 -20.5t-101 -67.5t-81 -117 t-53 -175t-19.5 -236q0 -134 22.5 -240t59.5 -174t89 -113t108 -63.5t119 -18.5q59 0 113.5 22t90.5 54t63.5 63.5t40.5 53.5l13 22l80 -88q-5 -10 -15 -26.5t-47 -58t-80 -73.5t-114.5 -58.5t-150.5 -26.5q-115 0 -209 41.5t-166 126t-112 226.5t-40 331z" />
<glyph unicode="D" horiz-adv-x="1136" d="M154 0v1434h307q123 0 225.5 -42.5t183 -129t125.5 -229.5t45 -331q0 -178 -38.5 -313.5t-108 -220t-163 -126.5t-208.5 -42h-368zM285 115h235q180 0 283.5 148t103.5 439q0 311 -119 464t-327 153h-176v-1204z" />
<glyph unicode="E" horiz-adv-x="948" d="M154 0v1434h708v-115h-577v-549h487v-113h-487v-542h577v-115h-708z" />
<glyph unicode="F" horiz-adv-x="915" d="M154 0v1434h708v-115h-577v-553h487v-113h-487v-653h-131z" />
<glyph unicode="G" horiz-adv-x="1122" d="M94 713q0 151 24.5 272.5t68.5 207t107 142.5t139 84t165 27q77 0 142 -22.5t107 -57t75 -79.5t50.5 -87t28.5 -83t14 -63.5t3 -31.5l-123 -23q0 7 -1 19t-8 46t-18 65.5t-33.5 69.5t-52.5 65t-78 46t-106 19q-61 0 -114.5 -20.5t-101 -67.5t-81 -117t-53 -175 t-19.5 -236q0 -133 21.5 -239t57.5 -174t85 -113t100.5 -64t108.5 -19q151 0 225 109t74 309v82h-309v105h436v-187q0 -119 -26 -215.5t-77.5 -168.5t-134.5 -111t-192 -39q-106 0 -195 41.5t-159.5 126t-110 227t-39.5 330.5z" />
<glyph unicode="H" horiz-adv-x="1169" d="M154 0v1434h131v-672h600v672h133v-1434h-133v647h-600v-647h-131z" />
<glyph unicode="I" horiz-adv-x="436" d="M154 0v1434h131v-1434h-131z" />
<glyph unicode="J" horiz-adv-x="786" d="M8 141l84 92q3 -5 9 -14t26.5 -31.5t43 -40t58 -31.5t72.5 -14q102 0 156.5 72.5t54.5 220.5v1039h131v-1028q0 -209 -94.5 -313.5t-247.5 -104.5q-55 0 -105 16t-83 38t-57.5 44.5t-35.5 38.5z" />
<glyph unicode="K" horiz-adv-x="1142" d="M154 0v1434h131v-684h217q50 0 98 22.5t93 75t78.5 130t54 195t20.5 261.5h131q0 -165 -25 -297.5t-68 -218.5t-91.5 -140t-104.5 -82q51 -25 94.5 -96.5t74 -154t61 -161.5t71.5 -131.5t90 -52.5h47v-98q-45 -6 -84 -6q-62 0 -111.5 35.5t-82 92t-60.5 124.5t-54 136.5 t-55 125t-71.5 92t-95.5 35.5h-227v-637h-131z" />
<glyph unicode="L" horiz-adv-x="905" d="M154 0v1434h131v-1319h598v-115h-729z" />
<glyph unicode="M" horiz-adv-x="1404" d="M154 0v1434h145l406 -1051l401 1051h145v-1434h-133v1182l-368 -981h-97l-368 981v-1182h-131z" />
<glyph unicode="N" horiz-adv-x="1165" d="M154 0v1434h149l578 -1215v1215h133v-1434h-152l-577 1196v-1196h-131z" />
<glyph unicode="O" horiz-adv-x="1206" d="M94 715q0 153 27.5 277t74.5 207.5t112.5 140t139 81.5t156.5 25q103 0 192 -41.5t161 -126t113.5 -229t41.5 -334.5q0 -153 -27.5 -276.5t-74.5 -206.5t-112.5 -138.5t-138.5 -80.5t-155 -25t-155.5 25t-139 80.5t-113 138.5t-75 206.5t-27.5 276.5zM231 715 q0 -131 20 -235.5t54.5 -174t83 -115.5t102 -66t113.5 -20t113 20t101.5 66t83 115.5t55 174t20.5 235.5q0 164 -30.5 286.5t-84 192t-118 102.5t-140.5 33q-77 0 -141.5 -33t-117.5 -102.5t-83.5 -191.5t-30.5 -287z" />
<glyph unicode="P" horiz-adv-x="1013" d="M154 0v1434h372q203 0 314.5 -114t111.5 -335q0 -217 -109.5 -326.5t-299.5 -109.5h-258v-549h-131zM285 662h237q147 0 221 83t74 240t-74.5 245.5t-224.5 88.5h-233v-657z" />
<glyph unicode="Q" horiz-adv-x="1206" d="M94 715q0 153 27.5 277t74.5 207.5t112.5 140t139 81.5t156.5 25q103 0 192 -41.5t161 -126t113.5 -229t41.5 -334.5q0 -181 -36.5 -319.5t-101 -222.5t-144.5 -129t-175 -54q35 -158 118.5 -239t201.5 -81v-119q-94 0 -171 34t-130 95.5t-87.5 139.5t-51.5 172 q-73 8 -136.5 38t-120.5 87.5t-97 139t-63.5 198.5t-23.5 260zM231 715q0 -131 20 -235.5t54.5 -174t83 -115.5t102 -66t113.5 -20t113 20t101.5 66t83 115.5t55 174t20.5 235.5q0 164 -30.5 286.5t-84 192t-118 102.5t-140.5 33q-77 0 -141.5 -33t-117.5 -102.5 t-83.5 -191.5t-30.5 -287z" />
<glyph unicode="R" horiz-adv-x="1144" d="M154 0v1434h387q405 0 405 -418q0 -150 -66.5 -245t-170.5 -126q44 -23 82.5 -89t67 -141t59 -147.5t71.5 -120t90 -47.5h47v-98q-45 -6 -82 -6q-63 0 -113 33.5t-82.5 87.5t-60.5 119t-54 130t-55 119t-72 87.5t-97 33.5h-225v-606h-131zM285 713h237q128 0 209.5 78.5 t81.5 220.5q0 140 -74 223.5t-207 83.5h-247v-606z" />
<glyph unicode="S" horiz-adv-x="1040" d="M68 262l84 78q2 -5 6.5 -13.5t21.5 -33t36.5 -47t52.5 -49.5t69.5 -46.5t87.5 -33t106 -13.5q136 0 215.5 73t79.5 198q0 72 -25 123.5t-67 80.5t-96.5 48.5t-114.5 33.5t-120.5 29t-115 41.5t-96.5 65t-67 105.5t-25 157q0 80 27.5 149.5t78.5 123t130.5 84t177.5 30.5 q71 0 133 -14.5t104 -37.5t76.5 -50.5t54.5 -55t34 -50.5t19 -38l5 -14l-98 -70q-1 4 -4.5 12t-15.5 30t-27 42t-42 44.5t-58 42.5t-76.5 30t-96.5 12q-136 0 -211 -77.5t-75 -190.5q0 -70 25 -119.5t67 -77.5t96.5 -47t115 -33.5t120.5 -30t114.5 -43t96.5 -67t67 -106.5 t25 -158q0 -168 -111.5 -279.5t-319.5 -111.5q-72 0 -137 15t-110.5 39.5t-83.5 53.5t-62 58t-40.5 53.5t-23.5 39.5z" />
<glyph unicode="T" horiz-adv-x="1032" d="M27 1319v115h979v-115h-422v-1319h-131v1319h-426z" />
<glyph unicode="U" horiz-adv-x="1159" d="M139 586v848h133v-856q0 -248 79 -361t229 -113t227.5 112.5t77.5 361.5v856h131v-848q0 -134 -21.5 -237.5t-59.5 -171t-94 -110.5t-119.5 -61t-141.5 -18q-441 0 -441 598z" />
<glyph unicode="V" horiz-adv-x="1101" d="M43 1434h156l352 -1270l358 1270h152l-445 -1434h-131z" />
<glyph unicode="W" horiz-adv-x="1681" d="M57 1434h158l262 -1268l301 1268h125l299 -1268l264 1268h158l-348 -1434h-148l-288 1223l-289 -1223h-145z" />
<glyph unicode="X" horiz-adv-x="1042" d="M33 0l399 715l-399 719h157l332 -625l332 625h156l-400 -717l400 -717h-150l-338 629l-338 -629h-151z" />
<glyph unicode="Y" horiz-adv-x="1079" d="M41 1434h158l342 -686l340 686h157l-434 -805v-629h-131v629z" />
<glyph unicode="Z" horiz-adv-x="1021" d="M76 0v115l710 1204h-710v115h872v-115l-708 -1204h708v-115h-872z" />
<glyph unicode="[" horiz-adv-x="534" d="M141 -500v1987h328v-113h-201v-1761h201v-113h-328z" />
<glyph unicode="\" horiz-adv-x="702" d="M45 1446h127l485 -1907h-127z" />
<glyph unicode="]" horiz-adv-x="534" d="M63 -387h201v1761h-201v113h328v-1987h-328v113z" />
<glyph unicode="^" horiz-adv-x="686" d="M102 1071l168 399h146l166 -399h-117l-123 297l-123 -297h-117z" />
<glyph unicode="_" horiz-adv-x="714" d="M49 0h617v-98h-617v98z" />
<glyph unicode="`" horiz-adv-x="452" d="M72 1487h157l144 -332h-115z" />
<glyph unicode="a" horiz-adv-x="872" d="M72 240q0 260 321 260h221v159q0 230 -190 230q-91 0 -139.5 -51.5t-48.5 -137.5q0 -25 4 -47t8 -31l4 -10h-117q-18 33 -18 111q0 121 82 198.5t227 77.5q315 0 315 -344v-448q0 -56 15.5 -83.5t54.5 -27.5v-92q-18 -8 -57 -8q-58 0 -93.5 38t-35.5 113v54 q-12 -36 -33.5 -69.5t-55.5 -67.5t-86.5 -55t-115.5 -21q-124 0 -193 66.5t-69 185.5zM203 250q0 -75 44.5 -117.5t119.5 -42.5q39 0 74 14.5t59.5 38t44.5 52t32.5 57t21 52t11.5 38.5l4 14v50h-221q-92 0 -141 -40.5t-49 -115.5z" />
<glyph unicode="b" d="M127 0v1487h127v-674q1 6 8.5 23.5t28 46.5t47.5 54t73 43.5t99 18.5q54 0 102 -17t91 -55.5t74 -95.5t49 -141t18 -188q0 -134 -27.5 -236t-75.5 -161t-107.5 -88t-129.5 -29q-52 0 -96.5 16.5t-73.5 42t-48.5 49t-32 44.5t-13.5 22v-162h-113zM254 322q0 -8 5.5 -30.5 t22 -56.5t40 -64.5t65 -52.5t92.5 -22q107 0 172.5 103t65.5 301q0 197 -68 294t-170 97q-50 0 -92 -24.5t-65.5 -59.5t-40 -70t-21.5 -59l-6 -25v-331z" />
<glyph unicode="c" horiz-adv-x="837" d="M86 494q0 256 96 380.5t271 124.5q76 0 134.5 -24.5t92.5 -67t51 -94.5t17 -111q0 -26 -3 -50.5t-5 -35.5l-3 -12h-116q8 39 8 78q0 38 -8.5 72.5t-27 66.5t-54.5 51t-86 19q-113 0 -177.5 -96.5t-64.5 -298.5q0 -92 17 -164.5t43 -116t61.5 -71t68.5 -38t68 -10.5 q43 0 81.5 15t63 36t42.5 42t26 36l8 15l72 -74q-3 -7 -10 -19t-33.5 -43t-58.5 -54.5t-87.5 -42.5t-119.5 -19q-73 0 -136 26.5t-116.5 83.5t-84 158t-30.5 238z" />
<glyph unicode="d" horiz-adv-x="946" d="M86 489q0 132 28 233t76.5 160t108.5 88t131 29q164 0 244 -159v647h127v-1280q0 -57 16.5 -83t56.5 -26v-96q-22 -6 -57 -6q-56 0 -92.5 37.5t-36.5 109.5v45l-10 -20q-9 -20 -20 -39.5t-34 -46t-49.5 -46.5t-68.5 -34t-90 -14q-51 0 -98 17.5t-89.5 57t-74 97t-50 142 t-18.5 187.5zM211 489q0 -190 67.5 -291.5t167.5 -101.5q54 0 97.5 25.5t66.5 60.5t38.5 74t20.5 61.5t5 28.5v334q0 8 -6.5 29t-24 53t-42 60t-65.5 48.5t-90 20.5q-102 0 -168.5 -104t-66.5 -298z" />
<glyph unicode="e" horiz-adv-x="845" d="M86 494q0 256 93.5 380.5t266.5 124.5q84 0 145.5 -33.5t97.5 -95t52.5 -139t16.5 -174.5v-55h-545v-25q2 -88 19.5 -157t43.5 -110t60.5 -68t67 -36.5t65.5 -9.5q43 0 81.5 15t63 36t42.5 42t26 36l8 15l72 -74q-3 -7 -10 -19t-33.5 -43t-58.5 -54.5t-87.5 -42.5 t-119.5 -19q-73 0 -136 26.5t-116.5 83.5t-84 158t-30.5 238zM217 594h420q0 133 -48 215t-149 82q-93 0 -152 -73t-71 -224z" />
<glyph unicode="f" horiz-adv-x="643" d="M55 883v104h119v174q0 151 68.5 240.5t201.5 89.5q41 0 77.5 -10t59.5 -24.5t40 -29t25 -24.5l7 -10l-47 -95q-2 4 -6.5 10.5t-17.5 20.5t-29 25t-41.5 19.5t-54.5 8.5q-72 0 -114 -60t-42 -165v-170h303v-104h-303v-883h-127v883h-119z" />
<glyph unicode="g" horiz-adv-x="884" d="M55 -205q0 50 14 93t29 66.5t42 46t36 27.5t29 15q-1 1 -11 5.5t-16.5 8t-18 11.5t-19.5 15.5t-18 20t-16 26t-10 32t-4 39.5q0 65 33.5 104.5t87.5 54.5q-13 12 -26.5 28.5t-35.5 50.5t-35.5 85t-13.5 109q0 164 98.5 265t241.5 101q26 0 52 -5.5t41.5 -11.5t28.5 -12.5 t14 -6.5q40 0 70.5 7.5t57 25t40.5 51.5t14 83l106 -16q0 -59 -18.5 -102t-48.5 -65t-58 -32.5t-57 -13.5q37 -30 70.5 -98t33.5 -170q0 -168 -100 -268.5t-244 -100.5q-26 0 -53 6t-42 12.5t-33 15.5l-17 9q-37 0 -63.5 -26.5t-26.5 -75.5q0 -61 39 -84t112 -23h162 q142 0 231 -73.5t89 -212.5q0 -144 -102 -231t-294 -87q-190 0 -290.5 79t-100.5 222zM180 -199q0 -96 68 -147t190 -51q143 0 210 52.5t67 158.5q0 91 -51.5 139.5t-143.5 48.5h-147q-87 -2 -140 -54.5t-53 -146.5zM227 633q0 -117 60.5 -187.5t154.5 -70.5q96 0 159 71 t63 187q0 114 -63 186t-157 72q-95 0 -156 -71t-61 -187z" />
<glyph unicode="h" horiz-adv-x="925" d="M127 0v1487h127v-709q27 97 91 159t159 62q148 0 219.5 -106.5t71.5 -278.5v-413q0 -53 15.5 -78t55.5 -25v-96q-20 -6 -57 -6q-141 0 -141 192v437q0 115 -51.5 190.5t-143.5 75.5q-54 0 -98 -31.5t-69 -81t-38.5 -104.5t-13.5 -109v-565h-127z" />
<glyph unicode="i" horiz-adv-x="395" d="M98 1296q0 40 26.5 68.5t65.5 28.5q38 0 66.5 -28.5t28.5 -68.5q0 -41 -28 -68.5t-67 -27.5q-40 0 -66 27.5t-26 68.5zM121 188v799h129v-786q0 -53 16 -78t56 -25v-96q-21 -6 -58 -6q-143 0 -143 192z" />
<glyph unicode="j" horiz-adv-x="380" d="M-166 -453l41 93q37 -37 98 -37q154 0 154 243v1141h127v-1145q0 -348 -266 -348q-46 0 -84.5 13t-53.5 27zM102 1303q0 39 25.5 64.5t62.5 25.5t63 -25.5t26 -64.5q0 -38 -26 -63.5t-63 -25.5t-62.5 25.5t-25.5 63.5z" />
<glyph unicode="k" horiz-adv-x="919" d="M127 0v1487h125v-897h143q119 0 193 106.5t74 290.5h118q0 -72 -11.5 -137t-36 -126t-68.5 -107.5t-105 -69.5q43 -19 75 -61.5t48.5 -91.5t34.5 -102t34 -96t46.5 -70.5t72.5 -27.5h17v-94q-25 -8 -56 -8q-54 0 -93 27.5t-61.5 71.5t-40.5 97.5l-36 107t-41.5 97.5 t-64.5 71.5t-97 27.5h-145v-496h-125z" />
<glyph unicode="l" horiz-adv-x="399" d="M123 188v1299h129v-1286q0 -53 16.5 -78t55.5 -25v-96q-23 -6 -60 -6q-141 0 -141 192z" />
<glyph unicode="m" horiz-adv-x="1474" d="M76 889v96q18 6 59 6q53 0 89 -38.5t36 -108.5v-80q20 102 87 168.5t177 66.5q107 0 173 -63.5t94 -171.5q24 100 90.5 167.5t173.5 67.5q148 0 219.5 -106.5t71.5 -278.5v-413q0 -53 15.5 -78t55.5 -25v-96q-22 -6 -59 -6q-141 0 -141 192v426q0 124 -49 200.5 t-146 76.5q-60 0 -107 -46t-71.5 -112t-30.5 -141v-391q0 -53 16 -78t56 -25v-96q-21 -6 -58 -6q-141 0 -141 192v426q0 124 -48.5 200.5t-145.5 76.5q-54 0 -97.5 -31.5t-69.5 -81t-39.5 -105.5t-13.5 -110v-563h-127v788q0 50 -15 75.5t-54 25.5z" />
<glyph unicode="n" horiz-adv-x="946" d="M76 889v96q18 6 59 6q53 0 89 -38.5t36 -108.5v-80q20 102 87 168.5t177 66.5q148 0 219.5 -106.5t71.5 -278.5v-413q0 -53 16 -78t56 -25v-96q-21 -6 -58 -6q-143 0 -143 192v426q0 124 -48.5 200.5t-145.5 76.5q-54 0 -97.5 -31.5t-69.5 -81t-39.5 -105.5t-13.5 -110 v-563h-127v788q0 50 -15 75.5t-54 25.5z" />
<glyph unicode="o" horiz-adv-x="894" d="M86 494q0 241 97 373t263 132q167 0 266 -132.5t99 -372.5q0 -241 -98.5 -373.5t-266.5 -132.5q-166 0 -263 132.5t-97 373.5zM211 494q0 -194 64.5 -296t170.5 -102q108 0 173 101.5t65 296.5q0 194 -65.5 295.5t-172.5 101.5q-106 0 -170.5 -101.5t-64.5 -295.5z" />
<glyph unicode="p" horiz-adv-x="948" d="M76 889v96q18 6 59 6q54 0 89.5 -37.5t35.5 -107.5v-41q0 1 6 13.5t12.5 24.5t19.5 31t27 35t35.5 33t45.5 29t56.5 20t67.5 8q53 0 101 -17t91 -55.5t74 -95.5t49.5 -141t18.5 -188q0 -134 -27.5 -236t-75.5 -161t-107.5 -88t-129.5 -29q-51 0 -95 16.5t-70 36.5 t-47.5 47.5t-28 40t-11.5 23.5v-652h-127v1288q0 50 -15 75.5t-54 25.5zM272 317q1 -10 7 -30.5t23.5 -55t41.5 -63.5t65.5 -50.5t92.5 -21.5q106 0 170.5 103t64.5 301t-68 294.5t-169 96.5q-50 0 -92 -24.5t-66 -59.5t-41 -70t-23 -59l-6 -25v-336z" />
<glyph unicode="q" d="M86 489q0 258 95 384t243 126q62 0 115 -25t79.5 -54t48.5 -58.5t23 -30.5v156h111v-1487h-127v678l-3 -7q-3 -7 -6.5 -16t-10.5 -22t-15.5 -25.5t-21 -27.5t-26.5 -27.5t-32.5 -24.5t-39 -21t-47 -14t-54.5 -5q-64 0 -122 29.5t-106 87.5t-76 157t-28 227zM211 489 q0 -189 68.5 -291t169.5 -102q53 0 95.5 26t65.5 61t38.5 74t20.5 62t5 29v332q0 8 -6.5 29t-24 53t-42 60t-65.5 48.5t-90 20.5q-104 0 -169.5 -103.5t-65.5 -298.5z" />
<glyph unicode="r" horiz-adv-x="653" d="M76 889v96q16 6 55 6q55 0 91 -36.5t36 -114.5v-78q23 103 88 170t174 67q31 0 58 -5.5t38 -11.5l11 -5l-52 -117q-31 21 -88 21q-68 0 -118.5 -52.5t-73 -122.5t-23.5 -143v-563h-127v786q0 51 -15 77t-54 26z" />
<glyph unicode="s" horiz-adv-x="806" d="M61 184l74 82q4 -7 10.5 -18.5t31.5 -40.5t53 -51.5t75 -41t98 -18.5q96 0 146.5 43.5t50.5 120.5q0 41 -17.5 70t-46.5 45t-67 27.5t-80 20.5t-84 20t-80 30.5t-67 47.5t-46.5 75.5t-17.5 110.5q0 59 17.5 110t53.5 92.5t98.5 65.5t144.5 24q85 0 148 -23.5t97 -64 t50 -86.5t16 -98q0 -24 -3 -47t-6 -34l-3 -11h-115q10 33 10 82q0 75 -47 124.5t-147 49.5q-91 0 -139 -49t-48 -133q0 -58 28 -95t72 -53.5t98 -27t108 -25t98 -39t72 -76t28 -129.5q0 -131 -79.5 -203.5t-235.5 -72.5q-74 0 -137.5 20t-101 49t-64 58t-36.5 49z" />
<glyph unicode="t" horiz-adv-x="702" d="M55 883v104h131v307h129v-307h324v-104h-324v-543q0 -122 39.5 -182t124.5 -60q27 0 53.5 9t44 22t31.5 26t20 22l7 9l41 -90q-3 -4 -9 -11.5t-26.5 -26t-43 -33t-58 -26t-72.5 -11.5q-147 0 -214 86.5t-67 261.5v547h-131z" />
<glyph unicode="u" d="M121 334v653h127v-639q0 -252 174 -252q57 0 104 33t74 81.5t41 97.5t14 89v590h127v-784q0 -54 15.5 -79.5t56.5 -25.5v-96q-20 -6 -59 -6q-127 0 -127 160v39q-32 -91 -104.5 -149t-182.5 -58q-260 0 -260 346z" />
<glyph unicode="v" horiz-adv-x="870" d="M51 987h142l245 -842l248 842h133l-311 -987h-143z" />
<glyph unicode="w" horiz-adv-x="1300" d="M55 987h140l198 -844l207 830h117l192 -830l199 844h133l-262 -987h-141l-183 756l-192 -756h-141z" />
<glyph unicode="x" horiz-adv-x="839" d="M45 0l295 498l-295 489h152l223 -405l233 405h142l-295 -489l295 -498h-144l-231 414l-232 -414h-143z" />
<glyph unicode="y" horiz-adv-x="868" d="M49 -481l19 106q41 -18 90 -18q59 0 91 37t56 112l68 234l-324 997h137l252 -837l244 837h135l-399 -1263q-36 -108 -95 -169t-157 -61q-32 0 -61 6t-43 12z" />
<glyph unicode="z" horiz-adv-x="788" d="M76 0v104l491 779h-491v104h637v-104l-486 -779h486v-104h-637z" />
<glyph unicode="{" horiz-adv-x="550" d="M61 440v107h17q45 0 77.5 34.5t32.5 102.5v477q0 74 17 132t44.5 94t66.5 59t79.5 32t87.5 9v-115q-82 0 -128 -57t-46 -172v-484q0 -44 -10 -77t-25 -50.5t-27 -26t-22 -11.5q9 -3 20.5 -12.5t27 -27.5t26 -51.5t10.5 -74.5v-484q0 -115 46 -172t128 -57v-115 q-59 0 -108.5 16t-93 51t-68.5 101.5t-25 157.5v477q0 68 -32.5 102.5t-77.5 34.5h-17z" />
<glyph unicode="|" horiz-adv-x="395" d="M141 -520v2027h111v-2027h-111z" />
<glyph unicode="}" horiz-adv-x="550" d="M66 -385q84 0 130 56.5t46 172.5v484q0 44 9 76.5t26.5 51.5t25 24.5t21.5 13.5q-10 3 -21 10.5t-26.5 25t-25 51t-9.5 78.5v484q0 116 -46 172.5t-130 56.5v115q47 0 87.5 -9t79.5 -32t66.5 -59t44 -94t16.5 -132v-477q0 -68 33.5 -102.5t77.5 -34.5h16v-107h-16 q-44 0 -77.5 -34.5t-33.5 -102.5v-477q0 -74 -16.5 -131.5t-44 -93.5t-66.5 -59t-79.5 -32.5t-87.5 -9.5v115z" />
<glyph unicode="~" horiz-adv-x="776" d="M123 520q0 63 35.5 103.5t99.5 40.5q53 0 132.5 -36t115.5 -36q41 0 41 45q0 17 -4.5 34.5t-9.5 26.5l-5 9h105q16 -37 16 -86q0 -59 -33 -97.5t-96 -38.5q-49 0 -96 18.5t-84.5 37t-63.5 18.5q-22 0 -35.5 -16t-13.5 -43q0 -17 5.5 -34t10.5 -26l5 -8h-105 q-20 35 -20 88z" />
<glyph unicode="&#xa1;" horiz-adv-x="393" d="M113 948q0 38 25.5 65t60.5 27t60.5 -27t25.5 -65t-25.5 -65t-60.5 -27t-60.5 27t-25.5 65zM123 -520l18 1153h111l14 -1153h-143z" />
<glyph unicode="&#xa2;" horiz-adv-x="849" d="M98 502q0 240 79.5 367.5t228.5 146.5v176h102v-176q46 -3 87.5 -22t68 -42t48.5 -51.5t31.5 -47t14.5 -32.5l-107 -63q0 3 -4 15.5t-14.5 33t-26 40t-41.5 36t-57 20.5v-805q45 4 82.5 24.5t58 46.5t34.5 51.5t19 43.5l5 17l71 -66q-2 -8 -7 -22.5t-25.5 -51 t-47.5 -65.5t-78 -55t-112 -31v-197h-102v199q-133 21 -220.5 148.5t-87.5 361.5zM223 502q0 -93 16 -166t43.5 -117.5t58 -70.5t65.5 -37v790q-183 -34 -183 -399z" />
<glyph unicode="&#xa3;" horiz-adv-x="1058" d="M88 489v117h180q-5 9 -22.5 42t-24.5 48t-22 47t-22 56t-16 57t-12.5 68t-3.5 73q0 196 110 322.5t308 126.5q94 0 172.5 -26t123.5 -62.5t76 -73t43 -62.5l11 -26l-117 -53q-3 8 -9 20.5t-30.5 44.5t-56 56.5t-88.5 44.5t-125 20q-70 0 -125.5 -29t-88.5 -78t-50 -109.5 t-18 -127.5q-1 -58 13.5 -116.5t30.5 -94t44.5 -91t38.5 -77.5h397v-117h-361q11 -27 11 -73q0 -53 -11.5 -103t-25.5 -82t-33 -61t-27.5 -38.5t-15.5 -16.5h586v-115h-770v88q7 5 17.5 14t38.5 40t49 66.5t38.5 91.5t17.5 116q0 48 -10 73h-221z" />
<glyph unicode="&#xa4;" horiz-adv-x="1024" d="M115 426l141 168q-43 76 -43 180t43 180l-137 166l65 70l135 -164q38 45 88.5 71.5t104.5 26.5q109 0 190 -98l136 164l67 -70l-137 -166q45 -88 45 -180q0 -103 -45 -182l135 -162l-67 -68l-134 158q-76 -96 -188 -96q-115 0 -195 96l-137 -164zM313 774 q0 -102 58.5 -174t142.5 -72q82 -1 140.5 71.5t58.5 174.5q0 103 -59 174.5t-142 71.5q-82 0 -140.5 -72t-58.5 -174z" />
<glyph unicode="&#xa5;" horiz-adv-x="1093" d="M49 1407h158l340 -668l338 668h159l-309 -561h213v-103h-276l-60 -120v-64h258v-100h-258v-459h-131v459h-260v100h260v64l-59 120h-279v103h215z" />
<glyph unicode="&#xa6;" horiz-adv-x="397" d="M143 401h111v-921h-111v921zM143 725v782h111v-782h-111z" />
<glyph unicode="&#xa7;" horiz-adv-x="1075" d="M82 -231l84 77q5 -10 14 -25.5t42.5 -56t73.5 -71.5t107.5 -56.5t143.5 -25.5q134 0 214.5 69.5t80.5 200.5q0 73 -25 124.5t-67 80.5t-96.5 48.5t-115 33.5t-120.5 29t-114.5 41t-96.5 65t-67 105.5t-25 156.5q0 158 80 242q-80 76 -80 252q0 169 110 278t303 109 q71 0 133 -14.5t104 -37.5t76.5 -50.5t54.5 -55t34 -50.5t19 -38l5 -14l-96 -70q-3 9 -9 23t-32 51t-59 65t-92 51t-129 23q-134 0 -210.5 -74.5t-76.5 -195.5q0 -69 25 -118.5t67 -77.5t96.5 -47.5t115 -33.5t120.5 -30t114.5 -43t96.5 -66t67 -105.5t25 -156.5 q0 -81 -23 -146t-57 -100q80 -76 80 -250q0 -172 -112 -281.5t-318 -109.5q-72 0 -137 15t-110.5 39.5t-84 54t-62.5 58.5t-40.5 53.5t-23.5 39.5zM250 567q0 -86 34 -141.5t95.5 -83t126 -43.5t146.5 -39.5t136 -54.5q22 22 38 67.5t16 106.5q0 72 -25.5 123.5t-65 78.5 t-97.5 48t-113 32t-121 31t-113 45q-57 -57 -57 -170z" />
<glyph unicode="&#xa8;" horiz-adv-x="600" d="M70 1300q0 35 24 62t56 27t55.5 -27t23.5 -62q0 -37 -23.5 -62.5t-55.5 -25.5q-33 0 -56.5 26t-23.5 62zM371 1300q0 35 24 62t56 27q33 0 56 -26.5t23 -62.5q0 -37 -22.5 -62.5t-56.5 -25.5q-33 0 -56.5 26t-23.5 62z" />
<glyph unicode="&#xa9;" horiz-adv-x="1499" d="M92 743q0 169 49.5 314t136 247t208.5 160t262 58t262.5 -58t209.5 -160t137 -247t50 -314q0 -225 -84.5 -403t-235 -276.5t-339.5 -98.5q-188 0 -338 98.5t-234 276.5t-84 403zM203 743q0 -191 69.5 -343t194 -237t281.5 -85t281.5 85.5t193.5 237.5t69 342 q0 192 -70 346t-194.5 241t-279.5 87q-156 0 -280.5 -86.5t-194.5 -240.5t-70 -347zM401 725q0 140 27.5 245t76.5 166t110 91t133 30q58 0 106.5 -15.5t79.5 -39t55 -54.5t36.5 -59.5t20 -56.5t9.5 -43t2 -22l-105 -19q0 4 -1 11t-5.5 28t-12 39.5t-23 41.5t-36 39.5 t-53.5 28t-73 11.5q-43 0 -80.5 -20.5t-71.5 -66t-54 -130.5t-20 -201q0 -85 14.5 -152.5t38.5 -110t55.5 -71t63.5 -40t66 -11.5q49 0 91 11.5t67.5 28t43.5 32.5t26 28l7 11l52 -84q-3 -6 -9.5 -15t-31.5 -33t-56 -42t-85.5 -33t-116.5 -15q-66 0 -125.5 27.5t-110.5 83.5 t-81 154t-30 227z" />
<glyph unicode="&#xaa;" horiz-adv-x="620" d="M96 1012q0 151 180 151h123v74q0 64 -24 92.5t-76 28.5q-46 0 -71 -22t-25 -60q0 -14 2 -24t4 -14l2 -3h-82q-6 12 -6 53q0 64 45.5 107t130.5 43q93 0 137.5 -48t44.5 -149v-248q0 -28 8 -37.5t33 -9.5v-67q-12 -9 -41 -9t-52 20.5t-23 63.5v13q-41 -99 -158 -99 q-68 0 -110 37.5t-42 106.5zM180 1022q0 -38 24 -59t62 -21q65 0 99 42.5t34 92.5v23h-118q-101 0 -101 -78z" />
<glyph unicode="&#xab;" horiz-adv-x="815" d="M96 487v107l246 274l66 -75l-211 -252l211 -250l-66 -78zM401 487v107l246 274l66 -75l-211 -252l211 -250l-66 -78z" />
<glyph unicode="&#xac;" horiz-adv-x="802" d="M131 522v99h543v-345h-103v246h-440z" />
<glyph unicode="&#xad;" horiz-adv-x="696" d="M121 510v100h454v-100h-454z" />
<glyph unicode="&#xae;" horiz-adv-x="1499" d="M92 743q0 169 49.5 314t136 247t208.5 160t262 58t262.5 -58t209.5 -160t137 -247t50 -314q0 -225 -84.5 -403t-235 -276.5t-339.5 -98.5q-188 0 -338 98.5t-234 276.5t-84 403zM203 743q0 -191 69.5 -343t194 -237t281.5 -85t281.5 85.5t193.5 237.5t69 342 q0 192 -70 346t-194.5 241t-279.5 87q-156 0 -280.5 -86.5t-194.5 -240.5t-70 -347zM459 262v971h282q127 0 196 -70.5t69 -212.5q0 -56 -13.5 -100.5t-30 -68.5t-40.5 -42.5t-35.5 -23.5t-23.5 -9h-2l-1 -1q35 -22 66 -81t50 -115t50 -100t68 -44h28v-103q-28 -2 -51 -2 q-56 0 -97.5 42t-67 102t-50 120t-61 102t-84.5 42h-138v-406h-114zM573 768h144q168 0 168 176q0 184 -164 184h-148v-360z" />
<glyph unicode="&#xaf;" horiz-adv-x="647" d="M92 1231v98h465v-98h-465z" />
<glyph unicode="&#xb0;" horiz-adv-x="602" d="M92 1202q0 103 61 176.5t148 73.5t150 -74t63 -176t-63 -175t-150 -73t-148 72.5t-61 175.5zM164 1202q0 -72 39.5 -122t97.5 -50t98.5 50t40.5 122t-40.5 123t-98.5 51t-97.5 -50.5t-39.5 -123.5z" />
<glyph unicode="&#xb1;" horiz-adv-x="847" d="M113 16v99h616v-99h-616zM119 596v98h252v322h98v-322h260v-98h-260v-334h-98v334h-252z" />
<glyph unicode="&#xb2;" horiz-adv-x="436" d="M55 1427q0 14 7.5 36t24 48.5t50.5 45t80 18.5q74 0 116 -48t42 -126q0 -53 -21 -95.5t-50.5 -68.5t-59.5 -48.5t-51 -48t-21 -55.5v-4h203v-71h-314v45q0 47 17 83.5t42.5 58t55.5 43.5t55.5 40.5t42.5 48.5t17 68q0 46 -21 72t-55 26q-25 0 -42.5 -12t-25 -28.5 t-10 -28t-2.5 -17.5z" />
<glyph unicode="&#xb3;" horiz-adv-x="442" d="M47 1110l51 47q1 -3 3.5 -8.5t12 -19.5t20.5 -24.5t31 -19t42 -8.5q43 0 69.5 23.5t26.5 64.5q0 47 -25 69.5t-59 22.5h-41v70h41q23 0 43.5 24.5t20.5 67.5q0 31 -19.5 53.5t-54.5 22.5q-24 0 -42.5 -12.5t-24.5 -25.5l-7 -13l-74 29q1 4 4 11t14.5 24.5t27 31t44 24.5 t62.5 11q79 0 118.5 -43.5t39.5 -104.5q0 -60 -24.5 -92t-47.5 -37q88 -35 88 -139q0 -71 -49 -112t-127 -41q-38 0 -68.5 10.5t-47.5 26t-28.5 31t-15.5 26.5z" />
<glyph unicode="&#xb4;" horiz-adv-x="452" d="M76 1155l145 332h158l-184 -332h-119z" />
<glyph unicode="&#xb6;" horiz-adv-x="1019" d="M66 997q0 198 92 317.5t266 119.5h440v-1434h-84v1362h-153v-1362h-82v565h-121q-174 0 -266 117.5t-92 314.5z" />
<glyph unicode="&#xb7;" horiz-adv-x="407" d="M115 727q0 39 26 67.5t64 28.5q36 0 62 -28.5t26 -67.5q0 -38 -25.5 -66t-62.5 -28q-38 0 -64 27.5t-26 66.5z" />
<glyph unicode="&#xb8;" horiz-adv-x="460" d="M92 -299l31 66q4 -6 12 -14t33.5 -22t52.5 -14q35 0 54.5 18.5t19.5 51.5q0 34 -34.5 58t-106.5 24l53 137h78l-31 -82q45 -3 82 -40t37 -99q0 -67 -42 -105t-110 -38q-38 0 -70.5 15t-45.5 29z" />
<glyph unicode="&#xb9;" horiz-adv-x="366" d="M37 1413q64 0 111.5 49.5t52.5 104.5h84v-559h-84v424q-12 -36 -54 -66.5t-98 -30.5z" />
<glyph unicode="&#xba;" horiz-adv-x="604" d="M94 1157q0 134 56.5 207.5t150.5 73.5t150.5 -73.5t56.5 -207.5q0 -135 -56.5 -209t-150.5 -74t-150.5 74t-56.5 209zM178 1155q0 -100 34 -151.5t89 -51.5q56 0 90.5 52.5t34.5 150.5t-35 150.5t-90 52.5q-54 0 -88.5 -51.5t-34.5 -151.5z" />
<glyph unicode="&#xbb;" horiz-adv-x="815" d="M102 291l213 250l-213 252l66 75l246 -274v-107l-246 -274zM408 291l210 250l-210 252l65 75l246 -274v-107l-246 -274z" />
<glyph unicode="&#xbc;" horiz-adv-x="907" d="M55 1280q65 0 113 49.5t51 104.5h84v-560h-84v424q-14 -36 -54 -66t-95 -30zM205 0l364 1434h97l-361 -1434h-100zM475 127v61l158 371h90l-150 -358h136v131h84v-131h59v-74h-59v-127h-84v127h-234z" />
<glyph unicode="&#xbd;" horiz-adv-x="901" d="M55 1280q65 0 113 49.5t51 104.5h84v-560h-84v424q-14 -36 -54 -66t-95 -30zM205 0l364 1434h97l-361 -1434h-100zM506 418q0 14 7.5 35.5t23.5 48t50 45t79 18.5q75 0 116 -47.5t41 -126.5q0 -45 -15 -82.5t-37 -61t-48 -45.5t-48 -38.5t-37 -39.5t-15 -48v-4h202v-72 h-315v45q0 55 24 95.5t58 65t67.5 47.5t57.5 56.5t24 77.5q0 47 -20.5 72.5t-54.5 25.5q-25 0 -43 -12t-25.5 -28.5t-10.5 -28t-3 -17.5z" />
<glyph unicode="&#xbe;" horiz-adv-x="960" d="M66 973l51 47q1 -3 3.5 -8.5t11.5 -19.5t20.5 -24.5t31 -19t41.5 -8.5q44 0 71.5 24t27.5 64q0 47 -25.5 69.5t-58.5 22.5h-43v70h43q22 0 41.5 24.5t19.5 67.5q0 31 -19.5 53.5t-54.5 22.5q-24 0 -42.5 -13t-24.5 -25l-6 -13l-72 28q1 4 3.5 11t13.5 25t26 31.5 t43.5 24.5t62.5 11q79 0 119.5 -44t40.5 -104t-26 -92t-48 -37q86 -34 86 -139q0 -71 -48 -112.5t-126 -41.5q-38 0 -69 11t-48 26t-28 30.5t-14 26.5zM266 0l365 1434h96l-362 -1434h-99zM530 127v61l158 371h90l-151 -358h137v131h84v-131h59v-74h-59v-127h-84v127h-234z " />
<glyph unicode="&#xbf;" horiz-adv-x="774" d="M59 -143q0 78 17.5 141t45 106.5t61 83t67 80.5t61 88.5t45 118t17.5 158.5h121q0 -99 -16.5 -178t-43 -130.5t-58.5 -94t-64.5 -79t-59 -74.5t-43 -91.5t-16.5 -120.5q0 -115 53 -187.5t149 -72.5q93 0 151 80t58 204l117 -30q0 -165 -93.5 -267t-236.5 -102 q-84 0 -149.5 30.5t-104.5 82.5t-58.5 116.5t-19.5 137.5zM352 948q0 38 25.5 65t60.5 27q34 0 59 -27t25 -65q0 -37 -25 -63.5t-59 -26.5q-35 0 -60.5 26.5t-25.5 63.5z" />
<glyph unicode="&#xc0;" horiz-adv-x="1110" d="M43 0l446 1434h132l448 -1434h-137l-127 424h-500l-127 -424h-135zM295 1933h158l143 -331h-115zM344 535h422l-211 716z" />
<glyph unicode="&#xc1;" horiz-adv-x="1110" d="M43 0l446 1434h132l448 -1434h-137l-127 424h-500l-127 -424h-135zM344 535h422l-211 716zM508 1602l145 331h158l-184 -331h-119z" />
<glyph unicode="&#xc2;" horiz-adv-x="1110" d="M43 0l446 1434h132l448 -1434h-137l-127 424h-500l-127 -424h-135zM334 1585l151 332h146l149 -332h-114l-109 230l-106 -230h-117zM344 535h422l-211 716z" />
<glyph unicode="&#xc3;" horiz-adv-x="1110" d="M43 0l446 1434h132l448 -1434h-137l-127 424h-500l-127 -424h-135zM299 1702q0 62 35.5 102.5t99.5 40.5q53 0 132.5 -35.5t115.5 -35.5q41 0 41 45q0 17 -4.5 34.5t-8.5 26.5l-5 8h104q16 -37 16 -86q0 -59 -33 -97t-96 -38q-49 0 -96 18.5t-84 37t-63 18.5 q-22 0 -36 -16.5t-14 -43.5q0 -17 5.5 -34t10.5 -25l5 -8h-105q-20 35 -20 88zM344 535h422l-211 716z" />
<glyph unicode="&#xc4;" horiz-adv-x="1110" d="M43 0l446 1434h132l448 -1434h-137l-127 424h-500l-127 -424h-135zM332 1747q0 35 24 61.5t56 26.5t56 -26.5t24 -61.5q0 -36 -23.5 -62t-56.5 -26t-56.5 26t-23.5 62zM344 535h422l-211 716zM633 1747q0 35 24 61.5t56 26.5q33 0 56.5 -26t23.5 -62q0 -37 -23 -62.5 t-57 -25.5q-33 0 -56.5 26t-23.5 62z" />
<glyph unicode="&#xc5;" horiz-adv-x="1110" d="M43 0l446 1434h132l448 -1434h-137l-127 424h-500l-127 -424h-135zM344 535h422l-211 716zM426 1747q0 65 37.5 108t95.5 43q57 0 96 -43.5t39 -107.5t-39 -108t-96 -44q-58 0 -95.5 43.5t-37.5 108.5zM492 1747q0 -37 18 -59.5t49 -22.5t49.5 22.5t18.5 59.5 q0 35 -18.5 57.5t-49.5 22.5q-30 0 -48.5 -22t-18.5 -58z" />
<glyph unicode="&#xc6;" horiz-adv-x="1429" d="M43 0l446 1434h861v-115h-686l159 -539h422v-114h-379l160 -551h324v-115h-418l-127 424h-500l-127 -424h-135zM344 535h422l-211 718z" />
<glyph unicode="&#xc7;" horiz-adv-x="1093" d="M94 713q0 151 24.5 272.5t68.5 207t107 142.5t139 84t165 27q79 0 144.5 -22.5t107.5 -57t74.5 -80t49.5 -88t27.5 -84t13.5 -64.5t3 -34l-121 -23q0 7 -1.5 19t-8.5 47t-18.5 66.5t-34.5 70.5t-53 67t-77.5 47t-105.5 19q-61 0 -114.5 -20.5t-101 -67.5t-81 -117 t-53 -175t-19.5 -236q0 -134 22.5 -240t59.5 -174t89 -113t108 -63.5t119 -18.5q59 0 113.5 22t90.5 54t63.5 63.5t40.5 53.5l13 22l80 -88q-3 -5 -8 -13.5t-23 -33t-39 -47t-55.5 -50t-72 -48t-89.5 -35t-108 -16.5l-21 -64q45 -3 81 -40t36 -99q0 -67 -41.5 -105 t-107.5 -38q-39 0 -72 15t-46 29l-13 15l30 66q4 -6 12.5 -14t34.5 -22t52 -14q35 0 54 18.5t19 51.5q0 34 -33.5 58t-105.5 24l45 123q-102 10 -185 56.5t-146 131.5t-97.5 220.5t-34.5 312.5z" />
<glyph unicode="&#xc8;" horiz-adv-x="948" d="M154 0v1434h708v-115h-577v-549h487v-113h-487v-542h577v-115h-708zM297 1933h158l143 -331h-115z" />
<glyph unicode="&#xc9;" horiz-adv-x="948" d="M154 0v1434h708v-115h-577v-549h487v-113h-487v-542h577v-115h-708zM465 1602l145 331h158l-184 -331h-119z" />
<glyph unicode="&#xca;" horiz-adv-x="948" d="M154 0v1434h708v-115h-577v-549h487v-113h-487v-542h577v-115h-708zM322 1585l151 332h145l150 -332h-115l-108 230l-107 -230h-116z" />
<glyph unicode="&#xcb;" horiz-adv-x="948" d="M154 0v1434h708v-115h-577v-549h487v-113h-487v-542h577v-115h-708zM317 1747q0 35 24 61.5t56 26.5t56 -26.5t24 -61.5q0 -36 -23.5 -62t-56.5 -26t-56.5 26t-23.5 62zM618 1747q0 35 24 61.5t56 26.5q33 0 56.5 -26t23.5 -62q0 -37 -23 -62.5t-57 -25.5q-33 0 -56.5 26 t-23.5 62z" />
<glyph unicode="&#xcc;" horiz-adv-x="436" d="M-16 1933h157l144 -331h-115zM154 0v1434h131v-1434h-131z" />
<glyph unicode="&#xcd;" horiz-adv-x="436" d="M154 0v1434h131v-1434h-131zM154 1602l145 331h158l-185 -331h-118z" />
<glyph unicode="&#xce;" horiz-adv-x="436" d="M-12 1585l151 332h146l149 -332h-115l-108 230l-107 -230h-116zM154 0v1434h131v-1434h-131z" />
<glyph unicode="&#xcf;" horiz-adv-x="436" d="M-16 1718q0 35 23.5 61.5t55.5 26.5t56 -26.5t24 -61.5q0 -36 -23.5 -62t-56.5 -26q-32 0 -55.5 25.5t-23.5 62.5zM154 0v1434h131v-1434h-131zM285 1718q0 35 24 61.5t56 26.5q33 0 56 -26t23 -62q0 -37 -22.5 -62.5t-56.5 -25.5q-33 0 -56.5 26t-23.5 62z" />
<glyph unicode="&#xd0;" horiz-adv-x="1136" d="M154 0v1434h307q123 0 225.5 -42.5t183 -129t125.5 -229.5t45 -331q0 -178 -38.5 -313.5t-108 -220t-163 -126.5t-208.5 -42h-368zM285 115h235q180 0 283.5 148t103.5 439q0 311 -119 464t-327 153h-176v-553h364v-102h-364v-549z" />
<glyph unicode="&#xd1;" horiz-adv-x="1165" d="M154 0v1434h149l578 -1215v1215h133v-1434h-152l-577 1196v-1196h-131zM332 1702q0 62 35.5 102.5t99.5 40.5q53 0 132.5 -35.5t115.5 -35.5q41 0 41 45q0 17 -5 34.5t-9 26.5l-5 8h105q16 -37 16 -86q0 -59 -33 -97t-96 -38q-49 0 -96 18.5t-84.5 37t-63.5 18.5 q-22 0 -35.5 -16.5t-13.5 -43.5q0 -17 5 -34t11 -25l5 -8h-105q-20 35 -20 88z" />
<glyph unicode="&#xd2;" horiz-adv-x="1206" d="M94 715q0 153 27.5 277t74.5 207.5t112.5 140t139 81.5t156.5 25q103 0 192 -41.5t161 -126t113.5 -229t41.5 -334.5q0 -153 -27.5 -276.5t-74.5 -206.5t-112.5 -138.5t-138.5 -80.5t-155 -25t-155.5 25t-139 80.5t-113 138.5t-75 206.5t-27.5 276.5zM231 715 q0 -131 20 -235.5t54.5 -174t83 -115.5t102 -66t113.5 -20t113 20t101.5 66t83 115.5t55 174t20.5 235.5q0 164 -30.5 286.5t-84 192t-118 102.5t-140.5 33q-77 0 -141.5 -33t-117.5 -102.5t-83.5 -191.5t-30.5 -287zM375 1933h157l144 -331h-115z" />
<glyph unicode="&#xd3;" horiz-adv-x="1206" d="M94 715q0 153 27.5 277t74.5 207.5t112.5 140t139 81.5t156.5 25q103 0 192 -41.5t161 -126t113.5 -229t41.5 -334.5q0 -153 -27.5 -276.5t-74.5 -206.5t-112.5 -138.5t-138.5 -80.5t-155 -25t-155.5 25t-139 80.5t-113 138.5t-75 206.5t-27.5 276.5zM231 715 q0 -131 20 -235.5t54.5 -174t83 -115.5t102 -66t113.5 -20t113 20t101.5 66t83 115.5t55 174t20.5 235.5q0 164 -30.5 286.5t-84 192t-118 102.5t-140.5 33q-77 0 -141.5 -33t-117.5 -102.5t-83.5 -191.5t-30.5 -287zM516 1602l146 331h157l-184 -331h-119z" />
<glyph unicode="&#xd4;" horiz-adv-x="1206" d="M94 715q0 153 27.5 277t74.5 207.5t112.5 140t139 81.5t156.5 25q103 0 192 -41.5t161 -126t113.5 -229t41.5 -334.5q0 -153 -27.5 -276.5t-74.5 -206.5t-112.5 -138.5t-138.5 -80.5t-155 -25t-155.5 25t-139 80.5t-113 138.5t-75 206.5t-27.5 276.5zM231 715 q0 -131 20 -235.5t54.5 -174t83 -115.5t102 -66t113.5 -20t113 20t101.5 66t83 115.5t55 174t20.5 235.5q0 164 -30.5 286.5t-84 192t-118 102.5t-140.5 33q-77 0 -141.5 -33t-117.5 -102.5t-83.5 -191.5t-30.5 -287zM387 1585l152 332h145l150 -332h-115l-109 230 l-106 -230h-117z" />
<glyph unicode="&#xd5;" horiz-adv-x="1206" d="M94 715q0 153 27.5 277t74.5 207.5t112.5 140t139 81.5t156.5 25q103 0 192 -41.5t161 -126t113.5 -229t41.5 -334.5q0 -153 -27.5 -276.5t-74.5 -206.5t-112.5 -138.5t-138.5 -80.5t-155 -25t-155.5 25t-139 80.5t-113 138.5t-75 206.5t-27.5 276.5zM231 715 q0 -131 20 -235.5t54.5 -174t83 -115.5t102 -66t113.5 -20t113 20t101.5 66t83 115.5t55 174t20.5 235.5q0 164 -30.5 286.5t-84 192t-118 102.5t-140.5 33q-77 0 -141.5 -33t-117.5 -102.5t-83.5 -191.5t-30.5 -287zM348 1702q0 62 35.5 102.5t99.5 40.5q53 0 132.5 -35.5 t115.5 -35.5q41 0 41 45q0 17 -4.5 34.5t-9.5 26.5l-4 8h104q16 -37 16 -86q0 -59 -33 -97t-96 -38q-49 0 -96 18.5t-84 37t-63 18.5q-22 0 -35.5 -16.5t-13.5 -43.5q0 -17 5 -34t10 -25l5 -8h-104q-21 35 -21 88z" />
<glyph unicode="&#xd6;" horiz-adv-x="1206" d="M94 715q0 153 27.5 277t74.5 207.5t112.5 140t139 81.5t156.5 25q103 0 192 -41.5t161 -126t113.5 -229t41.5 -334.5q0 -153 -27.5 -276.5t-74.5 -206.5t-112.5 -138.5t-138.5 -80.5t-155 -25t-155.5 25t-139 80.5t-113 138.5t-75 206.5t-27.5 276.5zM231 715 q0 -131 20 -235.5t54.5 -174t83 -115.5t102 -66t113.5 -20t113 20t101.5 66t83 115.5t55 174t20.5 235.5q0 164 -30.5 286.5t-84 192t-118 102.5t-140.5 33q-77 0 -141.5 -33t-117.5 -102.5t-83.5 -191.5t-30.5 -287zM375 1747q0 35 24 61.5t56 26.5t56 -26.5t24 -61.5 q0 -36 -23.5 -62t-56.5 -26t-56.5 26t-23.5 62zM676 1747q0 35 24 61.5t56 26.5q33 0 56.5 -26t23.5 -62q0 -37 -23 -62.5t-57 -25.5q-33 0 -56.5 26t-23.5 62z" />
<glyph unicode="&#xd7;" horiz-adv-x="794" d="M111 303l217 258l-217 256l69 72l215 -258l219 258l70 -72l-219 -256l219 -258l-70 -70l-219 259l-215 -259z" />
<glyph unicode="&#xd8;" horiz-adv-x="1204" d="M94 715q0 153 27.5 277t74.5 207.5t112.5 140t139 81.5t156.5 25q162 0 283 -98l65 118h133l-114 -206q141 -192 141 -545q0 -153 -27.5 -276.5t-74.5 -206.5t-112.5 -138.5t-138.5 -80.5t-155 -25q-168 0 -289 98l-65 -119h-135l116 209q-137 191 -137 539zM231 715 q0 -257 74 -408l518 930q-92 92 -219 92q-77 0 -141.5 -33t-117.5 -102.5t-83.5 -191.5t-30.5 -287zM379 199q91 -95 225 -95q60 0 113 20t101.5 66t83 115.5t55 174t20.5 235.5q0 256 -78 415z" />
<glyph unicode="&#xd9;" horiz-adv-x="1159" d="M139 586v848h133v-856q0 -248 79 -361t229 -113t227.5 112.5t77.5 361.5v856h131v-848q0 -134 -21.5 -237.5t-59.5 -171t-94 -110.5t-119.5 -61t-141.5 -18q-441 0 -441 598zM332 1933h157l144 -331h-115z" />
<glyph unicode="&#xda;" horiz-adv-x="1159" d="M139 586v848h133v-856q0 -248 79 -361t229 -113t227.5 112.5t77.5 361.5v856h131v-848q0 -134 -21.5 -237.5t-59.5 -171t-94 -110.5t-119.5 -61t-141.5 -18q-441 0 -441 598zM492 1602l145 331h158l-185 -331h-118z" />
<glyph unicode="&#xdb;" horiz-adv-x="1159" d="M139 586v848h133v-856q0 -248 79 -361t229 -113t227.5 112.5t77.5 361.5v856h131v-848q0 -134 -21.5 -237.5t-59.5 -171t-94 -110.5t-119.5 -61t-141.5 -18q-441 0 -441 598zM348 1585l152 332h145l150 -332h-115l-109 230l-106 -230h-117z" />
<glyph unicode="&#xdc;" horiz-adv-x="1159" d="M139 586v848h133v-856q0 -248 79 -361t229 -113t227.5 112.5t77.5 361.5v856h131v-848q0 -134 -21.5 -237.5t-59.5 -171t-94 -110.5t-119.5 -61t-141.5 -18q-441 0 -441 598zM346 1747q0 35 24 61.5t56 26.5t56 -26.5t24 -61.5q0 -36 -23.5 -62t-56.5 -26t-56.5 26 t-23.5 62zM647 1747q0 35 24 61.5t56 26.5q33 0 56.5 -26t23.5 -62q0 -37 -23 -62.5t-57 -25.5q-33 0 -56.5 26t-23.5 62z" />
<glyph unicode="&#xdd;" horiz-adv-x="1079" d="M41 1434h158l342 -686l340 686h157l-434 -805v-629h-131v629zM465 1602l145 331h158l-184 -331h-119z" />
<glyph unicode="&#xde;" horiz-adv-x="1021" d="M154 0v1434h131v-244h241q203 0 314.5 -114.5t111.5 -336.5q0 -216 -109.5 -325t-299.5 -109h-258v-305h-131zM285 418h237q148 0 221.5 82t73.5 239t-75 246.5t-224 89.5h-233v-657z" />
<glyph unicode="&#xdf;" horiz-adv-x="913" d="M127 0v1141q0 172 79 272t232 100q145 0 230.5 -99t85.5 -238q0 -75 -20 -138.5t-48 -104.5t-56.5 -73.5t-48.5 -60t-20 -49.5q0 -18 16 -36t41.5 -36t56.5 -40t61.5 -54.5t56 -72t41.5 -99t16 -129.5q0 -154 -90 -233t-234 -79q-55 0 -102 8.5t-66 17.5l-20 9l22 105 q58 -31 144 -31q105 0 163 58.5t58 172.5q0 73 -30 132t-72.5 95.5t-84.5 67.5t-72 65t-30 72q0 32 19.5 64t48 62.5t56.5 67t47.5 91.5t19.5 121q0 107 -48 181.5t-139 74.5q-88 0 -137 -74.5t-49 -210.5v-1120h-127z" />
<glyph unicode="&#xe0;" horiz-adv-x="872" d="M72 240q0 260 321 260h221v159q0 230 -190 230q-91 0 -139.5 -51.5t-48.5 -137.5q0 -25 4 -47t8 -31l4 -10h-117q-18 33 -18 111q0 121 82 198.5t227 77.5q315 0 315 -344v-448q0 -56 15.5 -83.5t54.5 -27.5v-92q-18 -8 -57 -8q-58 0 -93.5 38t-35.5 113v54 q-12 -36 -33.5 -69.5t-55.5 -67.5t-86.5 -55t-115.5 -21q-124 0 -193 66.5t-69 185.5zM186 1487h158l143 -332h-114zM203 250q0 -75 44.5 -117.5t119.5 -42.5q39 0 74 14.5t59.5 38t44.5 52t32.5 57t21 52t11.5 38.5l4 14v50h-221q-92 0 -141 -40.5t-49 -115.5z" />
<glyph unicode="&#xe1;" horiz-adv-x="872" d="M72 240q0 260 321 260h221v159q0 230 -190 230q-91 0 -139.5 -51.5t-48.5 -137.5q0 -25 4 -47t8 -31l4 -10h-117q-18 33 -18 111q0 121 82 198.5t227 77.5q315 0 315 -344v-448q0 -56 15.5 -83.5t54.5 -27.5v-92q-18 -8 -57 -8q-58 0 -93.5 38t-35.5 113v54 q-12 -36 -33.5 -69.5t-55.5 -67.5t-86.5 -55t-115.5 -21q-124 0 -193 66.5t-69 185.5zM203 250q0 -75 44.5 -117.5t119.5 -42.5q39 0 74 14.5t59.5 38t44.5 52t32.5 57t21 52t11.5 38.5l4 14v50h-221q-92 0 -141 -40.5t-49 -115.5zM342 1155l145 332h158l-184 -332h-119z " />
<glyph unicode="&#xe2;" horiz-adv-x="872" d="M72 240q0 260 321 260h221v159q0 230 -190 230q-91 0 -139.5 -51.5t-48.5 -137.5q0 -25 4 -47t8 -31l4 -10h-117q-18 33 -18 111q0 121 82 198.5t227 77.5q315 0 315 -344v-448q0 -56 15.5 -83.5t54.5 -27.5v-92q-18 -8 -57 -8q-58 0 -93.5 38t-35.5 113v54 q-12 -36 -33.5 -69.5t-55.5 -67.5t-86.5 -55t-115.5 -21q-124 0 -193 66.5t-69 185.5zM203 250q0 -75 44.5 -117.5t119.5 -42.5q39 0 74 14.5t59.5 38t44.5 52t32.5 57t21 52t11.5 38.5l4 14v50h-221q-92 0 -141 -40.5t-49 -115.5zM209 1139l151 331h146l149 -331h-114 l-109 229l-106 -229h-117z" />
<glyph unicode="&#xe3;" horiz-adv-x="872" d="M72 240q0 260 321 260h221v159q0 230 -190 230q-91 0 -139.5 -51.5t-48.5 -137.5q0 -25 4 -47t8 -31l4 -10h-117q-18 33 -18 111q0 121 82 198.5t227 77.5q315 0 315 -344v-448q0 -56 15.5 -83.5t54.5 -27.5v-92q-18 -8 -57 -8q-58 0 -93.5 38t-35.5 113v54 q-12 -36 -33.5 -69.5t-55.5 -67.5t-86.5 -55t-115.5 -21q-124 0 -193 66.5t-69 185.5zM150 1255q0 63 35.5 103.5t99.5 40.5q53 0 132 -36t115 -36q41 0 41 45q0 17 -4.5 34.5t-8.5 26.5l-5 9h104q17 -37 17 -86q0 -59 -33 -97t-96 -38q-49 0 -96 18.5t-84.5 36.5t-63.5 18 q-22 0 -35.5 -16t-13.5 -43q0 -17 5 -34t10 -25l5 -9h-104q-20 35 -20 88zM203 250q0 -75 44.5 -117.5t119.5 -42.5q39 0 74 14.5t59.5 38t44.5 52t32.5 57t21 52t11.5 38.5l4 14v50h-221q-92 0 -141 -40.5t-49 -115.5z" />
<glyph unicode="&#xe4;" horiz-adv-x="872" d="M72 240q0 260 321 260h221v159q0 230 -190 230q-91 0 -139.5 -51.5t-48.5 -137.5q0 -25 4 -47t8 -31l4 -10h-117q-18 33 -18 111q0 121 82 198.5t227 77.5q315 0 315 -344v-448q0 -56 15.5 -83.5t54.5 -27.5v-92q-18 -8 -57 -8q-58 0 -93.5 38t-35.5 113v54 q-12 -36 -33.5 -69.5t-55.5 -67.5t-86.5 -55t-115.5 -21q-124 0 -193 66.5t-69 185.5zM203 250q0 -75 44.5 -117.5t119.5 -42.5q39 0 74 14.5t59.5 38t44.5 52t32.5 57t21 52t11.5 38.5l4 14v50h-221q-92 0 -141 -40.5t-49 -115.5zM203 1300q0 35 24 62t56 27t55.5 -27 t23.5 -62q0 -37 -23.5 -62.5t-55.5 -25.5q-33 0 -56.5 26t-23.5 62zM504 1300q0 35 24 62t56 27q33 0 56.5 -26.5t23.5 -62.5q0 -37 -23 -62.5t-57 -25.5q-33 0 -56.5 26t-23.5 62z" />
<glyph unicode="&#xe5;" horiz-adv-x="872" d="M72 240q0 260 321 260h221v159q0 230 -190 230q-91 0 -139.5 -51.5t-48.5 -137.5q0 -25 4 -47t8 -31l4 -10h-117q-18 33 -18 111q0 121 82 198.5t227 77.5q315 0 315 -344v-448q0 -56 15.5 -83.5t54.5 -27.5v-92q-18 -8 -57 -8q-58 0 -93.5 38t-35.5 113v54 q-12 -36 -33.5 -69.5t-55.5 -67.5t-86.5 -55t-115.5 -21q-124 0 -193 66.5t-69 185.5zM203 250q0 -75 44.5 -117.5t119.5 -42.5q39 0 74 14.5t59.5 38t44.5 52t32.5 57t21 52t11.5 38.5l4 14v50h-221q-92 0 -141 -40.5t-49 -115.5zM301 1300q0 65 37.5 108.5t95.5 43.5 q57 0 96 -44t39 -108t-39 -107.5t-96 -43.5q-58 0 -95.5 43t-37.5 108zM367 1300q0 -37 18 -59t49 -22t49.5 22t18.5 59q0 35 -18.5 57.5t-49.5 22.5q-30 0 -48.5 -22t-18.5 -58z" />
<glyph unicode="&#xe6;" horiz-adv-x="1374" d="M72 240q0 260 321 260h221v159q0 230 -190 230q-91 0 -139.5 -51.5t-48.5 -137.5q0 -25 4 -47t8 -31l4 -10h-117q-18 33 -18 111q0 121 82 198.5t227 77.5q191 0 272 -153q99 153 277 153q84 0 145.5 -33.5t97 -95t52 -139t16.5 -174.5v-55h-545v-25q2 -88 19.5 -157 t43.5 -110t60.5 -68t67 -36.5t65.5 -9.5q43 0 82 15t63.5 36t42.5 42t26 36l8 15l71 -74q-3 -7 -10 -19t-33.5 -43t-58.5 -54.5t-87.5 -42.5t-119.5 -19q-109 0 -196 57t-132 180q-7 -20 -18 -43t-38 -60t-60 -65t-87 -48.5t-116 -20.5q-124 0 -193 66.5t-69 185.5zM203 250 q0 -75 44.5 -117.5t119.5 -42.5q39 0 74 14.5t59.5 38t44.5 52t32.5 57t21 52t11.5 38.5l4 14v50h-221q-92 0 -141 -40.5t-49 -115.5zM745 594h420q0 133 -47.5 215t-148.5 82q-94 0 -153 -73t-71 -224z" />
<glyph unicode="&#xe7;" horiz-adv-x="837" d="M86 494q0 256 96 380.5t271 124.5q76 0 134.5 -24.5t92.5 -67t51 -94.5t17 -111q0 -26 -3 -50.5t-5 -35.5l-3 -12h-116q8 39 8 78q0 38 -8.5 72.5t-27 66.5t-54.5 51t-86 19q-113 0 -177.5 -96.5t-64.5 -298.5q0 -92 17 -164.5t43 -116t61.5 -71t68.5 -38t68 -10.5 q43 0 81.5 15t63 36t42.5 42t26 36l8 15l72 -74q-3 -7 -9.5 -18t-30 -40t-52.5 -51.5t-78 -43t-105 -23.5l-24 -66q45 -3 82 -40t37 -99q0 -67 -42 -105t-110 -38q-38 0 -71 15t-47 29l-13 15l31 66q4 -6 12.5 -14t34.5 -22t53 -14q34 0 54 19t20 51q0 34 -33.5 58 t-105.5 24l43 123q-66 7 -121.5 38t-102 88.5t-72.5 153.5t-26 222z" />
<glyph unicode="&#xe8;" horiz-adv-x="845" d="M86 494q0 256 93.5 380.5t266.5 124.5q84 0 145.5 -33.5t97.5 -95t52.5 -139t16.5 -174.5v-55h-545v-25q2 -88 19.5 -157t43.5 -110t60.5 -68t67 -36.5t65.5 -9.5q43 0 81.5 15t63 36t42.5 42t26 36l8 15l72 -74q-3 -7 -10 -19t-33.5 -43t-58.5 -54.5t-87.5 -42.5 t-119.5 -19q-73 0 -136 26.5t-116.5 83.5t-84 158t-30.5 238zM188 1487h158l143 -332h-114zM217 594h420q0 133 -48 215t-149 82q-93 0 -152 -73t-71 -224z" />
<glyph unicode="&#xe9;" horiz-adv-x="845" d="M86 494q0 256 93.5 380.5t266.5 124.5q84 0 145.5 -33.5t97.5 -95t52.5 -139t16.5 -174.5v-55h-545v-25q2 -88 19.5 -157t43.5 -110t60.5 -68t67 -36.5t65.5 -9.5q43 0 81.5 15t63 36t42.5 42t26 36l8 15l72 -74q-3 -7 -10 -19t-33.5 -43t-58.5 -54.5t-87.5 -42.5 t-119.5 -19q-73 0 -136 26.5t-116.5 83.5t-84 158t-30.5 238zM217 594h420q0 133 -48 215t-149 82q-93 0 -152 -73t-71 -224zM362 1155l146 332h158l-185 -332h-119z" />
<glyph unicode="&#xea;" horiz-adv-x="845" d="M86 494q0 256 93.5 380.5t266.5 124.5q84 0 145.5 -33.5t97.5 -95t52.5 -139t16.5 -174.5v-55h-545v-25q2 -88 19.5 -157t43.5 -110t60.5 -68t67 -36.5t65.5 -9.5q43 0 81.5 15t63 36t42.5 42t26 36l8 15l72 -74q-3 -7 -10 -19t-33.5 -43t-58.5 -54.5t-87.5 -42.5 t-119.5 -19q-73 0 -136 26.5t-116.5 83.5t-84 158t-30.5 238zM217 594h420q0 133 -48 215t-149 82q-93 0 -152 -73t-71 -224zM219 1139l152 331h145l150 -331h-115l-109 229l-106 -229h-117z" />
<glyph unicode="&#xeb;" horiz-adv-x="845" d="M86 494q0 256 93.5 380.5t266.5 124.5q84 0 145.5 -33.5t97.5 -95t52.5 -139t16.5 -174.5v-55h-545v-25q2 -88 19.5 -157t43.5 -110t60.5 -68t67 -36.5t65.5 -9.5q43 0 81.5 15t63 36t42.5 42t26 36l8 15l72 -74q-3 -7 -10 -19t-33.5 -43t-58.5 -54.5t-87.5 -42.5 t-119.5 -19q-73 0 -136 26.5t-116.5 83.5t-84 158t-30.5 238zM217 594h420q0 133 -48 215t-149 82q-93 0 -152 -73t-71 -224zM219 1300q0 35 24 62t56 27t56 -27t24 -62q0 -36 -23.5 -62t-56.5 -26t-56.5 26t-23.5 62zM520 1300q0 35 24 62t56 27q33 0 56.5 -26.5 t23.5 -62.5q0 -37 -23 -62.5t-57 -25.5q-33 0 -56.5 26t-23.5 62z" />
<glyph unicode="&#xec;" horiz-adv-x="395" d="M-59 1487h157l144 -332h-115zM121 188v799h129v-786q0 -53 16 -78t56 -25v-96q-21 -6 -58 -6q-143 0 -143 192z" />
<glyph unicode="&#xed;" horiz-adv-x="395" d="M119 1155l145 332h158l-184 -332h-119zM121 188v799h129v-786q0 -53 16 -78t56 -25v-96q-21 -6 -58 -6q-143 0 -143 192z" />
<glyph unicode="&#xee;" horiz-adv-x="395" d="M-37 1139l152 331h145l150 -331h-115l-109 229l-106 -229h-117zM121 188v799h129v-786q0 -53 16 -78t56 -25v-96q-21 -6 -58 -6q-143 0 -143 192z" />
<glyph unicode="&#xef;" horiz-adv-x="395" d="M-37 1300q0 35 24 62t56 27t56 -27t24 -62q0 -36 -23.5 -62t-56.5 -26t-56.5 26t-23.5 62zM121 188v799h129v-786q0 -53 16 -78t56 -25v-96q-21 -6 -58 -6q-143 0 -143 192zM264 1300q0 35 24 62t56 27q33 0 56.5 -26.5t23.5 -62.5q0 -37 -23 -62.5t-57 -25.5 q-33 0 -56.5 26t-23.5 62z" />
<glyph unicode="&#xf0;" horiz-adv-x="999" d="M86 451q0 108 31 193t85 139t124 82t151 28q55 0 106.5 -16.5t86 -39.5t61 -46t39.5 -39l12 -17q-8 319 -153 467l-217 -158l-54 86l189 136q-98 59 -221 59v111q182 0 319 -99l178 127l49 -82l-151 -112q188 -201 188 -606q0 -318 -111 -497t-313 -179q-189 0 -294 122 t-105 341zM213 451q0 -162 74.5 -258.5t197.5 -96.5q127 0 205.5 124t87.5 360q-4 8 -12.5 22t-37 49.5t-59 62.5t-79 49.5t-98.5 22.5q-129 0 -204 -88t-75 -247z" />
<glyph unicode="&#xf1;" horiz-adv-x="946" d="M76 889v96q18 6 59 6q53 0 89 -38.5t36 -108.5v-80q20 102 87 168.5t177 66.5q148 0 219.5 -106.5t71.5 -278.5v-413q0 -53 16 -78t56 -25v-96q-21 -6 -58 -6q-143 0 -143 192v426q0 124 -48.5 200.5t-145.5 76.5q-54 0 -97.5 -31.5t-69.5 -81t-39.5 -105.5t-13.5 -110 v-563h-127v788q0 50 -15 75.5t-54 25.5zM197 1255q0 63 35.5 103.5t99.5 40.5q53 0 132.5 -36t115.5 -36q41 0 41 45q0 17 -4.5 34.5t-9.5 26.5l-5 9h105q16 -37 16 -86q0 -59 -33 -97t-96 -38q-49 0 -96 18.5t-84.5 36.5t-63.5 18q-22 0 -35.5 -16t-13.5 -43q0 -17 5.5 -34 t10.5 -25l5 -9h-105q-20 35 -20 88z" />
<glyph unicode="&#xf2;" horiz-adv-x="894" d="M86 494q0 241 97 373t263 132q167 0 266 -132.5t99 -372.5q0 -241 -98.5 -373.5t-266.5 -132.5q-166 0 -263 132.5t-97 373.5zM205 1487h157l144 -332h-115zM211 494q0 -194 64.5 -296t170.5 -102q108 0 173 101.5t65 296.5q0 194 -65.5 295.5t-172.5 101.5 q-106 0 -170.5 -101.5t-64.5 -295.5z" />
<glyph unicode="&#xf3;" horiz-adv-x="894" d="M86 494q0 241 97 373t263 132q167 0 266 -132.5t99 -372.5q0 -241 -98.5 -373.5t-266.5 -132.5q-166 0 -263 132.5t-97 373.5zM211 494q0 -194 64.5 -296t170.5 -102q108 0 173 101.5t65 296.5q0 194 -65.5 295.5t-172.5 101.5q-106 0 -170.5 -101.5t-64.5 -295.5z M373 1155l145 332h158l-184 -332h-119z" />
<glyph unicode="&#xf4;" horiz-adv-x="894" d="M86 494q0 241 97 373t263 132q167 0 266 -132.5t99 -372.5q0 -241 -98.5 -373.5t-266.5 -132.5q-166 0 -263 132.5t-97 373.5zM211 494q0 -194 64.5 -296t170.5 -102q108 0 173 101.5t65 296.5q0 194 -65.5 295.5t-172.5 101.5q-106 0 -170.5 -101.5t-64.5 -295.5z M223 1139l152 331h145l150 -331h-115l-109 229l-106 -229h-117z" />
<glyph unicode="&#xf5;" horiz-adv-x="894" d="M86 494q0 241 97 373t263 132q167 0 266 -132.5t99 -372.5q0 -241 -98.5 -373.5t-266.5 -132.5q-166 0 -263 132.5t-97 373.5zM172 1255q0 63 35.5 103.5t99.5 40.5q53 0 132.5 -36t115.5 -36q41 0 41 45q0 17 -4.5 34.5t-9.5 26.5l-4 9h104q16 -37 16 -86q0 -59 -33 -97 t-96 -38q-49 0 -96 18.5t-84 36.5t-63 18q-22 0 -36 -16t-14 -43q0 -17 5 -34t11 -25l5 -9h-104q-21 35 -21 88zM211 494q0 -194 64.5 -296t170.5 -102q108 0 173 101.5t65 296.5q0 194 -65.5 295.5t-172.5 101.5q-106 0 -170.5 -101.5t-64.5 -295.5z" />
<glyph unicode="&#xf6;" horiz-adv-x="894" d="M86 494q0 241 97 373t263 132q167 0 266 -132.5t99 -372.5q0 -241 -98.5 -373.5t-266.5 -132.5q-166 0 -263 132.5t-97 373.5zM211 494q0 -194 64.5 -296t170.5 -102q108 0 173 101.5t65 296.5q0 194 -65.5 295.5t-172.5 101.5q-106 0 -170.5 -101.5t-64.5 -295.5z M223 1300q0 35 24 62t56 27t56 -27t24 -62q0 -36 -23.5 -62t-56.5 -26t-56.5 26t-23.5 62zM524 1300q0 35 24 62t56 27q33 0 56.5 -26.5t23.5 -62.5q0 -37 -23 -62.5t-57 -25.5q-33 0 -56.5 26t-23.5 62z" />
<glyph unicode="&#xf7;" horiz-adv-x="811" d="M106 526v99h599v-99h-599zM313 283q0 41 29.5 72.5t69.5 31.5t69 -31.5t29 -72.5q0 -43 -29 -75t-69 -32t-69.5 32t-29.5 75zM313 858q0 40 28.5 70t66.5 30q39 0 66.5 -30t27.5 -70q0 -43 -27.5 -73.5t-66.5 -30.5q-38 0 -66.5 30.5t-28.5 73.5z" />
<glyph unicode="&#xf8;" horiz-adv-x="894" d="M86 494q0 241 97 373t263 132q114 0 193 -61l51 92h103l-86 -158q104 -136 104 -378q0 -241 -98.5 -373.5t-266.5 -132.5q-111 0 -188 57l-45 -86h-104l81 152q-104 132 -104 383zM211 494q0 -163 45 -261l328 601q-57 57 -138 57q-106 0 -170.5 -101.5t-64.5 -295.5z M315 147q54 -51 131 -51q108 0 173 101.5t65 296.5q0 156 -45 254z" />
<glyph unicode="&#xf9;" d="M121 334v653h127v-639q0 -252 174 -252q57 0 104 33t74 81.5t41 97.5t14 89v590h127v-784q0 -54 15.5 -79.5t56.5 -25.5v-96q-20 -6 -59 -6q-127 0 -127 160v39q-32 -91 -104.5 -149t-182.5 -58q-260 0 -260 346zM229 1487h158l143 -332h-114z" />
<glyph unicode="&#xfa;" d="M121 334v653h127v-639q0 -252 174 -252q57 0 104 33t74 81.5t41 97.5t14 89v590h127v-784q0 -54 15.5 -79.5t56.5 -25.5v-96q-20 -6 -59 -6q-127 0 -127 160v39q-32 -91 -104.5 -149t-182.5 -58q-260 0 -260 346zM350 1155l146 332h157l-184 -332h-119z" />
<glyph unicode="&#xfb;" d="M121 334v653h127v-639q0 -252 174 -252q57 0 104 33t74 81.5t41 97.5t14 89v590h127v-784q0 -54 15.5 -79.5t56.5 -25.5v-96q-20 -6 -59 -6q-127 0 -127 160v39q-32 -91 -104.5 -149t-182.5 -58q-260 0 -260 346zM227 1139l152 331h145l150 -331h-115l-108 229l-107 -229 h-117z" />
<glyph unicode="&#xfc;" d="M121 334v653h127v-639q0 -252 174 -252q57 0 104 33t74 81.5t41 97.5t14 89v590h127v-784q0 -54 15.5 -79.5t56.5 -25.5v-96q-20 -6 -59 -6q-127 0 -127 160v39q-32 -91 -104.5 -149t-182.5 -58q-260 0 -260 346zM229 1300q0 35 24 62t56 27t56 -27t24 -62 q0 -36 -23.5 -62t-56.5 -26t-56.5 26t-23.5 62zM530 1300q0 35 24 62t56 27q33 0 56.5 -26.5t23.5 -62.5q0 -37 -23 -62.5t-57 -25.5q-33 0 -56.5 26t-23.5 62z" />
<glyph unicode="&#xfd;" horiz-adv-x="868" d="M49 -481l19 106q41 -18 90 -18q59 0 91 37t56 112l68 234l-324 997h137l252 -837l244 837h135l-399 -1263q-36 -108 -95 -169t-157 -61q-32 0 -61 6t-43 12zM332 1155l145 332h158l-184 -332h-119z" />
<glyph unicode="&#xfe;" d="M127 -500v1987h127v-662l16 24t25.5 36.5t35 38.5t47 38t59 26t73.5 11q54 0 102 -17t91 -55.5t74 -95.5t49 -141t18 -188q0 -134 -27.5 -236t-75.5 -161t-107.5 -88t-129.5 -29q-51 0 -94.5 16.5t-69.5 36.5t-47.5 48t-27.5 40t-11 23v-652h-127zM254 317q0 -8 6 -30 t22.5 -55.5t40 -63t65 -51t91.5 -21.5q108 0 174 103t66 301q0 197 -69 294t-171 97q-50 0 -92 -24.5t-65.5 -59.5t-40 -70t-21.5 -59l-6 -25v-336z" />
<glyph unicode="&#xff;" horiz-adv-x="868" d="M49 -481l19 106q41 -18 90 -18q59 0 91 37t56 112l68 234l-324 997h137l252 -837l244 837h135l-399 -1263q-36 -108 -95 -169t-157 -61q-32 0 -61 6t-43 12zM209 1300q0 35 24 62t56 27t56 -27t24 -62q0 -36 -23.5 -62t-56.5 -26t-56.5 26t-23.5 62zM510 1300q0 35 24 62 t56 27q33 0 56.5 -26.5t23.5 -62.5q0 -37 -23 -62.5t-57 -25.5q-33 0 -56.5 26t-23.5 62z" />
<glyph unicode="&#x152;" horiz-adv-x="1777" d="M94 715q0 153 27.5 277t74.5 207.5t112.5 140t139 81.5t156.5 25q111 0 209 -50t168 -151v189h711v-115h-578v-549h488v-113h-488v-542h578v-115h-711v184q-69 -99 -167 -147.5t-210 -48.5q-82 0 -155.5 25t-139 80.5t-113 138.5t-75 206.5t-27.5 276.5zM231 715 q0 -131 20 -235.5t54.5 -174t83 -115.5t102 -66t113.5 -20t113 20t101.5 66t83 115.5t55 174t20.5 235.5q0 164 -30.5 286.5t-84 192t-118 102.5t-140.5 33q-77 0 -141.5 -33t-117.5 -102.5t-83.5 -191.5t-30.5 -287z" />
<glyph unicode="&#x153;" horiz-adv-x="1445" d="M86 494q0 241 97 373t263 132q97 0 173.5 -47t123.5 -137q90 184 304 184q84 0 145.5 -33.5t97 -95t52 -139t16.5 -174.5v-55h-545v-25q2 -88 19.5 -157t43.5 -110t60.5 -68t67 -36.5t65.5 -9.5q43 0 81.5 15t63 36t42.5 42t26 36l8 15l72 -74q-3 -7 -10 -19t-33.5 -43 t-58.5 -54.5t-87.5 -42.5t-119.5 -19q-212 0 -305 188q-47 -92 -124.5 -140t-177.5 -48q-166 0 -263 132.5t-97 373.5zM211 494q0 -194 64.5 -296t170.5 -102q108 0 173 101.5t65 296.5q0 194 -65.5 295.5t-172.5 101.5q-106 0 -170.5 -101.5t-64.5 -295.5zM817 594h420 q0 133 -48 215t-149 82q-93 0 -152 -73t-71 -224z" />
<glyph unicode="&#x178;" horiz-adv-x="1079" d="M41 1434h158l342 -686l340 686h157l-434 -805v-629h-131v629zM307 1747q0 35 24 61.5t56 26.5t56 -26.5t24 -61.5q0 -36 -23.5 -62t-56.5 -26t-56.5 26t-23.5 62zM608 1747q0 35 24 61.5t56 26.5q33 0 56.5 -26t23.5 -62q0 -37 -23 -62.5t-57 -25.5q-33 0 -56.5 26 t-23.5 62z" />
<glyph unicode="&#x2c6;" horiz-adv-x="589" d="M70 1139l151 331h146l149 -331h-115l-108 229l-107 -229h-116z" />
<glyph unicode="&#x2dc;" horiz-adv-x="679" d="M76 1255q0 63 35.5 103.5t99.5 40.5q53 0 132.5 -36t115.5 -36q41 0 41 45q0 17 -5 34.5t-9 26.5l-5 9h105q16 -37 16 -86q0 -59 -33 -97t-96 -38q-49 0 -96 18.5t-84.5 36.5t-63.5 18q-22 0 -35.5 -16t-13.5 -43q0 -17 5 -34t11 -25l5 -9h-105q-20 35 -20 88z" />
<glyph unicode="&#x2000;" horiz-adv-x="966" />
<glyph unicode="&#x2001;" horiz-adv-x="1933" />
<glyph unicode="&#x2002;" horiz-adv-x="966" />
<glyph unicode="&#x2003;" horiz-adv-x="1933" />
<glyph unicode="&#x2004;" horiz-adv-x="644" />
<glyph unicode="&#x2005;" horiz-adv-x="483" />
<glyph unicode="&#x2006;" horiz-adv-x="322" />
<glyph unicode="&#x2007;" horiz-adv-x="322" />
<glyph unicode="&#x2008;" horiz-adv-x="241" />
<glyph unicode="&#x2009;" horiz-adv-x="386" />
<glyph unicode="&#x200a;" horiz-adv-x="107" />
<glyph unicode="&#x2010;" horiz-adv-x="696" d="M121 510v100h454v-100h-454z" />
<glyph unicode="&#x2011;" horiz-adv-x="696" d="M121 510v100h454v-100h-454z" />
<glyph unicode="&#x2012;" horiz-adv-x="696" d="M121 510v100h454v-100h-454z" />
<glyph unicode="&#x2013;" horiz-adv-x="946" d="M121 510v100h704v-100h-704z" />
<glyph unicode="&#x2014;" horiz-adv-x="1542" d="M121 510v100h1300v-100h-1300z" />
<glyph unicode="&#x2018;" horiz-adv-x="317" d="M61 1444q0 60 15 108.5t36 75t42 44.5t36 24l15 6l37 -66q-3 -1 -8.5 -4t-19.5 -14t-24.5 -23.5t-19 -33.5t-8.5 -45q35 0 60.5 -27.5t25.5 -67.5t-25.5 -68t-60.5 -28q-43 0 -72 32.5t-29 86.5z" />
<glyph unicode="&#x2019;" horiz-adv-x="380" d="M102 1368q0 39 26 67.5t62 28.5q41 0 69 -32t28 -86q0 -60 -14.5 -108.5t-35 -75t-41 -45t-34.5 -24.5l-15 -6l-38 66q3 2 8.5 5t19.5 14t24.5 23.5t19.5 33.5t9 43q-36 0 -62 28.5t-26 67.5z" />
<glyph unicode="&#x201a;" horiz-adv-x="401" d="M106 82q0 40 27 68t64 28q41 0 68.5 -31.5t27.5 -85.5q0 -60 -14.5 -109t-34.5 -76t-40.5 -45t-35.5 -24l-14 -6l-39 68q3 2 8.5 4.5t20 13.5t25 23.5t19.5 33.5t9 44q-37 0 -64 27.5t-27 66.5z" />
<glyph unicode="&#x201c;" horiz-adv-x="561" d="M61 1444q0 60 15 108.5t36 75t42 44.5t36 24l15 6l37 -66q-3 -1 -8.5 -4t-19.5 -14t-24.5 -23.5t-19 -33.5t-8.5 -45q35 0 60.5 -27.5t25.5 -67.5t-25.5 -68t-60.5 -28q-43 0 -72 32.5t-29 86.5zM307 1444q0 60 14.5 108.5t35.5 75t42 44.5t35 24l15 6l38 -66 q-3 -1 -8.5 -4t-19 -14t-24.5 -23.5t-19.5 -33.5t-9.5 -45q36 0 62 -28t26 -67q0 -40 -25.5 -68t-62.5 -28q-42 0 -70.5 32.5t-28.5 86.5z" />
<glyph unicode="&#x201d;" horiz-adv-x="624" d="M102 1366q0 40 25.5 68t62.5 28q41 0 69 -32.5t28 -86.5q0 -60 -14.5 -108t-35 -74.5t-41 -44.5t-34.5 -24l-15 -5l-38 66q3 2 8.5 4.5t19.5 13.5t24.5 23.5t19.5 33.5t9 44q-37 0 -62.5 27t-25.5 67zM346 1366q0 40 25.5 68t62.5 28q42 0 70 -32.5t28 -86.5 q0 -60 -14.5 -108t-35 -74.5t-40.5 -44.5t-34 -24l-15 -5l-39 66q3 2 8.5 4.5t19.5 13.5t24.5 23.5t19 33.5t8.5 44q-36 0 -62 27.5t-26 66.5z" />
<glyph unicode="&#x201e;" horiz-adv-x="638" d="M106 82q0 40 27 68t64 28q41 0 68.5 -31.5t27.5 -85.5q0 -60 -14.5 -109t-34.5 -76t-40.5 -45t-35.5 -24l-14 -6l-39 68q3 2 8.5 4.5t20 13.5t25 23.5t19.5 33.5t9 44q-37 0 -64 27.5t-27 66.5zM344 82q0 40 25.5 68t62.5 28q41 0 69.5 -31.5t28.5 -85.5 q0 -60 -14.5 -109t-35 -76t-41.5 -45t-35 -24l-15 -6l-39 68q3 2 8.5 4.5t20 13.5t25 23.5t19.5 33.5t9 44q-37 0 -62.5 27t-25.5 67z" />
<glyph unicode="&#x2022;" horiz-adv-x="612" d="M147 592q0 74 46.5 125t113.5 51q65 0 112.5 -51.5t47.5 -124.5q0 -72 -47.5 -123t-112.5 -51q-67 0 -113.5 51t-46.5 123z" />
<glyph unicode="&#x2026;" horiz-adv-x="935" d="M109 76q0 35 23.5 60.5t57.5 25.5q32 0 56 -25.5t24 -60.5q0 -36 -23.5 -62t-56.5 -26q-34 0 -57.5 25.5t-23.5 62.5zM385 76q0 35 24 60.5t56 25.5t56 -25.5t24 -60.5q0 -36 -23.5 -62t-56.5 -26t-56.5 26t-23.5 62zM666 76q0 35 23.5 60.5t55.5 25.5q34 0 58 -25.5 t24 -60.5q0 -37 -24 -62.5t-58 -25.5q-32 0 -55.5 25.5t-23.5 62.5z" />
<glyph unicode="&#x202f;" horiz-adv-x="386" />
<glyph unicode="&#x2039;" horiz-adv-x="509" d="M96 487v107l246 274l66 -75l-211 -252l211 -250l-66 -78z" />
<glyph unicode="&#x203a;" horiz-adv-x="509" d="M102 291l213 250l-213 252l66 75l246 -274v-107l-246 -274z" />
<glyph unicode="&#x205f;" horiz-adv-x="483" />
<glyph unicode="&#x20ac;" horiz-adv-x="1150" d="M82 508v115h137q0 12 -1 37t-1 40v64h-135v115h145q34 249 156 388.5t313 139.5q239 0 346 -172l-100 -76q-87 131 -244 131q-125 0 -213.5 -98.5t-119.5 -312.5h434v-115h-447v-141h447v-115h-426q34 -184 128.5 -281.5t221.5 -97.5q144 0 268 129l78 -86 q-135 -160 -350 -160q-191 0 -319.5 122t-168.5 374h-149z" />
<glyph unicode="&#x2122;" horiz-adv-x="1382" d="M98 1360v86h514v-86h-202v-655h-103v655h-209zM662 705v741h104l188 -520l191 520h102v-741h-88v583l-174 -475h-65l-170 475v-583h-88z" />
<glyph unicode="&#x25fc;" horiz-adv-x="983" d="M0 0v983h983v-983h-983z" />
</font>
</defs>
</svg>
